<svg xmlns="http://www.w3.org/2000/svg" xmlns:xlink="http://www.w3.org/1999/xlink" contentStyleType="text/css" height="492.82px" preserveAspectRatio="none" style="width:334px;height:492px;background:#FFFFFF;" version="1.1" viewBox="0 0 334 492" width="334.97px" zoomAndPan="magnify"><defs/><g><!--class Match--><g id="elem_Match"><rect codeLine="14" fill="#F1F1F1" height="73.1225" id="Match" rx="1.025" ry="1.025" style="stroke:#181818;stroke-width:0.205;" width="71.9194" x="185.73" y="2.87"/><ellipse cx="212.1318" cy="9.43" fill="#ADD1B2" rx="4.51" ry="4.51" style="stroke:#181818;stroke-width:0.41;"/><path d="M213.2657,7.7388 Q213.3297,7.6491 213.4066,7.6042 Q213.4835,7.5594 213.5732,7.5594 Q213.7269,7.5594 213.823,7.6683 Q213.9191,7.7708 213.9191,8.0206 L213.9191,8.6164 Q213.9191,8.8662 213.823,8.9752 Q213.7269,9.0841 213.5732,9.0841 Q213.4322,9.0841 213.3489,9.0008 Q213.2657,8.9239 213.2208,8.7125 Q213.2016,8.5652 213.1247,8.4883 Q212.9902,8.3345 212.7404,8.2448 Q212.4905,8.1552 212.2343,8.1552 Q211.9204,8.1552 211.6577,8.2897 Q211.4014,8.4242 211.1964,8.7317 Q210.9979,9.0392 210.9979,9.462 L210.9979,9.9105 Q210.9979,10.4166 211.363,10.7561 Q211.7282,11.0892 212.3816,11.0892 Q212.766,11.0892 213.035,10.9867 Q213.1952,10.9227 213.3682,10.7433 Q213.4771,10.6344 213.5347,10.6023 Q213.5988,10.5703 213.6821,10.5703 Q213.8166,10.5703 213.9191,10.6792 Q214.028,10.7817 214.028,10.9227 Q214.028,11.0636 213.8871,11.2302 Q213.6821,11.4672 213.3554,11.6017 Q212.9133,11.7875 212.3816,11.7875 Q211.7602,11.7875 211.2669,11.5313 Q210.8633,11.3263 210.5814,10.8906 Q210.2996,10.4486 210.2996,9.9233 L210.2996,9.4492 Q210.2996,8.9047 210.5494,8.437 Q210.8057,7.963 211.2541,7.7131 Q211.7025,7.4569 212.2086,7.4569 Q212.5097,7.4569 212.7724,7.5273 Q213.0414,7.5914 213.2657,7.7388 Z " fill="#000000"/><text fill="#000000" font-family="sans-serif" font-size="5.74" lengthAdjust="spacing" textLength="15.6308" x="220.5368" y="11.8067">Match</text><line style="stroke:#181818;stroke-width:0.205;" x1="186.14" x2="257.2394" y1="15.99" y2="15.99"/><rect fill="none" height="2.46" style="stroke:#C82930;stroke-width:0.41;" width="2.46" x="189.01" y="20.8323"/><text fill="#000000" font-family="sans-serif" font-size="5.74" lengthAdjust="spacing" textLength="21.0569" x="193.93" y="23.824">String id</text><rect fill="none" height="2.46" style="stroke:#C82930;stroke-width:0.41;" width="2.46" x="189.01" y="28.467"/><text fill="#000000" font-family="sans-serif" font-size="5.74" lengthAdjust="spacing" textLength="24.8911" x="193.93" y="31.4587">Date date</text><rect fill="none" height="2.46" style="stroke:#C82930;stroke-width:0.41;" width="2.46" x="189.01" y="36.1016"/><text fill="#000000" font-family="sans-serif" font-size="5.74" lengthAdjust="spacing" textLength="36.3739" x="193.93" y="39.0933">List&lt;Set&gt; sets</text><rect fill="none" height="2.46" style="stroke:#C82930;stroke-width:0.41;" width="2.46" x="189.01" y="43.7363"/><text fill="#000000" font-family="sans-serif" font-size="5.74" lengthAdjust="spacing" textLength="29.9921" x="193.93" y="46.728">int totalSets</text><rect fill="none" height="2.46" style="stroke:#C82930;stroke-width:0.41;" width="2.46" x="189.01" y="51.3709"/><text fill="#000000" font-family="sans-serif" font-size="5.74" lengthAdjust="spacing" textLength="36.6906" x="193.93" y="54.3626">Set currentSet</text><rect fill="none" height="2.46" style="stroke:#C82930;stroke-width:0.41;" width="2.46" x="189.01" y="59.0056"/><text fill="#000000" font-family="sans-serif" font-size="5.74" lengthAdjust="spacing" textLength="61.2594" x="193.93" y="61.9973">ScoreBoard scoreBoard</text><line style="stroke:#181818;stroke-width:0.205;" x1="186.14" x2="257.2394" y1="65.0779" y2="65.0779"/><ellipse cx="190.24" cy="71.1502" fill="#84BE84" rx="1.23" ry="1.23" style="stroke:#038048;stroke-width:0.41;"/><text fill="#000000" font-family="sans-serif" font-size="5.74" lengthAdjust="spacing" textLength="59.6562" x="193.93" y="72.9119">isMatchOver(): boolean</text></g><!--class Set--><g id="elem_Set"><rect codeLine="39" fill="#F1F1F1" height="65.4879" id="Set" rx="1.025" ry="1.025" style="stroke:#181818;stroke-width:0.205;" width="148.7984" x="2.87" y="100.45"/><ellipse cx="71.2189" cy="107.01" fill="#ADD1B2" rx="4.51" ry="4.51" style="stroke:#181818;stroke-width:0.41;"/><path d="M72.3528,105.3188 Q72.4169,105.2291 72.4937,105.1842 Q72.5706,105.1394 72.6603,105.1394 Q72.814,105.1394 72.9101,105.2483 Q73.0062,105.3508 73.0062,105.6006 L73.0062,106.1964 Q73.0062,106.4462 72.9101,106.5552 Q72.814,106.6641 72.6603,106.6641 Q72.5194,106.6641 72.4361,106.5808 Q72.3528,106.5039 72.3079,106.2925 Q72.2887,106.1452 72.2119,106.0683 Q72.0773,105.9145 71.8275,105.8248 Q71.5776,105.7352 71.3214,105.7352 Q71.0075,105.7352 70.7448,105.8697 Q70.4886,106.0042 70.2836,106.3117 Q70.085,106.6192 70.085,107.042 L70.085,107.4905 Q70.085,107.9966 70.4501,108.3361 Q70.8153,108.6692 71.4687,108.6692 Q71.8531,108.6692 72.1222,108.5667 Q72.2823,108.5027 72.4553,108.3233 Q72.5642,108.2144 72.6219,108.1823 Q72.6859,108.1503 72.7692,108.1503 Q72.9037,108.1503 73.0062,108.2592 Q73.1151,108.3617 73.1151,108.5027 Q73.1151,108.6436 72.9742,108.8102 Q72.7692,109.0472 72.4425,109.1817 Q72.0004,109.3675 71.4687,109.3675 Q70.8473,109.3675 70.354,109.1113 Q69.9504,108.9063 69.6686,108.4706 Q69.3867,108.0286 69.3867,107.5033 L69.3867,107.0292 Q69.3867,106.4847 69.6365,106.017 Q69.8928,105.543 70.3412,105.2931 Q70.7897,105.0369 71.2958,105.0369 Q71.5969,105.0369 71.8595,105.1073 Q72.1286,105.1714 72.3528,105.3188 Z " fill="#000000"/><text fill="#000000" font-family="sans-serif" font-size="5.74" lengthAdjust="spacing" textLength="8.6156" x="79.6239" y="109.3867">Set</text><line style="stroke:#181818;stroke-width:0.205;" x1="3.28" x2="151.2584" y1="113.57" y2="113.57"/><rect fill="none" height="2.46" style="stroke:#C82930;stroke-width:0.41;" width="2.46" x="6.15" y="118.4123"/><text fill="#000000" font-family="sans-serif" font-size="5.74" lengthAdjust="spacing" textLength="52.3158" x="11.07" y="121.404">IGame currentGame</text><rect fill="none" height="2.46" style="stroke:#C82930;stroke-width:0.41;" width="2.46" x="6.15" y="126.047"/><text fill="#000000" font-family="sans-serif" font-size="5.74" lengthAdjust="spacing" textLength="51.6852" x="11.07" y="129.0387">List&lt;IGame&gt; games</text><rect fill="none" height="2.46" style="stroke:#C82930;stroke-width:0.41;" width="2.46" x="6.15" y="133.6816"/><text fill="#000000" font-family="sans-serif" font-size="5.74" lengthAdjust="spacing" textLength="69.8582" x="11.07" y="136.6733">GameFactory gameFactory</text><line style="stroke:#181818;stroke-width:0.205;" x1="3.28" x2="151.2584" y1="139.7539" y2="139.7539"/><ellipse cx="7.38" cy="145.8263" fill="#84BE84" rx="1.23" ry="1.23" style="stroke:#038048;stroke-width:0.41;"/><text fill="#000000" font-family="sans-serif" font-size="5.74" lengthAdjust="spacing" textLength="60.6147" x="11.07" y="147.588">addGame(Game game)</text><ellipse cx="7.38" cy="153.4609" fill="#84BE84" rx="1.23" ry="1.23" style="stroke:#038048;stroke-width:0.41;"/><text fill="#000000" font-family="sans-serif" font-size="5.74" lengthAdjust="spacing" textLength="138.1384" x="11.07" y="155.2226">updateGame(Player playerService, Player playerRest)</text><ellipse cx="7.38" cy="161.0956" fill="#84BE84" rx="1.23" ry="1.23" style="stroke:#038048;stroke-width:0.41;"/><text fill="#000000" font-family="sans-serif" font-size="5.74" lengthAdjust="spacing" textLength="54.5552" x="11.07" y="162.8573">isTieBreak(): boolean</text></g><!--class Referee--><g id="elem_Referee"><rect codeLine="31" fill="#F1F1F1" height="50.2186" id="Referee" rx="1.025" ry="1.025" style="stroke:#181818;stroke-width:0.205;" width="110.5326" x="166.255" y="108.24"/><ellipse cx="209.5685" cy="114.8" fill="#ADD1B2" rx="4.51" ry="4.51" style="stroke:#181818;stroke-width:0.41;"/><path d="M210.7024,113.1087 Q210.7664,113.0191 210.8433,112.9742 Q210.9202,112.9294 211.0099,112.9294 Q211.1636,112.9294 211.2597,113.0383 Q211.3558,113.1408 211.3558,113.3906 L211.3558,113.9864 Q211.3558,114.2363 211.2597,114.3452 Q211.1636,114.4541 211.0099,114.4541 Q210.8689,114.4541 210.7856,114.3708 Q210.7024,114.2939 210.6575,114.0825 Q210.6383,113.9352 210.5614,113.8583 Q210.4269,113.7045 210.1771,113.6148 Q209.9272,113.5252 209.671,113.5252 Q209.3571,113.5252 209.0944,113.6597 Q208.8381,113.7942 208.6331,114.1017 Q208.4346,114.4092 208.4346,114.832 L208.4346,115.2805 Q208.4346,115.7866 208.7997,116.1261 Q209.1649,116.4592 209.8183,116.4592 Q210.2027,116.4592 210.4717,116.3567 Q210.6319,116.2927 210.8049,116.1133 Q210.9138,116.0044 210.9714,115.9723 Q211.0355,115.9403 211.1188,115.9403 Q211.2533,115.9403 211.3558,116.0492 Q211.4647,116.1517 211.4647,116.2927 Q211.4647,116.4336 211.3238,116.6002 Q211.1188,116.8372 210.7921,116.9717 Q210.35,117.1575 209.8183,117.1575 Q209.1969,117.1575 208.7036,116.9012 Q208.3,116.6962 208.0181,116.2606 Q207.7363,115.8186 207.7363,115.2933 L207.7363,114.8192 Q207.7363,114.2747 207.9861,113.807 Q208.2424,113.333 208.6908,113.0831 Q209.1392,112.8269 209.6453,112.8269 Q209.9464,112.8269 210.2091,112.8973 Q210.4781,112.9614 210.7024,113.1087 Z " fill="#000000"/><text fill="#000000" font-family="sans-serif" font-size="5.74" lengthAdjust="spacing" textLength="20.4207" x="217.9735" y="117.1767">Referee</text><line style="stroke:#181818;stroke-width:0.205;" x1="166.665" x2="276.3776" y1="121.36" y2="121.36"/><rect fill="none" height="2.46" style="stroke:#C82930;stroke-width:0.41;" width="2.46" x="169.535" y="126.2023"/><text fill="#000000" font-family="sans-serif" font-size="5.74" lengthAdjust="spacing" textLength="12.1246" x="174.455" y="129.194">int id</text><rect fill="none" height="2.46" style="stroke:#C82930;stroke-width:0.41;" width="2.46" x="169.535" y="133.837"/><text fill="#000000" font-family="sans-serif" font-size="5.74" lengthAdjust="spacing" textLength="30.9478" x="174.455" y="136.8287">String name</text><rect fill="none" height="2.46" style="stroke:#C82930;stroke-width:0.41;" width="2.46" x="169.535" y="141.4716"/><text fill="#000000" font-family="sans-serif" font-size="5.74" lengthAdjust="spacing" textLength="41.1554" x="174.455" y="144.4633">String password</text><line style="stroke:#181818;stroke-width:0.205;" x1="166.665" x2="276.3776" y1="147.5439" y2="147.5439"/><ellipse cx="170.765" cy="153.6163" fill="#84BE84" rx="1.23" ry="1.23" style="stroke:#038048;stroke-width:0.41;"/><text fill="#000000" font-family="sans-serif" font-size="5.74" lengthAdjust="spacing" textLength="99.8726" x="174.455" y="155.378">authenticate(String password): boolean</text></g><!--class ScoreBoard--><g id="elem_ScoreBoard"><rect codeLine="77" fill="#F1F1F1" height="149.469" id="ScoreBoard" rx="1.025" ry="1.025" style="stroke:#181818;stroke-width:0.205;" width="84.0384" x="248.46" y="190.65"/><ellipse cx="273.5809" cy="197.21" fill="#ADD1B2" rx="4.51" ry="4.51" style="stroke:#181818;stroke-width:0.41;"/><path d="M274.7148,195.5187 Q274.7789,195.4291 274.8558,195.3842 Q274.9326,195.3394 275.0223,195.3394 Q275.1761,195.3394 275.2722,195.4483 Q275.3683,195.5508 275.3683,195.8006 L275.3683,196.3964 Q275.3683,196.6462 275.2722,196.7552 Q275.1761,196.8641 275.0223,196.8641 Q274.8814,196.8641 274.7981,196.7808 Q274.7148,196.7039 274.67,196.4925 Q274.6508,196.3452 274.5739,196.2683 Q274.4393,196.1145 274.1895,196.0248 Q273.9397,195.9352 273.6834,195.9352 Q273.3695,195.9352 273.1068,196.0697 Q272.8506,196.2042 272.6456,196.5117 Q272.447,196.8192 272.447,197.242 L272.447,197.6905 Q272.447,198.1966 272.8122,198.5361 Q273.1773,198.8692 273.8308,198.8692 Q274.2151,198.8692 274.4842,198.7667 Q274.6443,198.7027 274.8173,198.5233 Q274.9262,198.4144 274.9839,198.3823 Q275.0479,198.3503 275.1312,198.3503 Q275.2658,198.3503 275.3683,198.4592 Q275.4772,198.5617 275.4772,198.7027 Q275.4772,198.8436 275.3362,199.0102 Q275.1312,199.2472 274.8045,199.3817 Q274.3625,199.5675 273.8308,199.5675 Q273.2093,199.5675 272.7161,199.3113 Q272.3125,199.1063 272.0306,198.6706 Q271.7487,198.2286 271.7487,197.7033 L271.7487,197.2292 Q271.7487,196.6847 271.9986,196.217 Q272.2548,195.743 272.7033,195.4931 Q273.1517,195.2369 273.6578,195.2369 Q273.9589,195.2369 274.2215,195.3073 Q274.4906,195.3714 274.7148,195.5187 Z " fill="#000000"/><text fill="#000000" font-family="sans-serif" font-size="5.74" lengthAdjust="spacing" textLength="30.3116" x="281.9859" y="199.5867">ScoreBoard</text><line style="stroke:#181818;stroke-width:0.205;" x1="248.87" x2="332.0884" y1="203.77" y2="203.77"/><rect fill="none" height="2.46" style="stroke:#C82930;stroke-width:0.41;" width="2.46" x="251.74" y="208.6123"/><text fill="#000000" font-family="sans-serif" font-size="5.74" lengthAdjust="spacing" textLength="46.2591" x="256.66" y="211.604">int[] currentPoints;</text><rect fill="none" height="2.46" style="stroke:#C82930;stroke-width:0.41;" width="2.46" x="251.74" y="216.247"/><text fill="#000000" font-family="sans-serif" font-size="5.74" lengthAdjust="spacing" textLength="51.9963" x="256.66" y="219.2387">int[][] currentGames;</text><rect fill="none" height="2.46" style="stroke:#C82930;stroke-width:0.41;" width="2.46" x="251.74" y="223.8816"/><text fill="#000000" font-family="sans-serif" font-size="5.74" lengthAdjust="spacing" textLength="41.7916" x="256.66" y="226.8733">int[] currentSets;</text><rect fill="none" height="2.46" style="stroke:#C82930;stroke-width:0.41;" width="2.46" x="251.74" y="231.5163"/><text fill="#000000" font-family="sans-serif" font-size="5.74" lengthAdjust="spacing" textLength="53.9162" x="256.66" y="234.508">int lackServiceCount;</text><rect fill="none" height="2.46" style="stroke:#C82930;stroke-width:0.41;" width="2.46" x="251.74" y="239.1509"/><text fill="#000000" font-family="sans-serif" font-size="5.74" lengthAdjust="spacing" textLength="31.5868" x="256.66" y="242.1426">int totalSets;</text><rect fill="none" height="2.46" style="stroke:#C82930;stroke-width:0.41;" width="2.46" x="251.74" y="246.7856"/><text fill="#000000" font-family="sans-serif" font-size="5.74" lengthAdjust="spacing" textLength="53.5995" x="256.66" y="249.7773">List&lt;Player&gt; players;</text><line style="stroke:#181818;stroke-width:0.205;" x1="248.87" x2="332.0884" y1="252.8579" y2="252.8579"/><ellipse cx="252.97" cy="258.9302" fill="#84BE84" rx="1.23" ry="1.23" style="stroke:#038048;stroke-width:0.41;"/><text fill="#000000" font-family="sans-serif" font-size="5.74" lengthAdjust="spacing" textLength="60.9258" x="256.66" y="260.6919">incrementServiceFault()</text><ellipse cx="252.97" cy="266.5649" fill="#84BE84" rx="1.23" ry="1.23" style="stroke:#038048;stroke-width:0.41;"/><text fill="#000000" font-family="sans-serif" font-size="5.74" lengthAdjust="spacing" textLength="68.2718" x="256.66" y="268.3266">getServiceFaultCount(): int</text><ellipse cx="252.97" cy="274.1995" fill="#84BE84" rx="1.23" ry="1.23" style="stroke:#038048;stroke-width:0.41;"/><text fill="#000000" font-family="sans-serif" font-size="5.74" lengthAdjust="spacing" textLength="63.8014" x="256.66" y="275.9612">resetServiceFaultCount()</text><ellipse cx="252.97" cy="281.8342" fill="#84BE84" rx="1.23" ry="1.23" style="stroke:#038048;stroke-width:0.41;"/><text fill="#000000" font-family="sans-serif" font-size="5.74" lengthAdjust="spacing" textLength="70.8307" x="256.66" y="283.5959">updatePoints(Player player)</text><ellipse cx="252.97" cy="289.4688" fill="#84BE84" rx="1.23" ry="1.23" style="stroke:#038048;stroke-width:0.41;"/><text fill="#000000" font-family="sans-serif" font-size="5.74" lengthAdjust="spacing" textLength="73.3784" x="256.66" y="291.2305">updateGames(Player player)</text><ellipse cx="252.97" cy="297.1035" fill="#84BE84" rx="1.23" ry="1.23" style="stroke:#038048;stroke-width:0.41;"/><text fill="#000000" font-family="sans-serif" font-size="5.74" lengthAdjust="spacing" textLength="66.3631" x="256.66" y="298.8652">updateSets(Player player)</text><ellipse cx="252.97" cy="304.7381" fill="#84BE84" rx="1.23" ry="1.23" style="stroke:#038048;stroke-width:0.41;"/><text fill="#000000" font-family="sans-serif" font-size="5.74" lengthAdjust="spacing" textLength="32.5369" x="256.66" y="306.4998">resetPoints()</text><ellipse cx="252.97" cy="312.3728" fill="#84BE84" rx="1.23" ry="1.23" style="stroke:#038048;stroke-width:0.41;"/><text fill="#000000" font-family="sans-serif" font-size="5.74" lengthAdjust="spacing" textLength="35.0846" x="256.66" y="314.1345">resetGames()</text><ellipse cx="252.97" cy="320.0074" fill="#84BE84" rx="1.23" ry="1.23" style="stroke:#038048;stroke-width:0.41;"/><text fill="#000000" font-family="sans-serif" font-size="5.74" lengthAdjust="spacing" textLength="59.6562" x="256.66" y="321.7691">isGameOver(): boolean</text><ellipse cx="252.97" cy="327.6421" fill="#84BE84" rx="1.23" ry="1.23" style="stroke:#038048;stroke-width:0.41;"/><text fill="#000000" font-family="sans-serif" font-size="5.74" lengthAdjust="spacing" textLength="52.641" x="256.66" y="329.4038">isSetOver(): boolean</text><rect fill="#F24D5C" height="2.46" style="stroke:#C82930;stroke-width:0.41;" width="2.46" x="251.74" y="334.0467"/><text fill="#000000" font-family="sans-serif" font-size="5.74" lengthAdjust="spacing" textLength="62.8513" x="256.66" y="337.0384">getCurrentSetIndex(): int</text></g><!--class IGame--><g id="elem_IGame"><rect codeLine="49" fill="#F1F1F1" height="57.8532" id="IGame" rx="1.025" ry="1.025" style="stroke:#181818;stroke-width:0.205;" width="89.4701" x="63.755" y="236.57"/><ellipse cx="98.1347" cy="243.13" fill="#B4A7E5" rx="4.51" ry="4.51" style="stroke:#181818;stroke-width:0.41;"/><path d="M98.5255,241.7527 L98.5255,244.4817 L99.2302,244.4817 Q99.4801,244.4817 99.589,244.5778 Q99.6979,244.6739 99.6979,244.8341 Q99.6979,244.9878 99.589,245.0839 Q99.4801,245.18 99.2302,245.18 L97.1226,245.18 Q96.8727,245.18 96.7638,245.0839 Q96.6549,244.9878 96.6549,244.8277 Q96.6549,244.6739 96.7638,244.5778 Q96.8727,244.4817 97.1226,244.4817 L97.8272,244.4817 L97.8272,241.7527 L97.1226,241.7527 Q96.8727,241.7527 96.7638,241.6566 Q96.6549,241.5605 96.6549,241.4003 Q96.6549,241.2466 96.7638,241.1505 Q96.8727,241.0544 97.1226,241.0544 L99.2302,241.0544 Q99.4801,241.0544 99.589,241.1505 Q99.6979,241.2466 99.6979,241.4003 Q99.6979,241.5605 99.589,241.6566 Q99.4801,241.7527 99.2302,241.7527 L98.5255,241.7527 Z " fill="#000000"/><text fill="#000000" font-family="sans-serif" font-size="5.74" font-style="italic" lengthAdjust="spacing" textLength="17.2256" x="106.5397" y="245.5067">IGame</text><line style="stroke:#181818;stroke-width:0.205;" x1="64.165" x2="152.8151" y1="249.69" y2="249.69"/><line style="stroke:#181818;stroke-width:0.205;" x1="64.165" x2="152.8151" y1="252.97" y2="252.97"/><text fill="#000000" font-family="sans-serif" font-size="5.74" lengthAdjust="spacing" textLength="66.038" x="66.215" y="260.804">List&lt;Player&gt; getPlayers();</text><text fill="#000000" font-family="sans-serif" font-size="5.74" lengthAdjust="spacing" textLength="70.1889" x="66.215" y="268.4387">boolean isPlayer0Service();</text><text fill="#000000" font-family="sans-serif" font-size="5.74" lengthAdjust="spacing" textLength="48.165" x="66.215" y="276.0733">void switchRoles();</text><text fill="#000000" font-family="sans-serif" font-size="5.74" lengthAdjust="spacing" textLength="84.5501" x="66.215" y="283.708">void updatePoints(Player player);</text><text fill="#000000" font-family="sans-serif" font-size="5.74" lengthAdjust="spacing" textLength="59.6562" x="66.215" y="291.3426">boolean isGameOver();</text></g><!--class StandardGame--><g id="elem_StandardGame"><rect codeLine="57" fill="#F1F1F1" height="65.4879" id="StandardGame" rx="1.025" ry="1.025" style="stroke:#181818;stroke-width:0.205;" width="81.4907" x="67.65" y="364.9"/><ellipse cx="87.1893" cy="371.46" fill="#ADD1B2" rx="4.51" ry="4.51" style="stroke:#181818;stroke-width:0.41;"/><path d="M88.3232,369.7687 Q88.3872,369.6791 88.4641,369.6342 Q88.541,369.5894 88.6307,369.5894 Q88.7844,369.5894 88.8805,369.6983 Q88.9766,369.8008 88.9766,370.0506 L88.9766,370.6464 Q88.9766,370.8962 88.8805,371.0052 Q88.7844,371.1141 88.6307,371.1141 Q88.4897,371.1141 88.4065,371.0308 Q88.3232,370.9539 88.2783,370.7425 Q88.2591,370.5952 88.1822,370.5183 Q88.0477,370.3645 87.7979,370.2748 Q87.548,370.1852 87.2918,370.1852 Q86.9779,370.1852 86.7152,370.3197 Q86.459,370.4542 86.254,370.7617 Q86.0554,371.0692 86.0554,371.492 L86.0554,371.9405 Q86.0554,372.4466 86.4205,372.7861 Q86.7857,373.1192 87.4391,373.1192 Q87.8235,373.1192 88.0925,373.0167 Q88.2527,372.9527 88.4257,372.7733 Q88.5346,372.6644 88.5922,372.6323 Q88.6563,372.6003 88.7396,372.6003 Q88.8741,372.6003 88.9766,372.7092 Q89.0855,372.8117 89.0855,372.9527 Q89.0855,373.0936 88.9446,373.2602 Q88.7396,373.4972 88.4129,373.6317 Q87.9708,373.8175 87.4391,373.8175 Q86.8177,373.8175 86.3244,373.5613 Q85.9208,373.3563 85.639,372.9206 Q85.3571,372.4786 85.3571,371.9533 L85.3571,371.4792 Q85.3571,370.9347 85.6069,370.467 Q85.8632,369.993 86.3116,369.7431 Q86.76,369.4869 87.2661,369.4869 Q87.5672,369.4869 87.8299,369.5573 Q88.099,369.6214 88.3232,369.7687 Z " fill="#000000"/><text fill="#000000" font-family="sans-serif" font-size="5.74" lengthAdjust="spacing" textLength="38.9272" x="95.5943" y="373.8367">StandardGame</text><line style="stroke:#181818;stroke-width:0.205;" x1="68.06" x2="148.7307" y1="378.02" y2="378.02"/><rect fill="none" height="2.46" style="stroke:#C82930;stroke-width:0.41;" width="2.46" x="70.93" y="382.8623"/><text fill="#000000" font-family="sans-serif" font-size="5.74" lengthAdjust="spacing" textLength="52.0047" x="75.85" y="385.854">List&lt;Player&gt; players</text><rect fill="none" height="2.46" style="stroke:#C82930;stroke-width:0.41;" width="2.46" x="70.93" y="390.497"/><text fill="#000000" font-family="sans-serif" font-size="5.74" lengthAdjust="spacing" textLength="64.7712" x="75.85" y="393.4887">boolean isPlayer0Service</text><line style="stroke:#181818;stroke-width:0.205;" x1="68.06" x2="148.7307" y1="396.5693" y2="396.5693"/><ellipse cx="72.16" cy="402.6416" fill="#84BE84" rx="1.23" ry="1.23" style="stroke:#038048;stroke-width:0.41;"/><text fill="#000000" font-family="sans-serif" font-size="5.74" lengthAdjust="spacing" textLength="70.1889" x="75.85" y="404.4033">isPlayer0Service(): boolean</text><ellipse cx="72.16" cy="410.2763" fill="#84BE84" rx="1.23" ry="1.23" style="stroke:#038048;stroke-width:0.41;"/><text fill="#000000" font-family="sans-serif" font-size="5.74" lengthAdjust="spacing" textLength="34.4456" x="75.85" y="412.038">switchRoles()</text><ellipse cx="72.16" cy="417.9109" fill="#84BE84" rx="1.23" ry="1.23" style="stroke:#038048;stroke-width:0.41;"/><text fill="#000000" font-family="sans-serif" font-size="5.74" lengthAdjust="spacing" textLength="70.8307" x="75.85" y="419.6726">updatePoints(Player player)</text><ellipse cx="72.16" cy="425.5456" fill="#84BE84" rx="1.23" ry="1.23" style="stroke:#038048;stroke-width:0.41;"/><text fill="#000000" font-family="sans-serif" font-size="5.74" lengthAdjust="spacing" textLength="59.6562" x="75.85" y="427.3073">isGameOver(): boolean</text></g><!--class Player--><g id="elem_Player"><rect codeLine="25" fill="#F1F1F1" height="34.9493" id="Player" rx="1.025" ry="1.025" style="stroke:#181818;stroke-width:0.205;" width="41.6078" x="183.68" y="455.1"/><ellipse cx="195.3281" cy="461.66" fill="#ADD1B2" rx="4.51" ry="4.51" style="stroke:#181818;stroke-width:0.41;"/><path d="M196.462,459.9688 Q196.526,459.8791 196.6029,459.8342 Q196.6798,459.7894 196.7695,459.7894 Q196.9232,459.7894 197.0193,459.8983 Q197.1154,460.0008 197.1154,460.2506 L197.1154,460.8464 Q197.1154,461.0963 197.0193,461.2052 Q196.9232,461.3141 196.7695,461.3141 Q196.6285,461.3141 196.5453,461.2308 Q196.462,461.1539 196.4171,460.9425 Q196.3979,460.7952 196.321,460.7183 Q196.1865,460.5645 195.9367,460.4748 Q195.6868,460.3852 195.4306,460.3852 Q195.1167,460.3852 194.854,460.5197 Q194.5978,460.6542 194.3928,460.9617 Q194.1942,461.2692 194.1942,461.692 L194.1942,462.1405 Q194.1942,462.6466 194.5593,462.9861 Q194.9245,463.3192 195.5779,463.3192 Q195.9623,463.3192 196.2313,463.2167 Q196.3915,463.1527 196.5645,462.9733 Q196.6734,462.8644 196.731,462.8323 Q196.7951,462.8003 196.8784,462.8003 Q197.0129,462.8003 197.1154,462.9092 Q197.2243,463.0117 197.2243,463.1527 Q197.2243,463.2936 197.0834,463.4602 Q196.8784,463.6972 196.5517,463.8317 Q196.1096,464.0175 195.5779,464.0175 Q194.9565,464.0175 194.4632,463.7612 Q194.0596,463.5563 193.7778,463.1206 Q193.4959,462.6786 193.4959,462.1533 L193.4959,461.6792 Q193.4959,461.1347 193.7457,460.667 Q194.002,460.193 194.4504,459.9431 Q194.8988,459.6869 195.4049,459.6869 Q195.706,459.6869 195.9687,459.7573 Q196.2378,459.8214 196.462,459.9688 Z " fill="#000000"/><text fill="#000000" font-family="sans-serif" font-size="5.74" lengthAdjust="spacing" textLength="16.2699" x="202.2899" y="464.0367">Player</text><line style="stroke:#181818;stroke-width:0.205;" x1="184.09" x2="224.8778" y1="468.22" y2="468.22"/><rect fill="none" height="2.46" style="stroke:#C82930;stroke-width:0.41;" width="2.46" x="186.96" y="473.0623"/><text fill="#000000" font-family="sans-serif" font-size="5.74" lengthAdjust="spacing" textLength="12.1246" x="191.88" y="476.054">int id</text><rect fill="none" height="2.46" style="stroke:#C82930;stroke-width:0.41;" width="2.46" x="186.96" y="480.697"/><text fill="#000000" font-family="sans-serif" font-size="5.74" lengthAdjust="spacing" textLength="30.9478" x="191.88" y="483.6887">String name</text><line style="stroke:#181818;stroke-width:0.205;" x1="184.09" x2="224.8778" y1="486.7693" y2="486.7693"/></g><!--class TieBreakGame--><g id="elem_TieBreakGame"><rect codeLine="67" fill="#F1F1F1" height="65.4879" id="TieBreakGame" rx="1.025" ry="1.025" style="stroke:#181818;stroke-width:0.205;" width="81.4907" x="163.59" y="364.9"/><ellipse cx="183.2932" cy="371.46" fill="#ADD1B2" rx="4.51" ry="4.51" style="stroke:#181818;stroke-width:0.41;"/><path d="M184.4271,369.7687 Q184.4912,369.6791 184.5681,369.6342 Q184.6449,369.5894 184.7346,369.5894 Q184.8884,369.5894 184.9845,369.6983 Q185.0806,369.8008 185.0806,370.0506 L185.0806,370.6464 Q185.0806,370.8962 184.9845,371.0052 Q184.8884,371.1141 184.7346,371.1141 Q184.5937,371.1141 184.5104,371.0308 Q184.4271,370.9539 184.3823,370.7425 Q184.3631,370.5952 184.2862,370.5183 Q184.1517,370.3645 183.9018,370.2748 Q183.652,370.1852 183.3957,370.1852 Q183.0818,370.1852 182.8192,370.3197 Q182.5629,370.4542 182.3579,370.7617 Q182.1593,371.0692 182.1593,371.492 L182.1593,371.9405 Q182.1593,372.4466 182.5245,372.7861 Q182.8896,373.1192 183.5431,373.1192 Q183.9274,373.1192 184.1965,373.0167 Q184.3567,372.9527 184.5296,372.7733 Q184.6385,372.6644 184.6962,372.6323 Q184.7603,372.6003 184.8435,372.6003 Q184.9781,372.6003 185.0806,372.7092 Q185.1895,372.8117 185.1895,372.9527 Q185.1895,373.0936 185.0485,373.2602 Q184.8435,373.4972 184.5168,373.6317 Q184.0748,373.8175 183.5431,373.8175 Q182.9217,373.8175 182.4284,373.5613 Q182.0248,373.3563 181.7429,372.9206 Q181.461,372.4786 181.461,371.9533 L181.461,371.4792 Q181.461,370.9347 181.7109,370.467 Q181.9671,369.993 182.4156,369.7431 Q182.864,369.4869 183.3701,369.4869 Q183.6712,369.4869 183.9338,369.5573 Q184.2029,369.6214 184.4271,369.7687 Z " fill="#000000"/><text fill="#000000" font-family="sans-serif" font-size="5.74" lengthAdjust="spacing" textLength="38.5993" x="191.6982" y="373.8367">TieBreakGame</text><line style="stroke:#181818;stroke-width:0.205;" x1="164" x2="244.6707" y1="378.02" y2="378.02"/><rect fill="none" height="2.46" style="stroke:#C82930;stroke-width:0.41;" width="2.46" x="166.87" y="382.8623"/><text fill="#000000" font-family="sans-serif" font-size="5.74" lengthAdjust="spacing" textLength="52.0047" x="171.79" y="385.854">List&lt;Player&gt; players</text><rect fill="none" height="2.46" style="stroke:#C82930;stroke-width:0.41;" width="2.46" x="166.87" y="390.497"/><text fill="#000000" font-family="sans-serif" font-size="5.74" lengthAdjust="spacing" textLength="64.7712" x="171.79" y="393.4887">boolean isPlayer0Service</text><line style="stroke:#181818;stroke-width:0.205;" x1="164" x2="244.6707" y1="396.5693" y2="396.5693"/><ellipse cx="168.1" cy="402.6416" fill="#84BE84" rx="1.23" ry="1.23" style="stroke:#038048;stroke-width:0.41;"/><text fill="#000000" font-family="sans-serif" font-size="5.74" lengthAdjust="spacing" textLength="70.1889" x="171.79" y="404.4033">isPlayer0Service(): boolean</text><ellipse cx="168.1" cy="410.2763" fill="#84BE84" rx="1.23" ry="1.23" style="stroke:#038048;stroke-width:0.41;"/><text fill="#000000" font-family="sans-serif" font-size="5.74" lengthAdjust="spacing" textLength="34.4456" x="171.79" y="412.038">switchRoles()</text><ellipse cx="168.1" cy="417.9109" fill="#84BE84" rx="1.23" ry="1.23" style="stroke:#038048;stroke-width:0.41;"/><text fill="#000000" font-family="sans-serif" font-size="5.74" lengthAdjust="spacing" textLength="70.8307" x="171.79" y="419.6726">updatePoints(Player player)</text><ellipse cx="168.1" cy="425.5456" fill="#84BE84" rx="1.23" ry="1.23" style="stroke:#038048;stroke-width:0.41;"/><text fill="#000000" font-family="sans-serif" font-size="5.74" lengthAdjust="spacing" textLength="59.6562" x="171.79" y="427.3073">isGameOver(): boolean</text></g><!--link Match to Set--><g id="link_Match_Set"><path codeLine="3" d="M181.4228,65.6831 C163.8912,76.9868 148.7285,86.7676 129.6225,99.0881 " fill="none" id="Match-Set" style="stroke:#181818;stroke-width:0.41;"/><polygon fill="#181818" points="185.5578,63.017,182.6016,62.9717,181.4228,65.6831,184.379,65.7284,185.5578,63.017" style="stroke:#181818;stroke-width:0.41;"/><polygon fill="#181818" points="127.5551,100.4213,131.545,99.7998,129.278,99.3103,129.7674,97.0433,127.5551,100.4213" style="stroke:#181818;stroke-width:0.41;"/><text fill="#000000" font-family="sans-serif" font-size="5.33" lengthAdjust="spacing" textLength="7.3131" x="124.9154" y="95.8659">3|5</text></g><!--link Match to Referee--><g id="link_Match_Referee"><path codeLine="4" d="M221.605,80.8069 C221.605,91.5858 221.605,95.776 221.605,105.6488 " fill="none" id="Match-Referee" style="stroke:#181818;stroke-width:0.41;"/><polygon fill="none" points="221.605,75.8869,219.965,78.3469,221.605,80.8069,223.245,78.3469,221.605,75.8869" style="stroke:#181818;stroke-width:0.41;"/><polygon fill="#181818" points="221.605,108.1088,223.245,104.4188,221.605,106.0588,219.965,104.4188,221.605,108.1088" style="stroke:#181818;stroke-width:0.41;"/></g><!--link Match to ScoreBoard--><g id="link_Match_ScoreBoard"><path codeLine="5" d="M261.2349,69.3715 C271.612,78.9491 278.0866,87.3464 283.925,100.45 C296.3111,128.2398 299.5768,158.8958 299.1135,188.1165 " fill="none" id="Match-ScoreBoard" style="stroke:#181818;stroke-width:0.41;"/><polygon fill="#181818" points="257.6194,66.0346,258.3148,68.9082,261.2349,69.3715,260.5394,66.4979,257.6194,66.0346" style="stroke:#181818;stroke-width:0.41;"/><polygon fill="#181818" points="299.0745,190.5762,300.7728,186.9127,299.107,188.5265,297.4932,186.8607,299.0745,190.5762" style="stroke:#181818;stroke-width:0.41;"/></g><!--link Set to IGame--><g id="link_Set_IGame"><path codeLine="7" d="M86.1237,170.9275 C91.2405,192.514 96.1967,213.4098 101.1085,234.1312 " fill="none" id="Set-IGame" style="stroke:#181818;stroke-width:0.41;"/><polygon fill="#181818" points="84.9889,166.1402,83.9605,168.9121,86.1237,170.9275,87.1521,168.1556,84.9889,166.1402" style="stroke:#181818;stroke-width:0.41;"/><polygon fill="#181818" points="101.6759,236.5249,102.4206,232.5561,101.2031,234.5302,99.229,233.3127,101.6759,236.5249" style="stroke:#181818;stroke-width:0.41;"/><text fill="#000000" font-family="sans-serif" font-size="5.33" lengthAdjust="spacing" textLength="11.8546" x="88.9206" y="231.9656">6..13</text></g><!--link StandardGame to Player--><g id="link_StandardGame_Player"><path codeLine="9" d="M153.1686,432.607 C165.0012,441.7336 171.5804,446.8122 181.6336,454.5653 " fill="none" id="StandardGame-Player" style="stroke:#181818;stroke-width:0.41;"/><polygon fill="none" points="149.2728,429.6021,150.2191,432.4031,153.1686,432.607,152.2223,429.8059,149.2728,429.6021" style="stroke:#181818;stroke-width:0.41;"/><polygon fill="#181818" points="183.5816,456.0676,181.6611,452.5155,181.9583,454.8157,179.6581,455.1128,183.5816,456.0676" style="stroke:#181818;stroke-width:0.41;"/><text fill="#000000" font-family="sans-serif" font-size="5.33" lengthAdjust="spacing" textLength="2.9643" x="177.4377" y="451.9216">2</text></g><!--link TieBreakGame to Player--><g id="link_TieBreakGame_Player"><path codeLine="10" d="M204.385,435.4897 C204.385,443.8783 204.385,445.2026 204.385,452.4637 " fill="none" id="TieBreakGame-Player" style="stroke:#181818;stroke-width:0.41;"/><polygon fill="none" points="204.385,430.5697,202.745,433.0297,204.385,435.4897,206.025,433.0297,204.385,430.5697" style="stroke:#181818;stroke-width:0.41;"/><polygon fill="#181818" points="204.385,454.9237,206.025,451.2337,204.385,452.8737,202.745,451.2337,204.385,454.9237" style="stroke:#181818;stroke-width:0.41;"/><text fill="#000000" font-family="sans-serif" font-size="5.33" lengthAdjust="spacing" textLength="2.9643" x="201.2873" y="450.478">2</text></g><!--link ScoreBoard to Player--><g id="link_ScoreBoard_Player"><path codeLine="12" d="M283.3346,340.3164 C277.9923,369.9717 268.6566,403.4195 252.355,430.5 C245.6146,441.693 236.806,449.9603 227.171,457.205 " fill="none" id="ScoreBoard-to-Player" style="stroke:#181818;stroke-width:0.41;"/><polygon fill="#181818" points="225.2048,458.6834,229.1397,457.7766,226.8433,457.4514,227.1685,455.155,225.2048,458.6834" style="stroke:#181818;stroke-width:0.41;"/><text fill="#000000" font-family="sans-serif" font-size="5.33" lengthAdjust="spacing" textLength="2.9643" x="228.6046" y="454.8134">2</text></g><!--reverse link IGame to StandardGame--><g id="link_IGame_StandardGame"><path d="M108.445,301.7764 C108.445,322.4978 108.445,343.1946 108.445,364.7852 " fill="none" id="IGame-backto-StandardGame" style="stroke:#181818;stroke-width:0.41;stroke-dasharray:7.0,7.0;"/><polygon fill="none" points="108.445,294.3964,105.985,301.7764,110.905,301.7764,108.445,294.3964" style="stroke:#181818;stroke-width:0.41;"/></g><!--reverse link IGame to TieBreakGame--><g id="link_IGame_TieBreakGame"><path d="M133.6125,300.3568 C148.7415,321.0782 164.8897,343.1946 180.6542,364.7852 " fill="none" id="IGame-backto-TieBreakGame" style="stroke:#181818;stroke-width:0.41;stroke-dasharray:7.0,7.0;"/><polygon fill="none" points="129.2607,294.3964,131.6257,301.8074,135.5993,298.9062,129.2607,294.3964" style="stroke:#181818;stroke-width:0.41;"/></g><!--SRC=[rLHDRnCn4BtxLrWv9OIjW0eEBCgXHKMLgAYot107uvssLZTsP7iJgj3_pdXixqV8mfaSDlQysJTldiTx8xnyu2-AsknriUApyrzlPxm2psu8C1bOmnrOW1JkyYjfB5mOOMl6yAq1qRkpizVdCtxzIMm0CIzqZLbXrvFEtipuRIEUmBAl2YuiYCV91DQNugTWsGZdU9HtO0Mll5NwdgiQrn-51rxZ0zUVbVCVKEgAE_0E0qfxxeqNJHNteGtPMWlQ1n-AGO_S3TfTSkMet9STsFdYFVzXJ0D2i-Si9aeZDQ48IKcoDBdIPIPtfrExtHRJzoRM5wr_G9LAOcVp8_oKdj3PWN7y5V5SSfzqHZ5EzX2uulVuT2aU8bT2UcEVA9xMZ62KKjFHpearu8i4jDlWEs79ZYtzLM1tIi9BFegkmVdyfd9v9eRc1WmRGfF0tWa9gP438-6H39M3ZqitNvGilOkCCVWg5G_OpYWyrht2SrnZbkjYKVYjmKfkB7t46Ah70IW7HW-dNMss3MpGPHUr7l8GPh6HDOpUbD0uRCVYUrEMumxOyc_gYQkNVM9EHdVn_vC_kA_fFdtxdYSzKfOvt0E1iOyFFW0vo1iX7vFuIzDgNnv_Eye9PqhgNqjBDYQAAz4sddh5MHt6Y3lqXTo8Md0dyN-Qr5-yIJ28_XEZYecrsqUUQVD37EcEmqNexhBpybhNy3Ftzin-0m00]--></g></svg>