<svg xmlns="http://www.w3.org/2000/svg" xmlns:xlink="http://www.w3.org/1999/xlink" contentStyleType="text/css" height="596.4px" preserveAspectRatio="none" style="width:524px;height:596px;background:#FFFFFF;" version="1.1" viewBox="0 0 524 596" width="524.3px" zoomAndPan="magnify"><defs/><g><!--class Match--><g id="elem_Match"><rect codeLine="11" fill="#F1F1F1" height="150.9129" id="Match" rx="1.75" ry="1.75" style="stroke:#181818;stroke-width:0.3499999999999999;" width="133.6802" x="168.35" y="4.9"/><ellipse cx="218.8717" cy="16.1" fill="#ADD1B2" rx="7.7" ry="7.7" style="stroke:#181818;stroke-width:0.6999999999999998;"/><path d="M220.8076,13.2125 Q220.917,13.0594 221.0482,12.9828 Q221.1795,12.9062 221.3326,12.9062 Q221.5951,12.9062 221.7592,13.0922 Q221.9232,13.2672 221.9232,13.6937 L221.9232,14.7109 Q221.9232,15.1375 221.7592,15.3234 Q221.5951,15.5094 221.3326,15.5094 Q221.092,15.5094 220.9498,15.3672 Q220.8076,15.2359 220.7311,14.875 Q220.6982,14.6234 220.567,14.4922 Q220.3373,14.2297 219.9107,14.0766 Q219.4842,13.9234 219.0467,13.9234 Q218.5107,13.9234 218.0623,14.1531 Q217.6248,14.3828 217.2748,14.9078 Q216.9357,15.4328 216.9357,16.1547 L216.9357,16.9203 Q216.9357,17.7844 217.5592,18.3641 Q218.1826,18.9328 219.2982,18.9328 Q219.9545,18.9328 220.4139,18.7578 Q220.6873,18.6484 220.9826,18.3422 Q221.1686,18.1562 221.267,18.1016 Q221.3764,18.0469 221.5186,18.0469 Q221.7482,18.0469 221.9232,18.2328 Q222.1092,18.4078 222.1092,18.6484 Q222.1092,18.8891 221.8686,19.1734 Q221.5186,19.5781 220.9607,19.8078 Q220.2061,20.125 219.2982,20.125 Q218.2373,20.125 217.3951,19.6875 Q216.7061,19.3375 216.2248,18.5937 Q215.7436,17.8391 215.7436,16.9422 L215.7436,16.1328 Q215.7436,15.2031 216.1701,14.4047 Q216.6076,13.5953 217.3732,13.1687 Q218.1389,12.7312 219.0029,12.7312 Q219.517,12.7312 219.9654,12.8516 Q220.4248,12.9609 220.8076,13.2125 Z " fill="#000000"/><text fill="#000000" font-family="sans-serif" font-size="9.8" lengthAdjust="spacing" textLength="26.6868" x="233.2217" y="20.1578">Match</text><line style="stroke:#181818;stroke-width:0.3499999999999999;" x1="169.05" x2="301.3302" y1="27.3" y2="27.3"/><rect fill="none" height="4.2" style="stroke:#C82930;stroke-width:0.6999999999999998;" width="4.2" x="173.95" y="35.5674"/><text fill="#000000" font-family="sans-serif" font-size="9.8" lengthAdjust="spacing" textLength="51.206" x="182.35" y="40.6752">int totalSets</text><rect fill="none" height="4.2" style="stroke:#C82930;stroke-width:0.6999999999999998;" width="4.2" x="173.95" y="48.6021"/><text fill="#000000" font-family="sans-serif" font-size="9.8" lengthAdjust="spacing" textLength="115.4802" x="182.35" y="53.71">ArrayList&lt;Set&gt; setsPlayed</text><rect fill="none" height="4.2" style="stroke:#C82930;stroke-width:0.6999999999999998;" width="4.2" x="173.95" y="61.6369"/><text fill="#000000" font-family="sans-serif" font-size="9.8" lengthAdjust="spacing" textLength="88.7886" x="182.35" y="66.7447">List&lt;Player&gt; players</text><rect fill="none" height="4.2" style="stroke:#C82930;stroke-width:0.6999999999999998;" width="4.2" x="173.95" y="74.6717"/><text fill="#000000" font-family="sans-serif" font-size="9.8" lengthAdjust="spacing" textLength="105.1347" x="182.35" y="79.7795">boolean isPlayerService</text><rect fill="none" height="4.2" style="stroke:#C82930;stroke-width:0.6999999999999998;" width="4.2" x="173.95" y="87.7064"/><text fill="#000000" font-family="sans-serif" font-size="9.8" lengthAdjust="spacing" textLength="86.597" x="182.35" y="92.8143">Game currentGame</text><line style="stroke:#181818;stroke-width:0.3499999999999999;" x1="169.05" x2="301.3302" y1="98.0738" y2="98.0738"/><ellipse cx="176.05" cy="108.4412" fill="#84BE84" rx="2.1" ry="2.1" style="stroke:#038048;stroke-width:0.6999999999999998;"/><text fill="#000000" font-family="sans-serif" font-size="9.8" lengthAdjust="spacing" textLength="82.2281" x="182.35" y="111.449">startNewGame() **</text><ellipse cx="176.05" cy="121.476" fill="#84BE84" rx="2.1" ry="2.1" style="stroke:#038048;stroke-width:0.6999999999999998;"/><text fill="#000000" font-family="sans-serif" font-size="9.8" lengthAdjust="spacing" textLength="68.0928" x="182.35" y="124.4838">addSet(Set set)</text><ellipse cx="176.05" cy="134.5107" fill="#84BE84" rx="2.1" ry="2.1" style="stroke:#038048;stroke-width:0.6999999999999998;"/><text fill="#000000" font-family="sans-serif" font-size="9.8" lengthAdjust="spacing" textLength="101.8521" x="182.35" y="137.5186">isMatchOver(): boolean</text><ellipse cx="176.05" cy="147.5455" fill="#84BE84" rx="2.1" ry="2.1" style="stroke:#038048;stroke-width:0.6999999999999998;"/><text fill="#000000" font-family="sans-serif" font-size="9.8" lengthAdjust="spacing" textLength="103.4838" x="182.35" y="150.5533">getMatchScore(): String</text></g><!--class Player--><g id="elem_Player"><rect codeLine="24" fill="#F1F1F1" height="98.7738" id="Player" rx="1.75" ry="1.75" style="stroke:#181818;stroke-width:0.3499999999999999;" width="134.2209" x="4.9" y="198.1"/><ellipse cx="55.1465" cy="209.3" fill="#ADD1B2" rx="7.7" ry="7.7" style="stroke:#181818;stroke-width:0.6999999999999998;"/><path d="M57.0825,206.4125 Q57.1918,206.2594 57.3231,206.1828 Q57.4543,206.1062 57.6075,206.1062 Q57.87,206.1062 58.034,206.2922 Q58.1981,206.4672 58.1981,206.8937 L58.1981,207.9109 Q58.1981,208.3375 58.034,208.5234 Q57.87,208.7094 57.6075,208.7094 Q57.3668,208.7094 57.2247,208.5672 Q57.0825,208.4359 57.0059,208.075 Q56.9731,207.8234 56.8418,207.6922 Q56.6122,207.4297 56.1856,207.2766 Q55.759,207.1234 55.3215,207.1234 Q54.7856,207.1234 54.3372,207.3531 Q53.8997,207.5828 53.5497,208.1078 Q53.2106,208.6328 53.2106,209.3547 L53.2106,210.1203 Q53.2106,210.9844 53.834,211.5641 Q54.4575,212.1328 55.5731,212.1328 Q56.2293,212.1328 56.6887,211.9578 Q56.9622,211.8484 57.2575,211.5422 Q57.4434,211.3562 57.5418,211.3016 Q57.6512,211.2469 57.7934,211.2469 Q58.0231,211.2469 58.1981,211.4328 Q58.384,211.6078 58.384,211.8484 Q58.384,212.0891 58.1434,212.3734 Q57.7934,212.7781 57.2356,213.0078 Q56.4809,213.325 55.5731,213.325 Q54.5122,213.325 53.67,212.8875 Q52.9809,212.5375 52.4997,211.7937 Q52.0184,211.0391 52.0184,210.1422 L52.0184,209.3328 Q52.0184,208.4031 52.445,207.6047 Q52.8825,206.7953 53.6481,206.3687 Q54.4137,205.9312 55.2778,205.9312 Q55.7918,205.9312 56.2403,206.0516 Q56.6997,206.1609 57.0825,206.4125 Z " fill="#000000"/><text fill="#000000" font-family="sans-serif" font-size="9.8" lengthAdjust="spacing" textLength="27.7778" x="69.4965" y="213.3578">Player</text><line style="stroke:#181818;stroke-width:0.3499999999999999;" x1="5.6" x2="138.4209" y1="220.5" y2="220.5"/><rect fill="none" height="4.2" style="stroke:#C82930;stroke-width:0.6999999999999998;" width="4.2" x="10.5" y="228.7674"/><text fill="#000000" font-family="sans-serif" font-size="9.8" lengthAdjust="spacing" textLength="20.7006" x="18.9" y="233.8752">int id</text><rect fill="none" height="4.2" style="stroke:#C82930;stroke-width:0.6999999999999998;" width="4.2" x="10.5" y="241.8021"/><text fill="#000000" font-family="sans-serif" font-size="9.8" lengthAdjust="spacing" textLength="52.8377" x="18.9" y="246.91">String name</text><rect fill="none" height="4.2" style="stroke:#C82930;stroke-width:0.6999999999999998;" width="4.2" x="10.5" y="254.8369"/><text fill="#000000" font-family="sans-serif" font-size="9.8" lengthAdjust="spacing" textLength="81.161" x="18.9" y="259.9447">int currentPoints **</text><rect fill="none" height="4.2" style="stroke:#C82930;stroke-width:0.6999999999999998;" width="4.2" x="10.5" y="267.8717"/><text fill="#000000" font-family="sans-serif" font-size="9.8" lengthAdjust="spacing" textLength="116.0209" x="18.9" y="272.9795">int[] gamesWonPerSet ****</text><line style="stroke:#181818;stroke-width:0.3499999999999999;" x1="5.6" x2="138.4209" y1="278.2391" y2="278.2391"/><ellipse cx="12.6" cy="288.6064" fill="#84BE84" rx="2.1" ry="2.1" style="stroke:#038048;stroke-width:0.6999999999999998;"/><text fill="#000000" font-family="sans-serif" font-size="9.8" lengthAdjust="spacing" textLength="63.1784" x="18.9" y="291.6143">scorePoint() **</text></g><!--class Set--><g id="elem_Set"><rect codeLine="41" fill="#F1F1F1" height="85.7391" id="Set" rx="1.75" ry="1.75" style="stroke:#181818;stroke-width:0.3499999999999999;" width="142.3796" x="164.15" y="204.75"/><ellipse cx="225.01" cy="215.95" fill="#ADD1B2" rx="7.7" ry="7.7" style="stroke:#181818;stroke-width:0.6999999999999998;"/><path d="M226.9459,213.0625 Q227.0553,212.9094 227.1866,212.8328 Q227.3178,212.7562 227.4709,212.7562 Q227.7334,212.7562 227.8975,212.9422 Q228.0616,213.1172 228.0616,213.5437 L228.0616,214.5609 Q228.0616,214.9875 227.8975,215.1734 Q227.7334,215.3594 227.4709,215.3594 Q227.2303,215.3594 227.0881,215.2172 Q226.9459,215.0859 226.8694,214.725 Q226.8366,214.4734 226.7053,214.3422 Q226.4756,214.0797 226.0491,213.9266 Q225.6225,213.7734 225.185,213.7734 Q224.6491,213.7734 224.2006,214.0031 Q223.7631,214.2328 223.4131,214.7578 Q223.0741,215.2828 223.0741,216.0047 L223.0741,216.7703 Q223.0741,217.6344 223.6975,218.2141 Q224.3209,218.7828 225.4366,218.7828 Q226.0928,218.7828 226.5522,218.6078 Q226.8256,218.4984 227.1209,218.1922 Q227.3069,218.0062 227.4053,217.9516 Q227.5147,217.8969 227.6569,217.8969 Q227.8866,217.8969 228.0616,218.0828 Q228.2475,218.2578 228.2475,218.4984 Q228.2475,218.7391 228.0069,219.0234 Q227.6569,219.4281 227.0991,219.6578 Q226.3444,219.975 225.4366,219.975 Q224.3756,219.975 223.5334,219.5375 Q222.8444,219.1875 222.3631,218.4437 Q221.8819,217.6891 221.8819,216.7922 L221.8819,215.9828 Q221.8819,215.0531 222.3084,214.2547 Q222.7459,213.4453 223.5116,213.0187 Q224.2772,212.5812 225.1413,212.5812 Q225.6553,212.5812 226.1038,212.7016 Q226.5631,212.8109 226.9459,213.0625 Z " fill="#000000"/><text fill="#000000" font-family="sans-serif" font-size="9.8" lengthAdjust="spacing" textLength="14.7096" x="239.36" y="220.0078">Set</text><line style="stroke:#181818;stroke-width:0.3499999999999999;" x1="164.85" x2="305.8296" y1="227.15" y2="227.15"/><rect fill="none" height="4.2" style="stroke:#C82930;stroke-width:0.6999999999999998;" width="4.2" x="169.75" y="235.4174"/><text fill="#000000" font-family="sans-serif" font-size="9.8" lengthAdjust="spacing" textLength="75.1796" x="178.15" y="240.5252">int numberSet ++</text><rect fill="none" height="4.2" style="stroke:#C82930;stroke-width:0.6999999999999998;" width="4.2" x="169.75" y="248.4521"/><text fill="#000000" font-family="sans-serif" font-size="9.8" lengthAdjust="spacing" textLength="124.1796" x="178.15" y="253.56">int playerServiceGamesWon</text><rect fill="none" height="4.2" style="stroke:#C82930;stroke-width:0.6999999999999998;" width="4.2" x="169.75" y="261.4869"/><text fill="#000000" font-family="sans-serif" font-size="9.8" lengthAdjust="spacing" textLength="111.6521" x="178.15" y="266.5947">int playerRestGamesWon</text><line style="stroke:#181818;stroke-width:0.3499999999999999;" x1="164.85" x2="305.8296" y1="271.8543" y2="271.8543"/><ellipse cx="171.85" cy="282.2217" fill="#84BE84" rx="2.1" ry="2.1" style="stroke:#038048;stroke-width:0.6999999999999998;"/><text fill="#000000" font-family="sans-serif" font-size="9.8" lengthAdjust="spacing" textLength="49.5503" x="178.15" y="285.2295">isSetOver()</text></g><!--class Referee--><g id="elem_Referee"><rect codeLine="33" fill="#F1F1F1" height="85.7391" id="Referee" rx="1.75" ry="1.75" style="stroke:#181818;stroke-width:0.3499999999999999;" width="188.7143" x="331.1" y="204.75"/><ellipse cx="405.0498" cy="215.95" fill="#ADD1B2" rx="7.7" ry="7.7" style="stroke:#181818;stroke-width:0.6999999999999998;"/><path d="M406.9857,213.0625 Q407.0951,212.9094 407.2264,212.8328 Q407.3576,212.7562 407.5107,212.7562 Q407.7732,212.7562 407.9373,212.9422 Q408.1014,213.1172 408.1014,213.5437 L408.1014,214.5609 Q408.1014,214.9875 407.9373,215.1734 Q407.7732,215.3594 407.5107,215.3594 Q407.2701,215.3594 407.1279,215.2172 Q406.9857,215.0859 406.9092,214.725 Q406.8764,214.4734 406.7451,214.3422 Q406.5154,214.0797 406.0889,213.9266 Q405.6623,213.7734 405.2248,213.7734 Q404.6889,213.7734 404.2404,214.0031 Q403.8029,214.2328 403.4529,214.7578 Q403.1139,215.2828 403.1139,216.0047 L403.1139,216.7703 Q403.1139,217.6344 403.7373,218.2141 Q404.3607,218.7828 405.4764,218.7828 Q406.1326,218.7828 406.592,218.6078 Q406.8654,218.4984 407.1607,218.1922 Q407.3467,218.0062 407.4451,217.9516 Q407.5545,217.8969 407.6967,217.8969 Q407.9264,217.8969 408.1014,218.0828 Q408.2873,218.2578 408.2873,218.4984 Q408.2873,218.7391 408.0467,219.0234 Q407.6967,219.4281 407.1389,219.6578 Q406.3842,219.975 405.4764,219.975 Q404.4154,219.975 403.5732,219.5375 Q402.8842,219.1875 402.4029,218.4437 Q401.9217,217.6891 401.9217,216.7922 L401.9217,215.9828 Q401.9217,215.0531 402.3482,214.2547 Q402.7857,213.4453 403.5514,213.0187 Q404.317,212.5812 405.1811,212.5812 Q405.6951,212.5812 406.1436,212.7016 Q406.6029,212.8109 406.9857,213.0625 Z " fill="#000000"/><text fill="#000000" font-family="sans-serif" font-size="9.8" lengthAdjust="spacing" textLength="34.8646" x="419.3998" y="220.0078">Referee</text><line style="stroke:#181818;stroke-width:0.3499999999999999;" x1="331.8" x2="519.1143" y1="227.15" y2="227.15"/><rect fill="none" height="4.2" style="stroke:#C82930;stroke-width:0.6999999999999998;" width="4.2" x="336.7" y="235.4174"/><text fill="#000000" font-family="sans-serif" font-size="9.8" lengthAdjust="spacing" textLength="20.7006" x="345.1" y="240.5252">int id</text><rect fill="none" height="4.2" style="stroke:#C82930;stroke-width:0.6999999999999998;" width="4.2" x="336.7" y="248.4521"/><text fill="#000000" font-family="sans-serif" font-size="9.8" lengthAdjust="spacing" textLength="52.8377" x="345.1" y="253.56">String name</text><rect fill="none" height="4.2" style="stroke:#C82930;stroke-width:0.6999999999999998;" width="4.2" x="336.7" y="261.4869"/><text fill="#000000" font-family="sans-serif" font-size="9.8" lengthAdjust="spacing" textLength="70.2652" x="345.1" y="266.5947">String password</text><line style="stroke:#181818;stroke-width:0.3499999999999999;" x1="331.8" x2="519.1143" y1="271.8543" y2="271.8543"/><ellipse cx="338.8" cy="282.2217" fill="#84BE84" rx="2.1" ry="2.1" style="stroke:#038048;stroke-width:0.6999999999999998;"/><text fill="#000000" font-family="sans-serif" font-size="9.8" lengthAdjust="spacing" textLength="170.5143" x="345.1" y="285.2295">authenticate(String password): boolean</text></g><!--class Game--><g id="elem_Game"><rect codeLine="49" fill="#F1F1F1" height="111.8086" id="Game" rx="1.75" ry="1.75" style="stroke:#181818;stroke-width:0.3499999999999999;" width="176.158" x="147" y="338.8"/><ellipse cx="218.7606" cy="350" fill="#ADD1B2" rx="7.7" ry="7.7" style="stroke:#181818;stroke-width:0.6999999999999998;"/><path d="M220.6965,347.1125 Q220.8059,346.9594 220.9372,346.8828 Q221.0684,346.8062 221.2215,346.8062 Q221.484,346.8062 221.6481,346.9922 Q221.8122,347.1672 221.8122,347.5937 L221.8122,348.6109 Q221.8122,349.0375 221.6481,349.2234 Q221.484,349.4094 221.2215,349.4094 Q220.9809,349.4094 220.8387,349.2672 Q220.6965,349.1359 220.62,348.775 Q220.5872,348.5234 220.4559,348.3922 Q220.2262,348.1297 219.7997,347.9766 Q219.3731,347.8234 218.9356,347.8234 Q218.3997,347.8234 217.9512,348.0531 Q217.5137,348.2828 217.1637,348.8078 Q216.8247,349.3328 216.8247,350.0547 L216.8247,350.8203 Q216.8247,351.6844 217.4481,352.2641 Q218.0715,352.8328 219.1872,352.8328 Q219.8434,352.8328 220.3028,352.6578 Q220.5762,352.5484 220.8715,352.2422 Q221.0575,352.0562 221.1559,352.0016 Q221.2653,351.9469 221.4075,351.9469 Q221.6372,351.9469 221.8122,352.1328 Q221.9981,352.3078 221.9981,352.5484 Q221.9981,352.7891 221.7575,353.0734 Q221.4075,353.4781 220.8497,353.7078 Q220.095,354.025 219.1872,354.025 Q218.1262,354.025 217.284,353.5875 Q216.595,353.2375 216.1137,352.4937 Q215.6325,351.7391 215.6325,350.8422 L215.6325,350.0328 Q215.6325,349.1031 216.059,348.3047 Q216.4965,347.4953 217.2622,347.0687 Q218.0278,346.6312 218.8918,346.6312 Q219.4059,346.6312 219.8543,346.7516 Q220.3137,346.8609 220.6965,347.1125 Z " fill="#000000"/><text fill="#000000" font-family="sans-serif" font-size="9.8" lengthAdjust="spacing" textLength="26.6868" x="233.1106" y="354.0578">Game</text><line style="stroke:#181818;stroke-width:0.3499999999999999;" x1="147.7" x2="322.458" y1="361.2" y2="361.2"/><rect fill="none" height="4.2" style="stroke:#C82930;stroke-width:0.6999999999999998;" width="4.2" x="152.6" y="369.4674"/><text fill="#000000" font-family="sans-serif" font-size="9.8" lengthAdjust="spacing" textLength="89.87" x="161" y="374.5752">Player playerService</text><rect fill="none" height="4.2" style="stroke:#C82930;stroke-width:0.6999999999999998;" width="4.2" x="152.6" y="382.5021"/><text fill="#000000" font-family="sans-serif" font-size="9.8" lengthAdjust="spacing" textLength="77.3425" x="161" y="387.61">Player playerRest</text><line style="stroke:#181818;stroke-width:0.3499999999999999;" x1="147.7" x2="322.458" y1="392.8695" y2="392.8695"/><ellipse cx="154.7" cy="403.2369" fill="#84BE84" rx="2.1" ry="2.1" style="stroke:#038048;stroke-width:0.6999999999999998;"/><text fill="#000000" font-family="sans-serif" font-size="9.8" lengthAdjust="spacing" textLength="102.4071" x="161" y="406.2447">addPoint(Player player)</text><ellipse cx="154.7" cy="416.2717" fill="#84BE84" rx="2.1" ry="2.1" style="stroke:#038048;stroke-width:0.6999999999999998;"/><text fill="#000000" font-family="sans-serif" font-size="9.8" lengthAdjust="spacing" textLength="101.8521" x="161" y="419.2795">isGameOver(): boolean</text><rect fill="#F24D5C" height="4.2" style="stroke:#C82930;stroke-width:0.6999999999999998;" width="4.2" x="152.6" y="427.2064"/><text fill="#000000" font-family="sans-serif" font-size="9.8" lengthAdjust="spacing" textLength="157.958" x="161" y="432.3143">checkGameWinner(Player): boolean</text><rect fill="#F24D5C" height="4.2" style="stroke:#C82930;stroke-width:0.6999999999999998;" width="4.2" x="152.6" y="440.2412"/><text fill="#000000" font-family="sans-serif" font-size="9.8" lengthAdjust="spacing" textLength="153.6131" x="161" y="445.349">getOpponent(Player player): Player</text></g><!--class TieBreakGame--><g id="elem_TieBreakGame"><rect codeLine="59" fill="#F1F1F1" height="98.7738" id="TieBreakGame" rx="1.75" ry="1.75" style="stroke:#181818;stroke-width:0.3499999999999999;" width="160.9077" x="154.7" y="492.8"/><ellipse cx="199.2283" cy="504" fill="#ADD1B2" rx="7.7" ry="7.7" style="stroke:#181818;stroke-width:0.6999999999999998;"/><path d="M201.1642,501.1125 Q201.2736,500.9594 201.4048,500.8828 Q201.5361,500.8062 201.6892,500.8062 Q201.9517,500.8062 202.1158,500.9922 Q202.2798,501.1672 202.2798,501.5937 L202.2798,502.6109 Q202.2798,503.0375 202.1158,503.2234 Q201.9517,503.4094 201.6892,503.4094 Q201.4486,503.4094 201.3064,503.2672 Q201.1642,503.1359 201.0876,502.775 Q201.0548,502.5234 200.9236,502.3922 Q200.6939,502.1297 200.2673,501.9766 Q199.8408,501.8234 199.4033,501.8234 Q198.8673,501.8234 198.4189,502.0531 Q197.9814,502.2828 197.6314,502.8078 Q197.2923,503.3328 197.2923,504.0547 L197.2923,504.8203 Q197.2923,505.6844 197.9158,506.2641 Q198.5392,506.8328 199.6548,506.8328 Q200.3111,506.8328 200.7705,506.6578 Q201.0439,506.5484 201.3392,506.2422 Q201.5251,506.0562 201.6236,506.0016 Q201.733,505.9469 201.8751,505.9469 Q202.1048,505.9469 202.2798,506.1328 Q202.4658,506.3078 202.4658,506.5484 Q202.4658,506.7891 202.2251,507.0734 Q201.8751,507.4781 201.3173,507.7078 Q200.5626,508.025 199.6548,508.025 Q198.5939,508.025 197.7517,507.5875 Q197.0626,507.2375 196.5814,506.4937 Q196.1001,505.7391 196.1001,504.8422 L196.1001,504.0328 Q196.1001,503.1031 196.5267,502.3047 Q196.9642,501.4953 197.7298,501.0687 Q198.4955,500.6312 199.3595,500.6312 Q199.8736,500.6312 200.322,500.7516 Q200.7814,500.8609 201.1642,501.1125 Z " fill="#000000"/><text fill="#000000" font-family="sans-serif" font-size="9.8" lengthAdjust="spacing" textLength="65.9012" x="213.5783" y="508.0578">TieBreakGame</text><line style="stroke:#181818;stroke-width:0.3499999999999999;" x1="155.4" x2="314.9077" y1="515.2" y2="515.2"/><rect fill="none" height="4.2" style="stroke:#C82930;stroke-width:0.6999999999999998;" width="4.2" x="160.3" y="523.4674"/><text fill="#000000" font-family="sans-serif" font-size="9.8" lengthAdjust="spacing" textLength="99.6796" x="168.7" y="528.5752">int playerServicePoints</text><rect fill="none" height="4.2" style="stroke:#C82930;stroke-width:0.6999999999999998;" width="4.2" x="160.3" y="536.5021"/><text fill="#000000" font-family="sans-serif" font-size="9.8" lengthAdjust="spacing" textLength="87.1521" x="168.7" y="541.61">int playerRestPoints</text><line style="stroke:#181818;stroke-width:0.3499999999999999;" x1="155.4" x2="314.9077" y1="546.8695" y2="546.8695"/><ellipse cx="162.4" cy="557.2369" fill="#84BE84" rx="2.1" ry="2.1" style="stroke:#038048;stroke-width:0.6999999999999998;"/><text fill="#000000" font-family="sans-serif" font-size="9.8" lengthAdjust="spacing" textLength="102.4071" x="168.7" y="560.2447">addPoint(Player player)</text><ellipse cx="162.4" cy="570.2717" fill="#84BE84" rx="2.1" ry="2.1" style="stroke:#038048;stroke-width:0.6999999999999998;"/><text fill="#000000" font-family="sans-serif" font-size="9.8" lengthAdjust="spacing" textLength="142.7077" x="168.7" y="573.2795">checkTieBreakWinner(): boolean</text><ellipse cx="162.4" cy="583.3064" fill="#84BE84" rx="2.1" ry="2.1" style="stroke:#038048;stroke-width:0.6999999999999998;"/><text fill="#000000" font-family="sans-serif" font-size="9.8" lengthAdjust="spacing" textLength="76.797" x="168.7" y="586.3143">getScore(): String</text></g><!--link Match to Player--><g id="link_Match_Player"><path codeLine="2" d="M162.2581,155.2372 C146.1791,171.5542 138.1661,179.6866 123.1441,194.9396 " fill="none" id="Match-Player" style="stroke:#181818;stroke-width:0.6999999999999998;"/><polygon fill="#181818" points="168.154,149.254,163.2117,150.2803,162.2581,155.2372,167.2004,154.2109,168.154,149.254" style="stroke:#181818;stroke-width:0.6999999999999998;"/><polygon fill="#181818" points="120.197,197.932,126.6126,195.4081,122.6529,195.4383,122.6227,191.4786,120.197,197.932" style="stroke:#181818;stroke-width:0.6999999999999998;"/><text fill="#000000" font-family="sans-serif" font-size="9.1" lengthAdjust="spacing" textLength="5.061" x="120.0219" y="190.1384">2</text></g><!--link Match to Set--><g id="link_Match_Set"><path codeLine="3" d="M235.2,164.626 C235.2,181.223 235.2,185.64 235.2,200.375 " fill="none" id="Match-Set" style="stroke:#181818;stroke-width:0.6999999999999998;"/><polygon fill="#181818" points="235.2,156.226,232.4,160.426,235.2,164.626,238,160.426,235.2,156.226" style="stroke:#181818;stroke-width:0.6999999999999998;"/><polygon fill="#181818" points="235.2,204.575,238,198.275,235.2,201.075,232.4,198.275,235.2,204.575" style="stroke:#181818;stroke-width:0.6999999999999998;"/><text fill="#000000" font-family="sans-serif" font-size="9.1" lengthAdjust="spacing" textLength="12.4858" x="222.6297" y="196.8416">3|5</text></g><!--link Match to Referee--><g id="link_Match_Referee"><path codeLine="4" d="M308.3964,144.8461 C333.1484,166.3641 351.2056,182.0651 374.0046,201.8891 " fill="none" id="Match-Referee" style="stroke:#181818;stroke-width:0.6999999999999998;"/><polygon fill="#181818" points="302.057,139.335,303.3897,144.2037,308.3964,144.8461,307.0637,139.9774,302.057,139.335" style="stroke:#181818;stroke-width:0.6999999999999998;"/><polygon fill="#181818" points="377.174,204.645,374.2571,198.3983,374.5328,202.3485,370.5826,202.6242,377.174,204.645" style="stroke:#181818;stroke-width:0.6999999999999998;"/></g><!--link Set to Game--><g id="link_Set_Game"><path codeLine="6" d="M235.2,298.571 C235.2,313.726 235.2,318.472 235.2,334.593 " fill="none" id="Set-Game" style="stroke:#181818;stroke-width:0.6999999999999998;"/><polygon fill="#181818" points="235.2,290.171,232.4,294.371,235.2,298.571,238,294.371,235.2,290.171" style="stroke:#181818;stroke-width:0.6999999999999998;"/><polygon fill="#181818" points="235.2,338.793,238,332.493,235.2,335.293,232.4,332.493,235.2,338.793" style="stroke:#181818;stroke-width:0.6999999999999998;"/><text fill="#000000" font-family="sans-serif" font-size="9.1" lengthAdjust="spacing" textLength="20.2395" x="214.7079" y="330.8264">6..13</text></g><!--reverse link Game to TieBreakGame--><g id="link_Game_TieBreakGame"><path codeLine="8" d="M235.2,463.484 C235.2,477.274 235.2,479.353 235.2,492.793 " fill="none" id="Game-backto-TieBreakGame" style="stroke:#181818;stroke-width:0.6999999999999998;"/><polygon fill="none" points="235.2,450.884,231,463.484,239.4,463.484,235.2,450.884" style="stroke:#181818;stroke-width:0.6999999999999998;"/></g><!--SRC=[VLDDQy904BtdLmoU_212A-sXYD1UlDGgfk2XzB0cKrqQTyFkgaZjV-_iJfAQ2EQGiE_DpdlpaPbmwHRwSQQFAfv0vxu3YroSq4Ip5ZCwFtGWGTScblY51Z6AYBi8VnmExqOTc8eTKVuDupEJy2xnnQ3uPYvASs4jSDQVA0Qf73ZjH4u9BPsVZH6dLsdTc809M4A3nOou0BFX2HJXww-ijSvHA90SQH8q1vaYCS59kZS6bMFz0LWdZ7l3epztUz3l4oQoZDIwlYOIx14YRR0uFw3fzfug2I8sw0AJfDgWfn9dfDf4lrLfxA6kJNhZ70FAMs2uDBNGTB3UH80_Fc53CNQbrSBNGIsc9xZsSY6QFTTovK1kwPMdWiAFscG-dTYxBSdBL3ZijlYBSciLRwLIKFlTciqD1YLKNFPzMbRGu9PeNKs4_b82xkw_IXYNbobxMBJ6sO1zneXdntrfi3n3dx0zmXZIBQPX7LTIAIBvOYE4fZml2gtmAkzJzSVKhYyNl6vImpfF-QeV9NopXk2rKYZzjlVnUXN_0000]--></g></svg>