<svg xmlns="http://www.w3.org/2000/svg" xmlns:xlink="http://www.w3.org/1999/xlink" contentStyleType="text/css" height="494px" preserveAspectRatio="none" style="width:579px;height:494px;background:#FFFFFF;" version="1.1" viewBox="0 0 579 494" width="579px" zoomAndPan="magnify"><defs/><g><!--class Match--><g id="elem_Match"><rect codeLine="2" fill="#F1F1F1" height="48" id="Match" rx="2.5" ry="2.5" style="stroke:#181818;stroke-width:0.5;" width="70.124" x="150" y="7"/><ellipse cx="165" cy="23" fill="#ADD1B2" rx="11" ry="11" style="stroke:#181818;stroke-width:1.0;"/><path d="M167.7656,18.875 Q167.9219,18.6563 168.1094,18.5469 Q168.2969,18.4375 168.5156,18.4375 Q168.8906,18.4375 169.125,18.7031 Q169.3594,18.9531 169.3594,19.5625 L169.3594,21.0156 Q169.3594,21.625 169.125,21.8906 Q168.8906,22.1563 168.5156,22.1563 Q168.1719,22.1563 167.9688,21.9531 Q167.7656,21.7656 167.6563,21.25 Q167.6094,20.8906 167.4219,20.7031 Q167.0938,20.3281 166.4844,20.1094 Q165.875,19.8906 165.25,19.8906 Q164.4844,19.8906 163.8438,20.2188 Q163.2188,20.5469 162.7188,21.2969 Q162.2344,22.0469 162.2344,23.0781 L162.2344,24.1719 Q162.2344,25.4063 163.125,26.2344 Q164.0156,27.0469 165.6094,27.0469 Q166.5469,27.0469 167.2031,26.7969 Q167.5938,26.6406 168.0156,26.2031 Q168.2813,25.9375 168.4219,25.8594 Q168.5781,25.7813 168.7813,25.7813 Q169.1094,25.7813 169.3594,26.0469 Q169.625,26.2969 169.625,26.6406 Q169.625,26.9844 169.2813,27.3906 Q168.7813,27.9688 167.9844,28.2969 Q166.9063,28.75 165.6094,28.75 Q164.0938,28.75 162.8906,28.125 Q161.9063,27.625 161.2188,26.5625 Q160.5313,25.4844 160.5313,24.2031 L160.5313,23.0469 Q160.5313,21.7188 161.1406,20.5781 Q161.7656,19.4219 162.8594,18.8125 Q163.9531,18.1875 165.1875,18.1875 Q165.9219,18.1875 166.5625,18.3594 Q167.2188,18.5156 167.7656,18.875 Z " fill="#000000"/><text fill="#000000" font-family="sans-serif" font-size="14" lengthAdjust="spacing" textLength="38.124" x="179" y="28.7969">Match</text><line style="stroke:#181818;stroke-width:0.5;" x1="151" x2="219.124" y1="39" y2="39"/><line style="stroke:#181818;stroke-width:0.5;" x1="151" x2="219.124" y1="47" y2="47"/></g><!--class Player--><g id="elem_Player"><rect codeLine="3" fill="#F1F1F1" height="48" id="Player" rx="2.5" ry="2.5" style="stroke:#181818;stroke-width:0.5;" width="71.6826" x="7" y="115"/><ellipse cx="22" cy="131" fill="#ADD1B2" rx="11" ry="11" style="stroke:#181818;stroke-width:1.0;"/><path d="M24.7656,126.875 Q24.9219,126.6563 25.1094,126.5469 Q25.2969,126.4375 25.5156,126.4375 Q25.8906,126.4375 26.125,126.7031 Q26.3594,126.9531 26.3594,127.5625 L26.3594,129.0156 Q26.3594,129.625 26.125,129.8906 Q25.8906,130.1563 25.5156,130.1563 Q25.1719,130.1563 24.9688,129.9531 Q24.7656,129.7656 24.6563,129.25 Q24.6094,128.8906 24.4219,128.7031 Q24.0938,128.3281 23.4844,128.1094 Q22.875,127.8906 22.25,127.8906 Q21.4844,127.8906 20.8438,128.2188 Q20.2188,128.5469 19.7188,129.2969 Q19.2344,130.0469 19.2344,131.0781 L19.2344,132.1719 Q19.2344,133.4063 20.125,134.2344 Q21.0156,135.0469 22.6094,135.0469 Q23.5469,135.0469 24.2031,134.7969 Q24.5938,134.6406 25.0156,134.2031 Q25.2813,133.9375 25.4219,133.8594 Q25.5781,133.7813 25.7813,133.7813 Q26.1094,133.7813 26.3594,134.0469 Q26.625,134.2969 26.625,134.6406 Q26.625,134.9844 26.2813,135.3906 Q25.7813,135.9688 24.9844,136.2969 Q23.9063,136.75 22.6094,136.75 Q21.0938,136.75 19.8906,136.125 Q18.9063,135.625 18.2188,134.5625 Q17.5313,133.4844 17.5313,132.2031 L17.5313,131.0469 Q17.5313,129.7188 18.1406,128.5781 Q18.7656,127.4219 19.8594,126.8125 Q20.9531,126.1875 22.1875,126.1875 Q22.9219,126.1875 23.5625,126.3594 Q24.2188,126.5156 24.7656,126.875 Z " fill="#000000"/><text fill="#000000" font-family="sans-serif" font-size="14" lengthAdjust="spacing" textLength="39.6826" x="36" y="136.7969">Player</text><line style="stroke:#181818;stroke-width:0.5;" x1="8" x2="77.6826" y1="147" y2="147"/><line style="stroke:#181818;stroke-width:0.5;" x1="8" x2="77.6826" y1="155" y2="155"/></g><!--class Referee--><g id="elem_Referee"><rect codeLine="4" fill="#F1F1F1" height="48" id="Referee" rx="2.5" ry="2.5" style="stroke:#181818;stroke-width:0.5;" width="81.8066" x="91" y="223"/><ellipse cx="106" cy="239" fill="#ADD1B2" rx="11" ry="11" style="stroke:#181818;stroke-width:1.0;"/><path d="M108.7656,234.875 Q108.9219,234.6563 109.1094,234.5469 Q109.2969,234.4375 109.5156,234.4375 Q109.8906,234.4375 110.125,234.7031 Q110.3594,234.9531 110.3594,235.5625 L110.3594,237.0156 Q110.3594,237.625 110.125,237.8906 Q109.8906,238.1563 109.5156,238.1563 Q109.1719,238.1563 108.9688,237.9531 Q108.7656,237.7656 108.6563,237.25 Q108.6094,236.8906 108.4219,236.7031 Q108.0938,236.3281 107.4844,236.1094 Q106.875,235.8906 106.25,235.8906 Q105.4844,235.8906 104.8438,236.2188 Q104.2188,236.5469 103.7188,237.2969 Q103.2344,238.0469 103.2344,239.0781 L103.2344,240.1719 Q103.2344,241.4063 104.125,242.2344 Q105.0156,243.0469 106.6094,243.0469 Q107.5469,243.0469 108.2031,242.7969 Q108.5938,242.6406 109.0156,242.2031 Q109.2813,241.9375 109.4219,241.8594 Q109.5781,241.7813 109.7813,241.7813 Q110.1094,241.7813 110.3594,242.0469 Q110.625,242.2969 110.625,242.6406 Q110.625,242.9844 110.2813,243.3906 Q109.7813,243.9688 108.9844,244.2969 Q107.9063,244.75 106.6094,244.75 Q105.0938,244.75 103.8906,244.125 Q102.9063,243.625 102.2188,242.5625 Q101.5313,241.4844 101.5313,240.2031 L101.5313,239.0469 Q101.5313,237.7188 102.1406,236.5781 Q102.7656,235.4219 103.8594,234.8125 Q104.9531,234.1875 106.1875,234.1875 Q106.9219,234.1875 107.5625,234.3594 Q108.2188,234.5156 108.7656,234.875 Z " fill="#000000"/><text fill="#000000" font-family="sans-serif" font-size="14" lengthAdjust="spacing" textLength="49.8066" x="120" y="244.7969">Referee</text><line style="stroke:#181818;stroke-width:0.5;" x1="92" x2="171.8066" y1="255" y2="255"/><line style="stroke:#181818;stroke-width:0.5;" x1="92" x2="171.8066" y1="263" y2="263"/></g><!--class ScoreBoard--><g id="elem_ScoreBoard"><rect codeLine="5" fill="#F1F1F1" height="48" id="ScoreBoard" rx="2.5" ry="2.5" style="stroke:#181818;stroke-width:0.5;" width="105.9307" x="185" y="115"/><ellipse cx="200" cy="131" fill="#ADD1B2" rx="11" ry="11" style="stroke:#181818;stroke-width:1.0;"/><path d="M202.7656,126.875 Q202.9219,126.6563 203.1094,126.5469 Q203.2969,126.4375 203.5156,126.4375 Q203.8906,126.4375 204.125,126.7031 Q204.3594,126.9531 204.3594,127.5625 L204.3594,129.0156 Q204.3594,129.625 204.125,129.8906 Q203.8906,130.1563 203.5156,130.1563 Q203.1719,130.1563 202.9688,129.9531 Q202.7656,129.7656 202.6563,129.25 Q202.6094,128.8906 202.4219,128.7031 Q202.0938,128.3281 201.4844,128.1094 Q200.875,127.8906 200.25,127.8906 Q199.4844,127.8906 198.8438,128.2188 Q198.2188,128.5469 197.7188,129.2969 Q197.2344,130.0469 197.2344,131.0781 L197.2344,132.1719 Q197.2344,133.4063 198.125,134.2344 Q199.0156,135.0469 200.6094,135.0469 Q201.5469,135.0469 202.2031,134.7969 Q202.5938,134.6406 203.0156,134.2031 Q203.2813,133.9375 203.4219,133.8594 Q203.5781,133.7813 203.7813,133.7813 Q204.1094,133.7813 204.3594,134.0469 Q204.625,134.2969 204.625,134.6406 Q204.625,134.9844 204.2813,135.3906 Q203.7813,135.9688 202.9844,136.2969 Q201.9063,136.75 200.6094,136.75 Q199.0938,136.75 197.8906,136.125 Q196.9063,135.625 196.2188,134.5625 Q195.5313,133.4844 195.5313,132.2031 L195.5313,131.0469 Q195.5313,129.7188 196.1406,128.5781 Q196.7656,127.4219 197.8594,126.8125 Q198.9531,126.1875 200.1875,126.1875 Q200.9219,126.1875 201.5625,126.3594 Q202.2188,126.5156 202.7656,126.875 Z " fill="#000000"/><text fill="#000000" font-family="sans-serif" font-size="14" lengthAdjust="spacing" textLength="73.9307" x="214" y="136.7969">ScoreBoard</text><line style="stroke:#181818;stroke-width:0.5;" x1="186" x2="289.9307" y1="147" y2="147"/><line style="stroke:#181818;stroke-width:0.5;" x1="186" x2="289.9307" y1="155" y2="155"/></g><!--class Set--><g id="elem_Set"><rect codeLine="6" fill="#F1F1F1" height="48" id="Set" rx="2.5" ry="2.5" style="stroke:#181818;stroke-width:0.5;" width="53.0137" x="326.5" y="115"/><ellipse cx="341.5" cy="131" fill="#ADD1B2" rx="11" ry="11" style="stroke:#181818;stroke-width:1.0;"/><path d="M344.2656,126.875 Q344.4219,126.6563 344.6094,126.5469 Q344.7969,126.4375 345.0156,126.4375 Q345.3906,126.4375 345.625,126.7031 Q345.8594,126.9531 345.8594,127.5625 L345.8594,129.0156 Q345.8594,129.625 345.625,129.8906 Q345.3906,130.1563 345.0156,130.1563 Q344.6719,130.1563 344.4688,129.9531 Q344.2656,129.7656 344.1563,129.25 Q344.1094,128.8906 343.9219,128.7031 Q343.5938,128.3281 342.9844,128.1094 Q342.375,127.8906 341.75,127.8906 Q340.9844,127.8906 340.3438,128.2188 Q339.7188,128.5469 339.2188,129.2969 Q338.7344,130.0469 338.7344,131.0781 L338.7344,132.1719 Q338.7344,133.4063 339.625,134.2344 Q340.5156,135.0469 342.1094,135.0469 Q343.0469,135.0469 343.7031,134.7969 Q344.0938,134.6406 344.5156,134.2031 Q344.7813,133.9375 344.9219,133.8594 Q345.0781,133.7813 345.2813,133.7813 Q345.6094,133.7813 345.8594,134.0469 Q346.125,134.2969 346.125,134.6406 Q346.125,134.9844 345.7813,135.3906 Q345.2813,135.9688 344.4844,136.2969 Q343.4063,136.75 342.1094,136.75 Q340.5938,136.75 339.3906,136.125 Q338.4063,135.625 337.7188,134.5625 Q337.0313,133.4844 337.0313,132.2031 L337.0313,131.0469 Q337.0313,129.7188 337.6406,128.5781 Q338.2656,127.4219 339.3594,126.8125 Q340.4531,126.1875 341.6875,126.1875 Q342.4219,126.1875 343.0625,126.3594 Q343.7188,126.5156 344.2656,126.875 Z " fill="#000000"/><text fill="#000000" font-family="sans-serif" font-size="14" lengthAdjust="spacing" textLength="21.0137" x="355.5" y="136.7969">Set</text><line style="stroke:#181818;stroke-width:0.5;" x1="327.5" x2="378.5137" y1="147" y2="147"/><line style="stroke:#181818;stroke-width:0.5;" x1="327.5" x2="378.5137" y1="155" y2="155"/></g><!--class Game--><g id="elem_Game"><rect codeLine="7" fill="#F1F1F1" height="48" id="Game" rx="2.5" ry="2.5" style="stroke:#181818;stroke-width:0.5;" width="70.124" x="318" y="223"/><ellipse cx="333" cy="239" fill="#ADD1B2" rx="11" ry="11" style="stroke:#181818;stroke-width:1.0;"/><path d="M335.7656,234.875 Q335.9219,234.6563 336.1094,234.5469 Q336.2969,234.4375 336.5156,234.4375 Q336.8906,234.4375 337.125,234.7031 Q337.3594,234.9531 337.3594,235.5625 L337.3594,237.0156 Q337.3594,237.625 337.125,237.8906 Q336.8906,238.1563 336.5156,238.1563 Q336.1719,238.1563 335.9688,237.9531 Q335.7656,237.7656 335.6563,237.25 Q335.6094,236.8906 335.4219,236.7031 Q335.0938,236.3281 334.4844,236.1094 Q333.875,235.8906 333.25,235.8906 Q332.4844,235.8906 331.8438,236.2188 Q331.2188,236.5469 330.7188,237.2969 Q330.2344,238.0469 330.2344,239.0781 L330.2344,240.1719 Q330.2344,241.4063 331.125,242.2344 Q332.0156,243.0469 333.6094,243.0469 Q334.5469,243.0469 335.2031,242.7969 Q335.5938,242.6406 336.0156,242.2031 Q336.2813,241.9375 336.4219,241.8594 Q336.5781,241.7813 336.7813,241.7813 Q337.1094,241.7813 337.3594,242.0469 Q337.625,242.2969 337.625,242.6406 Q337.625,242.9844 337.2813,243.3906 Q336.7813,243.9688 335.9844,244.2969 Q334.9063,244.75 333.6094,244.75 Q332.0938,244.75 330.8906,244.125 Q329.9063,243.625 329.2188,242.5625 Q328.5313,241.4844 328.5313,240.2031 L328.5313,239.0469 Q328.5313,237.7188 329.1406,236.5781 Q329.7656,235.4219 330.8594,234.8125 Q331.9531,234.1875 333.1875,234.1875 Q333.9219,234.1875 334.5625,234.3594 Q335.2188,234.5156 335.7656,234.875 Z " fill="#000000"/><text fill="#000000" font-family="sans-serif" font-size="14" lengthAdjust="spacing" textLength="38.124" x="347" y="244.7969">Game</text><line style="stroke:#181818;stroke-width:0.5;" x1="319" x2="387.124" y1="255" y2="255"/><line style="stroke:#181818;stroke-width:0.5;" x1="319" x2="387.124" y1="263" y2="263"/></g><!--class StandardGame--><g id="elem_StandardGame"><rect codeLine="8" fill="#F1F1F1" height="48" id="StandardGame" rx="2.5" ry="2.5" style="stroke:#181818;stroke-width:0.5;" width="126.9443" x="185.5" y="331"/><ellipse cx="200.5" cy="347" fill="#ADD1B2" rx="11" ry="11" style="stroke:#181818;stroke-width:1.0;"/><path d="M203.2656,342.875 Q203.4219,342.6563 203.6094,342.5469 Q203.7969,342.4375 204.0156,342.4375 Q204.3906,342.4375 204.625,342.7031 Q204.8594,342.9531 204.8594,343.5625 L204.8594,345.0156 Q204.8594,345.625 204.625,345.8906 Q204.3906,346.1563 204.0156,346.1563 Q203.6719,346.1563 203.4688,345.9531 Q203.2656,345.7656 203.1563,345.25 Q203.1094,344.8906 202.9219,344.7031 Q202.5938,344.3281 201.9844,344.1094 Q201.375,343.8906 200.75,343.8906 Q199.9844,343.8906 199.3438,344.2188 Q198.7188,344.5469 198.2188,345.2969 Q197.7344,346.0469 197.7344,347.0781 L197.7344,348.1719 Q197.7344,349.4063 198.625,350.2344 Q199.5156,351.0469 201.1094,351.0469 Q202.0469,351.0469 202.7031,350.7969 Q203.0938,350.6406 203.5156,350.2031 Q203.7813,349.9375 203.9219,349.8594 Q204.0781,349.7813 204.2813,349.7813 Q204.6094,349.7813 204.8594,350.0469 Q205.125,350.2969 205.125,350.6406 Q205.125,350.9844 204.7813,351.3906 Q204.2813,351.9688 203.4844,352.2969 Q202.4063,352.75 201.1094,352.75 Q199.5938,352.75 198.3906,352.125 Q197.4063,351.625 196.7188,350.5625 Q196.0313,349.4844 196.0313,348.2031 L196.0313,347.0469 Q196.0313,345.7188 196.6406,344.5781 Q197.2656,343.4219 198.3594,342.8125 Q199.4531,342.1875 200.6875,342.1875 Q201.4219,342.1875 202.0625,342.3594 Q202.7188,342.5156 203.2656,342.875 Z " fill="#000000"/><text fill="#000000" font-family="sans-serif" font-size="14" lengthAdjust="spacing" textLength="94.9443" x="214.5" y="352.7969">StandardGame</text><line style="stroke:#181818;stroke-width:0.5;" x1="186.5" x2="311.4443" y1="363" y2="363"/><line style="stroke:#181818;stroke-width:0.5;" x1="186.5" x2="311.4443" y1="371" y2="371"/></g><!--class TieBreakGame--><g id="elem_TieBreakGame"><rect codeLine="9" fill="#F1F1F1" height="48" id="TieBreakGame" rx="2.5" ry="2.5" style="stroke:#181818;stroke-width:0.5;" width="126.1445" x="348" y="331"/><ellipse cx="363" cy="347" fill="#ADD1B2" rx="11" ry="11" style="stroke:#181818;stroke-width:1.0;"/><path d="M365.7656,342.875 Q365.9219,342.6563 366.1094,342.5469 Q366.2969,342.4375 366.5156,342.4375 Q366.8906,342.4375 367.125,342.7031 Q367.3594,342.9531 367.3594,343.5625 L367.3594,345.0156 Q367.3594,345.625 367.125,345.8906 Q366.8906,346.1563 366.5156,346.1563 Q366.1719,346.1563 365.9688,345.9531 Q365.7656,345.7656 365.6563,345.25 Q365.6094,344.8906 365.4219,344.7031 Q365.0938,344.3281 364.4844,344.1094 Q363.875,343.8906 363.25,343.8906 Q362.4844,343.8906 361.8438,344.2188 Q361.2188,344.5469 360.7188,345.2969 Q360.2344,346.0469 360.2344,347.0781 L360.2344,348.1719 Q360.2344,349.4063 361.125,350.2344 Q362.0156,351.0469 363.6094,351.0469 Q364.5469,351.0469 365.2031,350.7969 Q365.5938,350.6406 366.0156,350.2031 Q366.2813,349.9375 366.4219,349.8594 Q366.5781,349.7813 366.7813,349.7813 Q367.1094,349.7813 367.3594,350.0469 Q367.625,350.2969 367.625,350.6406 Q367.625,350.9844 367.2813,351.3906 Q366.7813,351.9688 365.9844,352.2969 Q364.9063,352.75 363.6094,352.75 Q362.0938,352.75 360.8906,352.125 Q359.9063,351.625 359.2188,350.5625 Q358.5313,349.4844 358.5313,348.2031 L358.5313,347.0469 Q358.5313,345.7188 359.1406,344.5781 Q359.7656,343.4219 360.8594,342.8125 Q361.9531,342.1875 363.1875,342.1875 Q363.9219,342.1875 364.5625,342.3594 Q365.2188,342.5156 365.7656,342.875 Z " fill="#000000"/><text fill="#000000" font-family="sans-serif" font-size="14" lengthAdjust="spacing" textLength="94.1445" x="377" y="352.7969">TieBreakGame</text><line style="stroke:#181818;stroke-width:0.5;" x1="349" x2="473.1445" y1="363" y2="363"/><line style="stroke:#181818;stroke-width:0.5;" x1="349" x2="473.1445" y1="371" y2="371"/></g><!--class Point--><g id="elem_Point"><rect codeLine="10" fill="#F1F1F1" height="48" id="Point" rx="2.5" ry="2.5" style="stroke:#181818;stroke-width:0.5;" width="63.9102" x="298" y="439"/><ellipse cx="313" cy="455" fill="#ADD1B2" rx="11" ry="11" style="stroke:#181818;stroke-width:1.0;"/><path d="M315.7656,450.875 Q315.9219,450.6563 316.1094,450.5469 Q316.2969,450.4375 316.5156,450.4375 Q316.8906,450.4375 317.125,450.7031 Q317.3594,450.9531 317.3594,451.5625 L317.3594,453.0156 Q317.3594,453.625 317.125,453.8906 Q316.8906,454.1563 316.5156,454.1563 Q316.1719,454.1563 315.9688,453.9531 Q315.7656,453.7656 315.6563,453.25 Q315.6094,452.8906 315.4219,452.7031 Q315.0938,452.3281 314.4844,452.1094 Q313.875,451.8906 313.25,451.8906 Q312.4844,451.8906 311.8438,452.2188 Q311.2188,452.5469 310.7188,453.2969 Q310.2344,454.0469 310.2344,455.0781 L310.2344,456.1719 Q310.2344,457.4063 311.125,458.2344 Q312.0156,459.0469 313.6094,459.0469 Q314.5469,459.0469 315.2031,458.7969 Q315.5938,458.6406 316.0156,458.2031 Q316.2813,457.9375 316.4219,457.8594 Q316.5781,457.7813 316.7813,457.7813 Q317.1094,457.7813 317.3594,458.0469 Q317.625,458.2969 317.625,458.6406 Q317.625,458.9844 317.2813,459.3906 Q316.7813,459.9688 315.9844,460.2969 Q314.9063,460.75 313.6094,460.75 Q312.0938,460.75 310.8906,460.125 Q309.9063,459.625 309.2188,458.5625 Q308.5313,457.4844 308.5313,456.2031 L308.5313,455.0469 Q308.5313,453.7188 309.1406,452.5781 Q309.7656,451.4219 310.8594,450.8125 Q311.9531,450.1875 313.1875,450.1875 Q313.9219,450.1875 314.5625,450.3594 Q315.2188,450.5156 315.7656,450.875 Z " fill="#000000"/><text fill="#000000" font-family="sans-serif" font-size="14" lengthAdjust="spacing" textLength="31.9102" x="327" y="460.7969">Point</text><line style="stroke:#181818;stroke-width:0.5;" x1="299" x2="360.9102" y1="471" y2="471"/><line style="stroke:#181818;stroke-width:0.5;" x1="299" x2="360.9102" y1="479" y2="479"/></g><!--class Fault--><g id="elem_Fault"><rect codeLine="11" fill="#F1F1F1" height="48" id="Fault" rx="2.5" ry="2.5" style="stroke:#181818;stroke-width:0.5;" width="63.124" x="509.5" y="331"/><ellipse cx="524.5" cy="347" fill="#ADD1B2" rx="11" ry="11" style="stroke:#181818;stroke-width:1.0;"/><path d="M527.2656,342.875 Q527.4219,342.6563 527.6094,342.5469 Q527.7969,342.4375 528.0156,342.4375 Q528.3906,342.4375 528.625,342.7031 Q528.8594,342.9531 528.8594,343.5625 L528.8594,345.0156 Q528.8594,345.625 528.625,345.8906 Q528.3906,346.1563 528.0156,346.1563 Q527.6719,346.1563 527.4688,345.9531 Q527.2656,345.7656 527.1563,345.25 Q527.1094,344.8906 526.9219,344.7031 Q526.5938,344.3281 525.9844,344.1094 Q525.375,343.8906 524.75,343.8906 Q523.9844,343.8906 523.3438,344.2188 Q522.7188,344.5469 522.2188,345.2969 Q521.7344,346.0469 521.7344,347.0781 L521.7344,348.1719 Q521.7344,349.4063 522.625,350.2344 Q523.5156,351.0469 525.1094,351.0469 Q526.0469,351.0469 526.7031,350.7969 Q527.0938,350.6406 527.5156,350.2031 Q527.7813,349.9375 527.9219,349.8594 Q528.0781,349.7813 528.2813,349.7813 Q528.6094,349.7813 528.8594,350.0469 Q529.125,350.2969 529.125,350.6406 Q529.125,350.9844 528.7813,351.3906 Q528.2813,351.9688 527.4844,352.2969 Q526.4063,352.75 525.1094,352.75 Q523.5938,352.75 522.3906,352.125 Q521.4063,351.625 520.7188,350.5625 Q520.0313,349.4844 520.0313,348.2031 L520.0313,347.0469 Q520.0313,345.7188 520.6406,344.5781 Q521.2656,343.4219 522.3594,342.8125 Q523.4531,342.1875 524.6875,342.1875 Q525.4219,342.1875 526.0625,342.3594 Q526.7188,342.5156 527.2656,342.875 Z " fill="#000000"/><text fill="#000000" font-family="sans-serif" font-size="14" lengthAdjust="spacing" textLength="31.124" x="538.5" y="352.7969">Fault</text><line style="stroke:#181818;stroke-width:0.5;" x1="510.5" x2="571.624" y1="363" y2="363"/><line style="stroke:#181818;stroke-width:0.5;" x1="510.5" x2="571.624" y1="371" y2="371"/></g><!--link Match to Player--><g id="link_Match_Player"><path codeLine="13" d="M144.5734,62.1779 C120.9134,79.8379 102.8078,93.3504 79.0478,111.0904 " fill="none" id="Match-Player" style="stroke:#181818;stroke-width:1.0;"/><polygon fill="#181818" points="154.19,55,146.9891,55.3834,144.5734,62.1779,151.7743,61.7945,154.19,55" style="stroke:#181818;stroke-width:1.0;"/><polygon fill="#181818" points="74.24,114.68,83.8447,112.5007,78.2465,111.6886,79.0586,106.0904,74.24,114.68" style="stroke:#181818;stroke-width:1.0;"/><text fill="#000000" font-family="sans-serif" font-size="13" lengthAdjust="spacing" textLength="7.23" x="74.0683" y="103.7439">2</text></g><!--link Match to Set--><g id="link_Match_Set"><path codeLine="14" d="M230.3687,60.6235 C262.0187,80.5935 292.5958,99.8881 321.2958,117.9981 " fill="none" id="Match-Set" style="stroke:#181818;stroke-width:1.0;"/><polygon fill="#181818" points="220.22,54.22,223.1599,60.8046,230.3687,60.6235,227.4288,54.0388,220.22,54.22" style="stroke:#181818;stroke-width:1.0;"/><polygon fill="#181818" points="326.37,121.2,320.8932,113.0143,322.1415,118.5318,316.624,119.78,326.37,121.2" style="stroke:#181818;stroke-width:1.0;"/><text fill="#000000" font-family="sans-serif" font-size="13" lengthAdjust="spacing" textLength="17.8369" x="300.4734" y="111.5262">3|5</text></g><!--link Match to Referee--><g id="link_Match_Referee"><path codeLine="15" d="M176.3435,66.9577 C166.1435,108.1177 149.4026,175.756 139.2126,216.896 " fill="none" id="Match-Referee" style="stroke:#181818;stroke-width:1.0;"/><polygon fill="#181818" points="179.23,55.31,173.9042,60.1717,176.3435,66.9577,181.6693,62.096,179.23,55.31" style="stroke:#181818;stroke-width:1.0;"/><polygon fill="#181818" points="137.77,222.72,143.8165,214.9457,138.9721,217.8667,136.0512,213.0223,137.77,222.72" style="stroke:#181818;stroke-width:1.0;"/></g><!--link Match to ScoreBoard--><g id="link_Match_ScoreBoard"><path codeLine="16" d="M201.8666,65.7331 C210.6966,83.3931 214.7867,91.5734 223.6567,109.3134 " fill="none" id="Match-ScoreBoard" style="stroke:#181818;stroke-width:1.0;"/><polygon fill="#181818" points="196.5,55,195.6056,62.1554,201.8666,65.7331,202.761,58.5777,196.5,55" style="stroke:#181818;stroke-width:1.0;"/><polygon fill="#181818" points="226.34,114.68,225.8928,104.8413,224.1039,110.2079,218.7374,108.419,226.34,114.68" style="stroke:#181818;stroke-width:1.0;"/></g><!--link Referee to Point--><g id="link_Referee_Point"><path codeLine="18" d="M132.85,271.39 C135.04,299.77 142.55,347.71 168,379 C201.6,420.31 255.3938,441.5071 292.1838,452.3271 " fill="none" id="Referee-to-Point" style="stroke:#181818;stroke-width:1.0;"/><polygon fill="#181818" points="297.94,454.02,290.4343,447.6432,293.1432,452.6092,288.1771,455.3181,297.94,454.02" style="stroke:#181818;stroke-width:1.0;"/></g><!--link Set to Game--><g id="link_Set_Game"><path codeLine="20" d="M353,175 C353,192.66 353,198.94 353,216.68 " fill="none" id="Set-Game" style="stroke:#181818;stroke-width:1.0;"/><polygon fill="#181818" points="353,163,349,169,353,175,357,169,353,163" style="stroke:#181818;stroke-width:1.0;"/><polygon fill="#181818" points="353,222.68,357,213.68,353,217.68,349,213.68,353,222.68" style="stroke:#181818;stroke-width:1.0;"/><text fill="#000000" font-family="sans-serif" font-size="13" lengthAdjust="spacing" textLength="28.9136" x="321.6837" y="211.7439">6..13</text></g><!--reverse link Game to StandardGame--><g id="link_Game_StandardGame"><path codeLine="22" d="M317.8264,283.851 C300.5064,301.511 289.28,312.94 271.88,330.68 " fill="none" id="Game-backto-StandardGame" style="stroke:#181818;stroke-width:1.0;"/><polygon fill="none" points="330.43,271,313.5427,279.6498,322.1101,288.0522,330.43,271" style="stroke:#181818;stroke-width:1.0;"/></g><!--reverse link Game to TieBreakGame--><g id="link_Game_TieBreakGame"><path codeLine="23" d="M374.2281,286.7919 C383.8881,304.4519 388.53,312.94 398.24,330.68 " fill="none" id="Game-backto-TieBreakGame" style="stroke:#181818;stroke-width:1.0;"/><polygon fill="none" points="365.59,271,368.9642,289.6712,379.4921,283.9125,365.59,271" style="stroke:#181818;stroke-width:1.0;"/></g><!--link StandardGame to Point--><g id="link_StandardGame_Point"><path codeLine="25" d="M273.8644,388.5361 C287.3544,406.1961 294.9763,416.1731 308.5363,433.9131 " fill="none" id="StandardGame-Point" style="stroke:#181818;stroke-width:1.0;"/><polygon fill="#181818" points="266.58,379,267.0435,386.1962,273.8644,388.5361,273.4009,381.3399,266.58,379" style="stroke:#181818;stroke-width:1.0;"/><polygon fill="#181818" points="312.18,438.68,309.8924,429.1005,309.1436,434.7076,303.5365,433.9588,312.18,438.68" style="stroke:#181818;stroke-width:1.0;"/><text fill="#000000" font-family="sans-serif" font-size="13" lengthAdjust="spacing" textLength="25.6572" x="279.8805" y="427.7439">4...+</text></g><!--link TieBreakGame to Point--><g id="link_TieBreakGame_Point"><path codeLine="26" d="M386.1356,388.5361 C372.6456,406.1961 365.0237,416.1731 351.4637,433.9131 " fill="none" id="TieBreakGame-Point" style="stroke:#181818;stroke-width:1.0;"/><polygon fill="#181818" points="393.42,379,386.5991,381.3399,386.1356,388.5361,392.9565,386.1962,393.42,379" style="stroke:#181818;stroke-width:1.0;"/><polygon fill="#181818" points="347.82,438.68,356.4635,433.9588,350.8564,434.7076,350.1076,429.1005,347.82,438.68" style="stroke:#181818;stroke-width:1.0;"/><text fill="#000000" font-family="sans-serif" font-size="13" lengthAdjust="spacing" textLength="25.6572" x="324.2078" y="427.7439">6...+</text></g><!--link Fault to Point--><g id="link_Fault_Point"><path codeLine="28" d="M509.41,371.87 C469.75,391.79 407.4415,423.0965 367.5115,443.1565 " fill="none" id="Fault-to-Point" style="stroke:#181818;stroke-width:1.0;"/><polygon fill="#181818" points="362.15,445.85,371.9878,445.3841,366.6179,443.6054,368.3965,438.2355,362.15,445.85" style="stroke:#181818;stroke-width:1.0;"/><text fill="#000000" font-family="sans-serif" font-size="13" lengthAdjust="spacing" textLength="21.6836" x="369.8159" y="438.3353">0..2</text></g><!--SRC=[NL112i8m4BplAqAEIeEswaayzA0deQWVMD8LIsi3QKI4FjwQ9ZNf9UpEpCxEHZROTUoCHZv0shfey4FQDHUwaoPotLKgJRb2NNg0ZAjE-9nK1jjoq0JGhQ9S4zO1LAYgzSD7V3K6mAPWYwHKxpOvC9vo7sREPFsMs-KpmiUTmK5kS1BckJ4736Q1_qw8TSR7e-3tidq_al5rCHLT2Q4miDu88PRShGqdulL_3TZVcVBobH3fn7q1]--></g></svg>