<svg xmlns="http://www.w3.org/2000/svg" xmlns:xlink="http://www.w3.org/1999/xlink" contentStyleType="text/css" height="888px" preserveAspectRatio="none" style="width:2683px;height:888px;background:#FFFFFF;" version="1.1" viewBox="0 0 2683 888" width="2683px" zoomAndPan="magnify"><defs/><g><!--cluster model--><g id="cluster_model"><path d="M8.5,6 L58.0215,6 A3.75,3.75 0 0 1 60.5215,8.5 L67.5215,28.2969 L889.5,28.2969 A2.5,2.5 0 0 1 892,30.7969 L892,574 A2.5,2.5 0 0 1 889.5,576.5 L8.5,576.5 A2.5,2.5 0 0 1 6,574 L6,8.5 A2.5,2.5 0 0 1 8.5,6 " fill="none" style="stroke:#000000;stroke-width:1.5;"/><line style="stroke:#000000;stroke-width:1.5;" x1="6" x2="67.5215" y1="28.2969" y2="28.2969"/><text fill="#000000" font-family="sans-serif" font-size="14" font-weight="bold" lengthAdjust="spacing" textLength="48.5215" x="10" y="20.9951">model</text></g><!--cluster view--><g id="cluster_view"><path d="M1876.5,38.5 L1913.8535,38.5 A3.75,3.75 0 0 1 1916.3535,41 L1923.3535,60.7969 L2673.5,60.7969 A2.5,2.5 0 0 1 2676,63.2969 L2676,557.5 A2.5,2.5 0 0 1 2673.5,560 L1876.5,560 A2.5,2.5 0 0 1 1874,557.5 L1874,41 A2.5,2.5 0 0 1 1876.5,38.5 " fill="none" style="stroke:#000000;stroke-width:1.5;"/><line style="stroke:#000000;stroke-width:1.5;" x1="1874" x2="1923.3535" y1="60.7969" y2="60.7969"/><text fill="#000000" font-family="sans-serif" font-size="14" font-weight="bold" lengthAdjust="spacing" textLength="36.3535" x="1878" y="53.4951">view</text></g><!--cluster controller--><g id="cluster_controller"><path d="M934.5,331 L1012.5957,331 A3.75,3.75 0 0 1 1015.0957,333.5 L1022.0957,353.2969 L1831.5,353.2969 A2.5,2.5 0 0 1 1834,355.7969 L1834,878.5 A2.5,2.5 0 0 1 1831.5,881 L934.5,881 A2.5,2.5 0 0 1 932,878.5 L932,333.5 A2.5,2.5 0 0 1 934.5,331 " fill="none" style="stroke:#000000;stroke-width:1.5;"/><line style="stroke:#000000;stroke-width:1.5;" x1="932" x2="1022.0957" y1="353.2969" y2="353.2969"/><text fill="#000000" font-family="sans-serif" font-size="14" font-weight="bold" lengthAdjust="spacing" textLength="77.0957" x="936" y="345.9951">controller</text></g><!--class Match--><g id="elem_Match"><rect codeLine="3" fill="#F1F1F1" height="210.9688" id="Match" rx="2.5" ry="2.5" style="stroke:#181818;stroke-width:0.5;" width="193.0977" x="81.5" y="49"/><ellipse cx="152.4399" cy="65" fill="#ADD1B2" rx="11" ry="11" style="stroke:#181818;stroke-width:1.0;"/><path d="M155.4087,70.6406 Q154.8306,70.9375 154.1899,71.0781 Q153.5493,71.2344 152.8462,71.2344 Q150.3462,71.2344 149.0181,69.5938 Q147.7056,67.9375 147.7056,64.8125 Q147.7056,61.6875 149.0181,60.0313 Q150.3462,58.375 152.8462,58.375 Q153.5493,58.375 154.1899,58.5313 Q154.8462,58.6875 155.4087,58.9844 L155.4087,61.7031 Q154.7837,61.125 154.1899,60.8594 Q153.5962,60.5781 152.9712,60.5781 Q151.6274,60.5781 150.9399,61.6563 Q150.2524,62.7188 150.2524,64.8125 Q150.2524,66.9063 150.9399,67.9844 Q151.6274,69.0469 152.9712,69.0469 Q153.5962,69.0469 154.1899,68.7813 Q154.7837,68.5 155.4087,67.9219 L155.4087,70.6406 Z " fill="#000000"/><text fill="#000000" font-family="sans-serif" font-size="14" lengthAdjust="spacing" textLength="42.7178" x="172.9399" y="69.8467">Match</text><line style="stroke:#181818;stroke-width:0.5;" x1="82.5" x2="273.5977" y1="81" y2="81"/><rect fill="none" height="6" style="stroke:#C82930;stroke-width:1.0;" width="6" x="89.5" y="91.6484"/><text fill="#000000" font-family="sans-serif" font-size="14" lengthAdjust="spacing" textLength="69.4805" x="101.5" y="97.9951">Date date</text><rect fill="none" height="6" style="stroke:#C82930;stroke-width:1.0;" width="6" x="89.5" y="107.9453"/><text fill="#000000" font-family="sans-serif" font-size="14" lengthAdjust="spacing" textLength="143.7666" x="101.5" y="114.292">Player playerService</text><rect fill="none" height="6" style="stroke:#C82930;stroke-width:1.0;" width="6" x="89.5" y="124.2422"/><text fill="#000000" font-family="sans-serif" font-size="14" lengthAdjust="spacing" textLength="123.1494" x="101.5" y="130.5889">Player playerRest</text><rect fill="none" height="6" style="stroke:#C82930;stroke-width:1.0;" width="6" x="89.5" y="140.5391"/><text fill="#000000" font-family="sans-serif" font-size="14" lengthAdjust="spacing" textLength="166.9131" x="101.5" y="146.8857">boolean isPlayerService</text><rect fill="none" height="6" style="stroke:#C82930;stroke-width:1.0;" width="6" x="89.5" y="156.8359"/><text fill="#000000" font-family="sans-serif" font-size="14" lengthAdjust="spacing" textLength="138.8652" x="101.5" y="163.1826">Game currentGame</text><line style="stroke:#181818;stroke-width:0.5;" x1="82.5" x2="273.5977" y1="170.4844" y2="170.4844"/><ellipse cx="92.5" cy="184.1328" fill="#84BE84" rx="3" ry="3" style="stroke:#038048;stroke-width:1.0;"/><text fill="#000000" font-family="sans-serif" font-size="14" lengthAdjust="spacing" textLength="115.7461" x="101.5" y="187.4795">startNewGame()</text><ellipse cx="92.5" cy="200.4297" fill="#84BE84" rx="3" ry="3" style="stroke:#038048;stroke-width:1.0;"/><text fill="#000000" font-family="sans-serif" font-size="14" lengthAdjust="spacing" textLength="109.1016" x="101.5" y="203.7764">addSet(Set set)</text><ellipse cx="92.5" cy="216.7266" fill="#84BE84" rx="3" ry="3" style="stroke:#038048;stroke-width:1.0;"/><text fill="#000000" font-family="sans-serif" font-size="14" lengthAdjust="spacing" textLength="163.6387" x="101.5" y="220.0732">isMatchOver(): boolean</text><ellipse cx="92.5" cy="233.0234" fill="#84BE84" rx="3" ry="3" style="stroke:#038048;stroke-width:1.0;"/><text fill="#000000" font-family="sans-serif" font-size="14" lengthAdjust="spacing" textLength="167.0977" x="101.5" y="236.3701">getMatchScore(): String</text><ellipse cx="92.5" cy="249.3203" fill="#84BE84" rx="3" ry="3" style="stroke:#038048;stroke-width:1.0;"/><text fill="#000000" font-family="sans-serif" font-size="14" lengthAdjust="spacing" textLength="93.707" x="101.5" y="252.667">switchRoles()</text></g><!--class Referee--><g id="elem_Referee"><rect codeLine="17" fill="#F1F1F1" height="113.1875" id="Referee" rx="2.5" ry="2.5" style="stroke:#181818;stroke-width:0.5;" width="304.0654" x="322" y="98"/><ellipse cx="442.3501" cy="114" fill="#ADD1B2" rx="11" ry="11" style="stroke:#181818;stroke-width:1.0;"/><path d="M445.3188,119.6406 Q444.7407,119.9375 444.1001,120.0781 Q443.4595,120.2344 442.7563,120.2344 Q440.2563,120.2344 438.9282,118.5938 Q437.6157,116.9375 437.6157,113.8125 Q437.6157,110.6875 438.9282,109.0313 Q440.2563,107.375 442.7563,107.375 Q443.4595,107.375 444.1001,107.5313 Q444.7563,107.6875 445.3188,107.9844 L445.3188,110.7031 Q444.6938,110.125 444.1001,109.8594 Q443.5063,109.5781 442.8813,109.5781 Q441.5376,109.5781 440.8501,110.6563 Q440.1626,111.7188 440.1626,113.8125 Q440.1626,115.9063 440.8501,116.9844 Q441.5376,118.0469 442.8813,118.0469 Q443.5063,118.0469 444.1001,117.7813 Q444.6938,117.5 445.3188,116.9219 L445.3188,119.6406 Z " fill="#000000"/><text fill="#000000" font-family="sans-serif" font-size="14" lengthAdjust="spacing" textLength="54.8652" x="462.8501" y="118.8467">Referee</text><line style="stroke:#181818;stroke-width:0.5;" x1="323" x2="625.0654" y1="130" y2="130"/><rect fill="none" height="6" style="stroke:#C82930;stroke-width:1.0;" width="6" x="330" y="140.6484"/><text fill="#000000" font-family="sans-serif" font-size="14" lengthAdjust="spacing" textLength="35.4785" x="342" y="146.9951">int id</text><rect fill="none" height="6" style="stroke:#C82930;stroke-width:1.0;" width="6" x="330" y="156.9453"/><text fill="#000000" font-family="sans-serif" font-size="14" lengthAdjust="spacing" textLength="85.9346" x="342" y="163.292">String name</text><rect fill="none" height="6" style="stroke:#C82930;stroke-width:1.0;" width="6" x="330" y="173.2422"/><text fill="#000000" font-family="sans-serif" font-size="14" lengthAdjust="spacing" textLength="112.9434" x="342" y="179.5889">String password</text><line style="stroke:#181818;stroke-width:0.5;" x1="323" x2="625.0654" y1="186.8906" y2="186.8906"/><ellipse cx="333" cy="200.5391" fill="#84BE84" rx="3" ry="3" style="stroke:#038048;stroke-width:1.0;"/><text fill="#000000" font-family="sans-serif" font-size="14" lengthAdjust="spacing" textLength="278.0654" x="342" y="203.8857">authenticate(String password): boolean</text></g><!--class Player--><g id="elem_Player"><rect codeLine="25" fill="#F1F1F1" height="113.1875" id="Player" rx="2.5" ry="2.5" style="stroke:#181818;stroke-width:0.5;" width="142.3135" x="707" y="98"/><ellipse cx="752.124" cy="114" fill="#ADD1B2" rx="11" ry="11" style="stroke:#181818;stroke-width:1.0;"/><path d="M755.0928,119.6406 Q754.5146,119.9375 753.874,120.0781 Q753.2334,120.2344 752.5303,120.2344 Q750.0303,120.2344 748.7021,118.5938 Q747.3896,116.9375 747.3896,113.8125 Q747.3896,110.6875 748.7021,109.0313 Q750.0303,107.375 752.5303,107.375 Q753.2334,107.375 753.874,107.5313 Q754.5303,107.6875 755.0928,107.9844 L755.0928,110.7031 Q754.4678,110.125 753.874,109.8594 Q753.2803,109.5781 752.6553,109.5781 Q751.3115,109.5781 750.624,110.6563 Q749.9365,111.7188 749.9365,113.8125 Q749.9365,115.9063 750.624,116.9844 Q751.3115,118.0469 752.6553,118.0469 Q753.2803,118.0469 753.874,117.7813 Q754.4678,117.5 755.0928,116.9219 L755.0928,119.6406 Z " fill="#000000"/><text fill="#000000" font-family="sans-serif" font-size="14" lengthAdjust="spacing" textLength="43.5654" x="772.624" y="118.8467">Player</text><line style="stroke:#181818;stroke-width:0.5;" x1="708" x2="848.3135" y1="130" y2="130"/><rect fill="none" height="6" style="stroke:#C82930;stroke-width:1.0;" width="6" x="715" y="140.6484"/><text fill="#000000" font-family="sans-serif" font-size="14" lengthAdjust="spacing" textLength="35.4785" x="727" y="146.9951">int id</text><rect fill="none" height="6" style="stroke:#C82930;stroke-width:1.0;" width="6" x="715" y="156.9453"/><text fill="#000000" font-family="sans-serif" font-size="14" lengthAdjust="spacing" textLength="85.9346" x="727" y="163.292">String name</text><rect fill="none" height="6" style="stroke:#C82930;stroke-width:1.0;" width="6" x="715" y="173.2422"/><text fill="#000000" font-family="sans-serif" font-size="14" lengthAdjust="spacing" textLength="116.3135" x="727" y="179.5889">int currentPoints</text><line style="stroke:#181818;stroke-width:0.5;" x1="708" x2="848.3135" y1="186.8906" y2="186.8906"/><ellipse cx="718" cy="200.5391" fill="#84BE84" rx="3" ry="3" style="stroke:#038048;stroke-width:1.0;"/><text fill="#000000" font-family="sans-serif" font-size="14" lengthAdjust="spacing" textLength="84.1094" x="727" y="203.8857">scorePoint()</text></g><!--class Set--><g id="elem_Set"><rect codeLine="33" fill="#F1F1F1" height="96.8906" id="Set" rx="2.5" ry="2.5" style="stroke:#181818;stroke-width:0.5;" width="224.707" x="30.5" y="431"/><ellipse cx="127.1089" cy="447" fill="#ADD1B2" rx="11" ry="11" style="stroke:#181818;stroke-width:1.0;"/><path d="M130.0776,452.6406 Q129.4995,452.9375 128.8589,453.0781 Q128.2183,453.2344 127.5151,453.2344 Q125.0151,453.2344 123.687,451.5938 Q122.3745,449.9375 122.3745,446.8125 Q122.3745,443.6875 123.687,442.0313 Q125.0151,440.375 127.5151,440.375 Q128.2183,440.375 128.8589,440.5313 Q129.5151,440.6875 130.0776,440.9844 L130.0776,443.7031 Q129.4526,443.125 128.8589,442.8594 Q128.2651,442.5781 127.6401,442.5781 Q126.2964,442.5781 125.6089,443.6563 Q124.9214,444.7188 124.9214,446.8125 Q124.9214,448.9063 125.6089,449.9844 Q126.2964,451.0469 127.6401,451.0469 Q128.2651,451.0469 128.8589,450.7813 Q129.4526,450.5 130.0776,449.9219 L130.0776,452.6406 Z " fill="#000000"/><text fill="#000000" font-family="sans-serif" font-size="14" lengthAdjust="spacing" textLength="22.9893" x="147.6089" y="451.8467">Set</text><line style="stroke:#181818;stroke-width:0.5;" x1="31.5" x2="254.207" y1="463" y2="463"/><rect fill="none" height="6" style="stroke:#C82930;stroke-width:1.0;" width="6" x="38.5" y="473.6484"/><text fill="#000000" font-family="sans-serif" font-size="14" lengthAdjust="spacing" textLength="198.707" x="50.5" y="479.9951">int playerServiceGamesWon</text><rect fill="none" height="6" style="stroke:#C82930;stroke-width:1.0;" width="6" x="38.5" y="489.9453"/><text fill="#000000" font-family="sans-serif" font-size="14" lengthAdjust="spacing" textLength="178.0898" x="50.5" y="496.292">int playerRestGamesWon</text><line style="stroke:#181818;stroke-width:0.5;" x1="31.5" x2="254.207" y1="503.5938" y2="503.5938"/><ellipse cx="41.5" cy="517.2422" fill="#84BE84" rx="3" ry="3" style="stroke:#038048;stroke-width:1.0;"/><text fill="#000000" font-family="sans-serif" font-size="14" lengthAdjust="spacing" textLength="78.7705" x="50.5" y="520.5889">isSetOver()</text></g><!--class Game--><g id="elem_Game"><rect codeLine="40" fill="#F1F1F1" height="145.7813" id="Game" rx="2.5" ry="2.5" style="stroke:#181818;stroke-width:0.5;" width="278.1436" x="291" y="406.5"/><ellipse cx="404.9824" cy="422.5" fill="#ADD1B2" rx="11" ry="11" style="stroke:#181818;stroke-width:1.0;"/><path d="M407.9512,428.1406 Q407.373,428.4375 406.7324,428.5781 Q406.0918,428.7344 405.3887,428.7344 Q402.8887,428.7344 401.5605,427.0938 Q400.248,425.4375 400.248,422.3125 Q400.248,419.1875 401.5605,417.5313 Q402.8887,415.875 405.3887,415.875 Q406.0918,415.875 406.7324,416.0313 Q407.3887,416.1875 407.9512,416.4844 L407.9512,419.2031 Q407.3262,418.625 406.7324,418.3594 Q406.1387,418.0781 405.5137,418.0781 Q404.1699,418.0781 403.4824,419.1563 Q402.7949,420.2188 402.7949,422.3125 Q402.7949,424.4063 403.4824,425.4844 Q404.1699,426.5469 405.5137,426.5469 Q406.1387,426.5469 406.7324,426.2813 Q407.3262,426 407.9512,425.4219 L407.9512,428.1406 Z " fill="#000000"/><text fill="#000000" font-family="sans-serif" font-size="14" lengthAdjust="spacing" textLength="41.6787" x="425.4824" y="427.3467">Game</text><line style="stroke:#181818;stroke-width:0.5;" x1="292" x2="568.1436" y1="438.5" y2="438.5"/><rect fill="none" height="6" style="stroke:#C82930;stroke-width:1.0;" width="6" x="299" y="449.1484"/><text fill="#000000" font-family="sans-serif" font-size="14" lengthAdjust="spacing" textLength="143.7666" x="311" y="455.4951">Player playerService</text><rect fill="none" height="6" style="stroke:#C82930;stroke-width:1.0;" width="6" x="299" y="465.4453"/><text fill="#000000" font-family="sans-serif" font-size="14" lengthAdjust="spacing" textLength="123.1494" x="311" y="471.792">Player playerRest</text><line style="stroke:#181818;stroke-width:0.5;" x1="292" x2="568.1436" y1="479.0938" y2="479.0938"/><ellipse cx="302" cy="492.7422" fill="#84BE84" rx="3" ry="3" style="stroke:#038048;stroke-width:1.0;"/><text fill="#000000" font-family="sans-serif" font-size="14" lengthAdjust="spacing" textLength="164.5615" x="311" y="496.0889">addPoint(Player player)</text><ellipse cx="302" cy="509.0391" fill="#84BE84" rx="3" ry="3" style="stroke:#038048;stroke-width:1.0;"/><text fill="#000000" font-family="sans-serif" font-size="14" lengthAdjust="spacing" textLength="162.5996" x="311" y="512.3857">isGameOver(): boolean</text><rect fill="#F24D5C" height="6" style="stroke:#C82930;stroke-width:1.0;" width="6" x="299" y="522.3359"/><text fill="#000000" font-family="sans-serif" font-size="14" lengthAdjust="spacing" textLength="252.1436" x="311" y="528.6826">checkGameWinner(Player): boolean</text><rect fill="#F24D5C" height="6" style="stroke:#C82930;stroke-width:1.0;" width="6" x="299" y="538.6328"/><text fill="#000000" font-family="sans-serif" font-size="14" lengthAdjust="spacing" textLength="247.8779" x="311" y="544.9795">getOpponent(Player player): Player</text></g><!--class TieBreakGame--><g id="elem_TieBreakGame"><rect codeLine="50" fill="#F1F1F1" height="129.4844" id="TieBreakGame" rx="2.5" ry="2.5" style="stroke:#181818;stroke-width:0.5;" width="254.6143" x="604.5" y="415"/><ellipse cx="675.8604" cy="431" fill="#ADD1B2" rx="11" ry="11" style="stroke:#181818;stroke-width:1.0;"/><path d="M678.8291,436.6406 Q678.251,436.9375 677.6104,437.0781 Q676.9697,437.2344 676.2666,437.2344 Q673.7666,437.2344 672.4385,435.5938 Q671.126,433.9375 671.126,430.8125 Q671.126,427.6875 672.4385,426.0313 Q673.7666,424.375 676.2666,424.375 Q676.9697,424.375 677.6104,424.5313 Q678.2666,424.6875 678.8291,424.9844 L678.8291,427.7031 Q678.2041,427.125 677.6104,426.8594 Q677.0166,426.5781 676.3916,426.5781 Q675.0479,426.5781 674.3604,427.6563 Q673.6729,428.7188 673.6729,430.8125 Q673.6729,432.9063 674.3604,433.9844 Q675.0479,435.0469 676.3916,435.0469 Q677.0166,435.0469 677.6104,434.7813 Q678.2041,434.5 678.8291,433.9219 L678.8291,436.6406 Z " fill="#000000"/><text fill="#000000" font-family="sans-serif" font-size="14" lengthAdjust="spacing" textLength="103.3936" x="696.3604" y="435.8467">TieBreakGame</text><line style="stroke:#181818;stroke-width:0.5;" x1="605.5" x2="858.1143" y1="447" y2="447"/><rect fill="none" height="6" style="stroke:#C82930;stroke-width:1.0;" width="6" x="612.5" y="457.6484"/><text fill="#000000" font-family="sans-serif" font-size="14" lengthAdjust="spacing" textLength="161.0068" x="624.5" y="463.9951">int playerServicePoints</text><rect fill="none" height="6" style="stroke:#C82930;stroke-width:1.0;" width="6" x="612.5" y="473.9453"/><text fill="#000000" font-family="sans-serif" font-size="14" lengthAdjust="spacing" textLength="140.3896" x="624.5" y="480.292">int playerRestPoints</text><line style="stroke:#181818;stroke-width:0.5;" x1="605.5" x2="858.1143" y1="487.5938" y2="487.5938"/><ellipse cx="615.5" cy="501.2422" fill="#84BE84" rx="3" ry="3" style="stroke:#038048;stroke-width:1.0;"/><text fill="#000000" font-family="sans-serif" font-size="14" lengthAdjust="spacing" textLength="164.5615" x="624.5" y="504.5889">addPoint(Player player)</text><ellipse cx="615.5" cy="517.5391" fill="#84BE84" rx="3" ry="3" style="stroke:#038048;stroke-width:1.0;"/><text fill="#000000" font-family="sans-serif" font-size="14" lengthAdjust="spacing" textLength="228.6143" x="624.5" y="520.8857">checkTieBreakWinner(): boolean</text><ellipse cx="615.5" cy="533.8359" fill="#84BE84" rx="3" ry="3" style="stroke:#038048;stroke-width:1.0;"/><text fill="#000000" font-family="sans-serif" font-size="14" lengthAdjust="spacing" textLength="124.3799" x="624.5" y="537.1826">getScore(): String</text></g><!--class MatchView--><g id="elem_MatchView"><rect codeLine="61" fill="#F1F1F1" height="145.7813" id="MatchView" rx="2.5" ry="2.5" style="stroke:#181818;stroke-width:0.5;" width="393.4795" x="1917.5" y="81.5"/><ellipse cx="2071.8657" cy="97.5" fill="#ADD1B2" rx="11" ry="11" style="stroke:#181818;stroke-width:1.0;"/><path d="M2074.8345,103.1406 Q2074.2563,103.4375 2073.6157,103.5781 Q2072.9751,103.7344 2072.272,103.7344 Q2069.772,103.7344 2068.4438,102.0938 Q2067.1313,100.4375 2067.1313,97.3125 Q2067.1313,94.1875 2068.4438,92.5313 Q2069.772,90.875 2072.272,90.875 Q2072.9751,90.875 2073.6157,91.0313 Q2074.272,91.1875 2074.8345,91.4844 L2074.8345,94.2031 Q2074.2095,93.625 2073.6157,93.3594 Q2073.022,93.0781 2072.397,93.0781 Q2071.0532,93.0781 2070.3657,94.1563 Q2069.6782,95.2188 2069.6782,97.3125 Q2069.6782,99.4063 2070.3657,100.4844 Q2071.0532,101.5469 2072.397,101.5469 Q2073.022,101.5469 2073.6157,101.2813 Q2074.2095,101 2074.8345,100.4219 L2074.8345,103.1406 Z " fill="#000000"/><text fill="#000000" font-family="sans-serif" font-size="14" lengthAdjust="spacing" textLength="76.248" x="2092.3657" y="102.3467">MatchView</text><line style="stroke:#181818;stroke-width:0.5;" x1="1918.5" x2="2309.9795" y1="113.5" y2="113.5"/><line style="stroke:#181818;stroke-width:0.5;" x1="1918.5" x2="2309.9795" y1="121.5" y2="121.5"/><ellipse cx="1928.5" cy="135.1484" fill="#84BE84" rx="3" ry="3" style="stroke:#038048;stroke-width:1.0;"/><text fill="#000000" font-family="sans-serif" font-size="14" lengthAdjust="spacing" textLength="362.332" x="1937.5" y="138.4951">displayInitialMatch(ScoreController scoreController)</text><ellipse cx="1928.5" cy="151.4453" fill="#84BE84" rx="3" ry="3" style="stroke:#038048;stroke-width:1.0;"/><text fill="#000000" font-family="sans-serif" font-size="14" lengthAdjust="spacing" textLength="363.1113" x="1937.5" y="154.792">displayMatchScore(ScoreController scoreController)</text><ellipse cx="1928.5" cy="167.7422" fill="#84BE84" rx="3" ry="3" style="stroke:#038048;stroke-width:1.0;"/><text fill="#000000" font-family="sans-serif" font-size="14" lengthAdjust="spacing" textLength="367.4795" x="1937.5" y="171.0889">displayMatchResult(ScoreController scoreController)</text><ellipse cx="1928.5" cy="184.0391" fill="#84BE84" rx="3" ry="3" style="stroke:#038048;stroke-width:1.0;"/><text fill="#000000" font-family="sans-serif" font-size="14" lengthAdjust="spacing" textLength="251.9385" x="1937.5" y="187.3857">displayPlayerCreated(Player player)</text><ellipse cx="1928.5" cy="200.3359" fill="#84BE84" rx="3" ry="3" style="stroke:#038048;stroke-width:1.0;"/><text fill="#000000" font-family="sans-serif" font-size="14" lengthAdjust="spacing" textLength="117.2979" x="1937.5" y="203.6826">displaySetOver()</text><ellipse cx="1928.5" cy="216.6328" fill="#84BE84" rx="3" ry="3" style="stroke:#038048;stroke-width:1.0;"/><text fill="#000000" font-family="sans-serif" font-size="14" lengthAdjust="spacing" textLength="131.5645" x="1937.5" y="219.9795">displayMatchOver(</text></g><!--class RefereeView--><g id="elem_RefereeView"><rect codeLine="71" fill="#F1F1F1" height="80.5938" id="RefereeView" rx="2.5" ry="2.5" style="stroke:#181818;stroke-width:0.5;" width="307.4219" x="2345.5" y="114"/><ellipse cx="2450.7632" cy="130" fill="#ADD1B2" rx="11" ry="11" style="stroke:#181818;stroke-width:1.0;"/><path d="M2453.7319,135.6406 Q2453.1538,135.9375 2452.5132,136.0781 Q2451.8726,136.2344 2451.1694,136.2344 Q2448.6694,136.2344 2447.3413,134.5938 Q2446.0288,132.9375 2446.0288,129.8125 Q2446.0288,126.6875 2447.3413,125.0313 Q2448.6694,123.375 2451.1694,123.375 Q2451.8726,123.375 2452.5132,123.5313 Q2453.1694,123.6875 2453.7319,123.9844 L2453.7319,126.7031 Q2453.1069,126.125 2452.5132,125.8594 Q2451.9194,125.5781 2451.2944,125.5781 Q2449.9507,125.5781 2449.2632,126.6563 Q2448.5757,127.7188 2448.5757,129.8125 Q2448.5757,131.9063 2449.2632,132.9844 Q2449.9507,134.0469 2451.2944,134.0469 Q2451.9194,134.0469 2452.5132,133.7813 Q2453.1069,133.5 2453.7319,132.9219 L2453.7319,135.6406 Z " fill="#000000"/><text fill="#000000" font-family="sans-serif" font-size="14" lengthAdjust="spacing" textLength="88.3955" x="2471.2632" y="134.8467">RefereeView</text><line style="stroke:#181818;stroke-width:0.5;" x1="2346.5" x2="2651.9219" y1="146" y2="146"/><line style="stroke:#181818;stroke-width:0.5;" x1="2346.5" x2="2651.9219" y1="154" y2="154"/><ellipse cx="2356.5" cy="167.6484" fill="#84BE84" rx="3" ry="3" style="stroke:#038048;stroke-width:1.0;"/><text fill="#000000" font-family="sans-serif" font-size="14" lengthAdjust="spacing" textLength="281.4219" x="2365.5" y="170.9951">displayRefereeCreated(Referee referee)</text><ellipse cx="2356.5" cy="183.9453" fill="#84BE84" rx="3" ry="3" style="stroke:#038048;stroke-width:1.0;"/><text fill="#000000" font-family="sans-serif" font-size="14" lengthAdjust="spacing" textLength="258.4463" x="2365.5" y="187.292">displayLoginStatus(boolean success)</text></g><!--class ScoreView--><g id="elem_ScoreView"><rect codeLine="77" fill="#F1F1F1" height="113.1875" id="ScoreView" rx="2.5" ry="2.5" style="stroke:#181818;stroke-width:0.5;" width="328.6885" x="1949.5" y="423"/><ellipse cx="2073.0698" cy="439" fill="#ADD1B2" rx="11" ry="11" style="stroke:#181818;stroke-width:1.0;"/><path d="M2076.0386,444.6406 Q2075.4604,444.9375 2074.8198,445.0781 Q2074.1792,445.2344 2073.4761,445.2344 Q2070.9761,445.2344 2069.6479,443.5938 Q2068.3354,441.9375 2068.3354,438.8125 Q2068.3354,435.6875 2069.6479,434.0313 Q2070.9761,432.375 2073.4761,432.375 Q2074.1792,432.375 2074.8198,432.5313 Q2075.4761,432.6875 2076.0386,432.9844 L2076.0386,435.7031 Q2075.4136,435.125 2074.8198,434.8594 Q2074.2261,434.5781 2073.6011,434.5781 Q2072.2573,434.5781 2071.5698,435.6563 Q2070.8823,436.7188 2070.8823,438.8125 Q2070.8823,440.9063 2071.5698,441.9844 Q2072.2573,443.0469 2073.6011,443.0469 Q2074.2261,443.0469 2074.8198,442.7813 Q2075.4136,442.5 2076.0386,441.9219 L2076.0386,444.6406 Z " fill="#000000"/><text fill="#000000" font-family="sans-serif" font-size="14" lengthAdjust="spacing" textLength="73.0488" x="2093.5698" y="443.8467">ScoreView</text><line style="stroke:#181818;stroke-width:0.5;" x1="1950.5" x2="2277.1885" y1="455" y2="455"/><line style="stroke:#181818;stroke-width:0.5;" x1="1950.5" x2="2277.1885" y1="463" y2="463"/><ellipse cx="1960.5" cy="476.6484" fill="#84BE84" rx="3" ry="3" style="stroke:#038048;stroke-width:1.0;"/><text fill="#000000" font-family="sans-serif" font-size="14" lengthAdjust="spacing" textLength="302.6885" x="1969.5" y="479.9951">displayPointToServer(Player playerService)</text><ellipse cx="1960.5" cy="492.9453" fill="#84BE84" rx="3" ry="3" style="stroke:#038048;stroke-width:1.0;"/><text fill="#000000" font-family="sans-serif" font-size="14" lengthAdjust="spacing" textLength="297.3564" x="1969.5" y="496.292">displayPointToReceiver(Player playerRest)</text><ellipse cx="1960.5" cy="509.2422" fill="#84BE84" rx="3" ry="3" style="stroke:#038048;stroke-width:1.0;"/><text fill="#000000" font-family="sans-serif" font-size="14" lengthAdjust="spacing" textLength="288.3262" x="1969.5" y="512.5889">displayLackService(Player playerService)</text><ellipse cx="1960.5" cy="525.5391" fill="#84BE84" rx="3" ry="3" style="stroke:#038048;stroke-width:1.0;"/><text fill="#000000" font-family="sans-serif" font-size="14" lengthAdjust="spacing" textLength="135.9873" x="1969.5" y="528.8857">displayGameOver()</text></g><!--class MatchController--><g id="elem_MatchController"><rect codeLine="88" fill="#F1F1F1" height="210.9688" id="MatchController" rx="2.5" ry="2.5" style="stroke:#181818;stroke-width:0.5;" width="494.1797" x="975" y="374"/><ellipse cx="1161.8945" cy="390" fill="#ADD1B2" rx="11" ry="11" style="stroke:#181818;stroke-width:1.0;"/><path d="M1164.8633,395.6406 Q1164.2852,395.9375 1163.6445,396.0781 Q1163.0039,396.2344 1162.3008,396.2344 Q1159.8008,396.2344 1158.4727,394.5938 Q1157.1602,392.9375 1157.1602,389.8125 Q1157.1602,386.6875 1158.4727,385.0313 Q1159.8008,383.375 1162.3008,383.375 Q1163.0039,383.375 1163.6445,383.5313 Q1164.3008,383.6875 1164.8633,383.9844 L1164.8633,386.7031 Q1164.2383,386.125 1163.6445,385.8594 Q1163.0508,385.5781 1162.4258,385.5781 Q1161.082,385.5781 1160.3945,386.6563 Q1159.707,387.7188 1159.707,389.8125 Q1159.707,391.9063 1160.3945,392.9844 Q1161.082,394.0469 1162.4258,394.0469 Q1163.0508,394.0469 1163.6445,393.7813 Q1164.2383,393.5 1164.8633,392.9219 L1164.8633,395.6406 Z " fill="#000000"/><text fill="#000000" font-family="sans-serif" font-size="14" lengthAdjust="spacing" textLength="111.8906" x="1182.3945" y="394.8467">MatchController</text><line style="stroke:#181818;stroke-width:0.5;" x1="976" x2="1468.1797" y1="406" y2="406"/><rect fill="none" height="6" style="stroke:#C82930;stroke-width:1.0;" width="6" x="983" y="416.6484"/><text fill="#000000" font-family="sans-serif" font-size="14" lengthAdjust="spacing" textLength="220.2402" x="995" y="422.9951">ScoreController scoreController</text><rect fill="none" height="6" style="stroke:#C82930;stroke-width:1.0;" width="6" x="983" y="432.9453"/><text fill="#000000" font-family="sans-serif" font-size="14" lengthAdjust="spacing" textLength="158.5049" x="995" y="439.292">MatchView matchView</text><rect fill="none" height="6" style="stroke:#C82930;stroke-width:1.0;" width="6" x="983" y="449.2422"/><text fill="#000000" font-family="sans-serif" font-size="14" lengthAdjust="spacing" textLength="148.9551" x="995" y="455.5889">ScoreView scoreView</text><rect fill="none" height="6" style="stroke:#C82930;stroke-width:1.0;" width="6" x="983" y="465.5391"/><text fill="#000000" font-family="sans-serif" font-size="14" lengthAdjust="spacing" textLength="91.4443" x="995" y="471.8857">Match match</text><line style="stroke:#181818;stroke-width:0.5;" x1="976" x2="1468.1797" y1="479.1875" y2="479.1875"/><ellipse cx="986" cy="492.8359" fill="#84BE84" rx="3" ry="3" style="stroke:#038048;stroke-width:1.0;"/><text fill="#000000" font-family="sans-serif" font-size="14" lengthAdjust="spacing" textLength="468.1797" x="995" y="496.1826">createMatch(int totalSets, Player playerCurrent, Player playerPast)</text><ellipse cx="986" cy="509.1328" fill="#84BE84" rx="3" ry="3" style="stroke:#038048;stroke-width:1.0;"/><text fill="#000000" font-family="sans-serif" font-size="14" lengthAdjust="spacing" textLength="115.3701" x="995" y="512.4795">getInitialMatch()</text><ellipse cx="986" cy="525.4297" fill="#84BE84" rx="3" ry="3" style="stroke:#038048;stroke-width:1.0;"/><text fill="#000000" font-family="sans-serif" font-size="14" lengthAdjust="spacing" textLength="167.7539" x="995" y="528.7764">getDisplayMatchScore()</text><ellipse cx="986" cy="541.7266" fill="#84BE84" rx="3" ry="3" style="stroke:#038048;stroke-width:1.0;"/><text fill="#000000" font-family="sans-serif" font-size="14" lengthAdjust="spacing" textLength="90.9385" x="995" y="545.0732">lackService()</text><ellipse cx="986" cy="558.0234" fill="#84BE84" rx="3" ry="3" style="stroke:#038048;stroke-width:1.0;"/><text fill="#000000" font-family="sans-serif" font-size="14" lengthAdjust="spacing" textLength="98.3691" x="995" y="561.3701">pointService()</text><ellipse cx="986" cy="574.3203" fill="#84BE84" rx="3" ry="3" style="stroke:#038048;stroke-width:1.0;"/><text fill="#000000" font-family="sans-serif" font-size="14" lengthAdjust="spacing" textLength="77.752" x="995" y="577.667">pointRest()</text></g><!--class PlayerController--><g id="elem_PlayerController"><rect codeLine="102" fill="#F1F1F1" height="113.1875" id="PlayerController" rx="2.5" ry="2.5" style="stroke:#181818;stroke-width:0.5;" width="305.248" x="1504.5" y="423"/><ellipse cx="1596.5049" cy="439" fill="#ADD1B2" rx="11" ry="11" style="stroke:#181818;stroke-width:1.0;"/><path d="M1599.4736,444.6406 Q1598.8955,444.9375 1598.2549,445.0781 Q1597.6143,445.2344 1596.9111,445.2344 Q1594.4111,445.2344 1593.083,443.5938 Q1591.7705,441.9375 1591.7705,438.8125 Q1591.7705,435.6875 1593.083,434.0313 Q1594.4111,432.375 1596.9111,432.375 Q1597.6143,432.375 1598.2549,432.5313 Q1598.9111,432.6875 1599.4736,432.9844 L1599.4736,435.7031 Q1598.8486,435.125 1598.2549,434.8594 Q1597.6611,434.5781 1597.0361,434.5781 Q1595.6924,434.5781 1595.0049,435.6563 Q1594.3174,436.7188 1594.3174,438.8125 Q1594.3174,440.9063 1595.0049,441.9844 Q1595.6924,443.0469 1597.0361,443.0469 Q1597.6611,443.0469 1598.2549,442.7813 Q1598.8486,442.5 1599.4736,441.9219 L1599.4736,444.6406 Z " fill="#000000"/><text fill="#000000" font-family="sans-serif" font-size="14" lengthAdjust="spacing" textLength="112.7383" x="1617.0049" y="443.8467">PlayerController</text><line style="stroke:#181818;stroke-width:0.5;" x1="1505.5" x2="1808.748" y1="455" y2="455"/><rect fill="none" height="6" style="stroke:#C82930;stroke-width:1.0;" width="6" x="1512.5" y="465.6484"/><text fill="#000000" font-family="sans-serif" font-size="14" lengthAdjust="spacing" textLength="147.2529" x="1524.5" y="471.9951">List&lt;Player&gt; players</text><line style="stroke:#181818;stroke-width:0.5;" x1="1505.5" x2="1808.748" y1="479.2969" y2="479.2969"/><ellipse cx="1515.5" cy="492.9453" fill="#84BE84" rx="3" ry="3" style="stroke:#038048;stroke-width:1.0;"/><text fill="#000000" font-family="sans-serif" font-size="14" lengthAdjust="spacing" textLength="237.9043" x="1524.5" y="496.292">createPlayer(String name): Player</text><ellipse cx="1515.5" cy="509.2422" fill="#84BE84" rx="3" ry="3" style="stroke:#038048;stroke-width:1.0;"/><text fill="#000000" font-family="sans-serif" font-size="14" lengthAdjust="spacing" textLength="279.248" x="1524.5" y="512.5889">getPlayerById(int id): Optional&lt;Player&gt;</text><ellipse cx="1515.5" cy="525.5391" fill="#84BE84" rx="3" ry="3" style="stroke:#038048;stroke-width:1.0;"/><text fill="#000000" font-family="sans-serif" font-size="14" lengthAdjust="spacing" textLength="185.4385" x="1524.5" y="528.8857">getPlayers(): List&lt;Player&gt;</text></g><!--class RefereeController--><g id="elem_RefereeController"><rect codeLine="110" fill="#F1F1F1" height="113.1875" id="RefereeController" rx="2.5" ry="2.5" style="stroke:#181818;stroke-width:0.5;" width="408.3477" x="1018" y="695"/><ellipse cx="1155.9048" cy="711" fill="#ADD1B2" rx="11" ry="11" style="stroke:#181818;stroke-width:1.0;"/><path d="M1158.8735,716.6406 Q1158.2954,716.9375 1157.6548,717.0781 Q1157.0142,717.2344 1156.311,717.2344 Q1153.811,717.2344 1152.4829,715.5938 Q1151.1704,713.9375 1151.1704,710.8125 Q1151.1704,707.6875 1152.4829,706.0313 Q1153.811,704.375 1156.311,704.375 Q1157.0142,704.375 1157.6548,704.5313 Q1158.311,704.6875 1158.8735,704.9844 L1158.8735,707.7031 Q1158.2485,707.125 1157.6548,706.8594 Q1157.061,706.5781 1156.436,706.5781 Q1155.0923,706.5781 1154.4048,707.6563 Q1153.7173,708.7188 1153.7173,710.8125 Q1153.7173,712.9063 1154.4048,713.9844 Q1155.0923,715.0469 1156.436,715.0469 Q1157.061,715.0469 1157.6548,714.7813 Q1158.2485,714.5 1158.8735,713.9219 L1158.8735,716.6406 Z " fill="#000000"/><text fill="#000000" font-family="sans-serif" font-size="14" lengthAdjust="spacing" textLength="124.0381" x="1176.4048" y="715.8467">RefereeController</text><line style="stroke:#181818;stroke-width:0.5;" x1="1019" x2="1425.3477" y1="727" y2="727"/><rect fill="none" height="6" style="stroke:#C82930;stroke-width:1.0;" width="6" x="1026" y="737.6484"/><text fill="#000000" font-family="sans-serif" font-size="14" lengthAdjust="spacing" textLength="165.4365" x="1038" y="743.9951">List&lt;Referee&gt; referees</text><line style="stroke:#181818;stroke-width:0.5;" x1="1019" x2="1425.3477" y1="751.2969" y2="751.2969"/><ellipse cx="1029" cy="764.9453" fill="#84BE84" rx="3" ry="3" style="stroke:#038048;stroke-width:1.0;"/><text fill="#000000" font-family="sans-serif" font-size="14" lengthAdjust="spacing" textLength="382.3477" x="1038" y="768.292">createReferee(String name, String password): Referee</text><ellipse cx="1029" cy="781.2422" fill="#84BE84" rx="3" ry="3" style="stroke:#038048;stroke-width:1.0;"/><text fill="#000000" font-family="sans-serif" font-size="14" lengthAdjust="spacing" textLength="317.9463" x="1038" y="784.5889">login(String name, String password): boolean</text><rect fill="#F24D5C" height="6" style="stroke:#C82930;stroke-width:1.0;" width="6" x="1026" y="794.5391"/><text fill="#000000" font-family="sans-serif" font-size="14" lengthAdjust="spacing" textLength="296.584" x="1038" y="800.8857">isDuplicate(String name, String password)</text></g><!--class ScoreController--><g id="elem_ScoreController"><rect codeLine="118" fill="#F1F1F1" height="210.9688" id="ScoreController" rx="2.5" ry="2.5" style="stroke:#181818;stroke-width:0.5;" width="257.9092" x="1461" y="646"/><ellipse cx="1531.3589" cy="662" fill="#ADD1B2" rx="11" ry="11" style="stroke:#181818;stroke-width:1.0;"/><path d="M1534.3276,667.6406 Q1533.7495,667.9375 1533.1089,668.0781 Q1532.4683,668.2344 1531.7651,668.2344 Q1529.2651,668.2344 1527.937,666.5938 Q1526.6245,664.9375 1526.6245,661.8125 Q1526.6245,658.6875 1527.937,657.0313 Q1529.2651,655.375 1531.7651,655.375 Q1532.4683,655.375 1533.1089,655.5313 Q1533.7651,655.6875 1534.3276,655.9844 L1534.3276,658.7031 Q1533.7026,658.125 1533.1089,657.8594 Q1532.5151,657.5781 1531.8901,657.5781 Q1530.5464,657.5781 1529.8589,658.6563 Q1529.1714,659.7188 1529.1714,661.8125 Q1529.1714,663.9063 1529.8589,664.9844 Q1530.5464,666.0469 1531.8901,666.0469 Q1532.5151,666.0469 1533.1089,665.7813 Q1533.7026,665.5 1534.3276,664.9219 L1534.3276,667.6406 Z " fill="#000000"/><text fill="#000000" font-family="sans-serif" font-size="14" lengthAdjust="spacing" textLength="108.6914" x="1551.8589" y="666.8467">ScoreController</text><line style="stroke:#181818;stroke-width:0.5;" x1="1462" x2="1717.9092" y1="678" y2="678"/><rect fill="none" height="6" style="stroke:#C82930;stroke-width:1.0;" width="6" x="1469" y="688.6484"/><text fill="#000000" font-family="sans-serif" font-size="14" lengthAdjust="spacing" textLength="91.4443" x="1481" y="694.9951">Match match</text><rect fill="none" height="6" style="stroke:#C82930;stroke-width:1.0;" width="6" x="1469" y="704.9453"/><text fill="#000000" font-family="sans-serif" font-size="14" lengthAdjust="spacing" textLength="144.9834" x="1481" y="711.292">Player currentServer</text><rect fill="none" height="6" style="stroke:#C82930;stroke-width:1.0;" width="6" x="1469" y="721.2422"/><text fill="#000000" font-family="sans-serif" font-size="14" lengthAdjust="spacing" textLength="143.7666" x="1481" y="727.5889">Player playerService</text><rect fill="none" height="6" style="stroke:#C82930;stroke-width:1.0;" width="6" x="1469" y="737.5391"/><text fill="#000000" font-family="sans-serif" font-size="14" lengthAdjust="spacing" textLength="144.293" x="1481" y="743.8857">int lackServiceCount</text><line style="stroke:#181818;stroke-width:0.5;" x1="1462" x2="1717.9092" y1="751.1875" y2="751.1875"/><ellipse cx="1472" cy="764.8359" fill="#84BE84" rx="3" ry="3" style="stroke:#038048;stroke-width:1.0;"/><text fill="#000000" font-family="sans-serif" font-size="14" lengthAdjust="spacing" textLength="231.9092" x="1481" y="768.1826">checkGameEndAndSwitchRoles()</text><ellipse cx="1472" cy="781.1328" fill="#84BE84" rx="3" ry="3" style="stroke:#038048;stroke-width:1.0;"/><text fill="#000000" font-family="sans-serif" font-size="14" lengthAdjust="spacing" textLength="98.3691" x="1481" y="784.4795">pointService()</text><ellipse cx="1472" cy="797.4297" fill="#84BE84" rx="3" ry="3" style="stroke:#038048;stroke-width:1.0;"/><text fill="#000000" font-family="sans-serif" font-size="14" lengthAdjust="spacing" textLength="77.752" x="1481" y="800.7764">pointRest()</text><ellipse cx="1472" cy="813.7266" fill="#84BE84" rx="3" ry="3" style="stroke:#038048;stroke-width:1.0;"/><text fill="#000000" font-family="sans-serif" font-size="14" lengthAdjust="spacing" textLength="90.9385" x="1481" y="817.0732">lackService()</text><ellipse cx="1472" cy="830.0234" fill="#84BE84" rx="3" ry="3" style="stroke:#038048;stroke-width:1.0;"/><text fill="#000000" font-family="sans-serif" font-size="14" lengthAdjust="spacing" textLength="162.5996" x="1481" y="833.3701">isGameOver(): boolean</text><rect fill="#F24D5C" height="6" style="stroke:#C82930;stroke-width:1.0;" width="6" x="1469" y="843.3203"/><text fill="#000000" font-family="sans-serif" font-size="14" lengthAdjust="spacing" textLength="153.2959" x="1481" y="849.667">givePointToOponent()</text></g><!--link controller to model--><g id="link_controller_model"><path codeLine="134" d="M955.3292,330.432 C955.3444,329.8489 955.3583,329.2688 955.3711,328.6917 C955.4219,326.3834 955.4532,324.1244 955.4632,321.9221 C955.4833,317.5173 955.4184,313.3393 955.2555,309.4472 C954.9298,301.663 954.2125,295.0225 953,290 C945.235,257.855 928.3975,224.77 913.3,199.4575 C905.7513,186.8012 898.6375,176.0881 893.3103,168.4072 C892.9774,167.9271 892.6514,167.4589 892.3327,167.0028 C892.2531,166.8888 895.6144,171.6911 895.5356,171.5786 " fill="none" id="controller-to-model" style="stroke:#181818;stroke-width:1.0;stroke-dasharray:7.0,7.0;"/><polygon fill="#181818" points="892.0951,166.663,893.9788,176.33,894.9622,170.7593,900.5329,171.7427,892.0951,166.663" style="stroke:#181818;stroke-width:1.0;"/><text fill="#000000" font-family="sans-serif" font-size="13" lengthAdjust="spacing" textLength="49.7021" x="956" y="303.0669">request</text></g><!--link model to controller--><g id="link_model_controller"><path codeLine="137" d="M892.0369,201.87 C892.3498,203.6749 892.6696,205.5197 892.9959,207.4022 C898.2175,237.5212 905.1088,277.2687 912,317.015 C918.8913,356.7613 925.7825,396.5063 931.0041,426.6203 C931.3304,428.5024 930.6252,424.4352 930.9381,426.2397 " fill="none" id="model-to-controller" style="stroke:#181818;stroke-width:1.0;stroke-dasharray:7.0,7.0;"/><polygon fill="#181818" points="931.9631,432.1515,934.3667,422.6004,931.1089,427.225,926.4843,423.9672,931.9631,432.1515" style="stroke:#181818;stroke-width:1.0;"/><text fill="#000000" font-family="sans-serif" font-size="13" lengthAdjust="spacing" textLength="31.2622" x="910" y="303.0669">send</text></g><!--link controller to view--><g id="link_controller_view"><path codeLine="135" d="M931.9597,441.4138 C931.9247,441.1845 931.8899,440.9545 931.8552,440.7238 C931.7164,439.8009 931.5802,438.8666 931.4471,437.9216 C930.3817,430.3616 929.5094,422.1166 929.0625,413.5213 C927.275,379.14 932.295,339.155 959,315 C969.67,305.35 1462.86,309.67 1477,307 C1569.945,289.445 1669.5075,252.47 1746.6575,219.4438 C1785.2325,202.9306 1818.2044,187.4047 1841.9444,175.787 C1853.8144,169.9782 1863.3764,165.1464 1870.1769,161.6569 C1871.0269,161.2207 1871.8338,160.8055 1872.5967,160.4119 C1872.9782,160.2152 1868.0192,162.7802 1868.3785,162.5944 " fill="none" id="controller-to-view" style="stroke:#181818;stroke-width:1.0;stroke-dasharray:7.0,7.0;"/><polygon fill="#181818" points="1873.7079,159.838,1863.8762,160.4197,1869.2667,162.135,1867.5514,167.5255,1873.7079,159.838" style="stroke:#181818;stroke-width:1.0;"/><text fill="#000000" font-family="sans-serif" font-size="13" lengthAdjust="spacing" textLength="46.1602" x="1546" y="303.0669">display</text></g><!--link view to controller--><g id="link_view_controller"><path codeLine="136" d="M1873.5785,157.0668 C1873.0265,157.1691 1872.4484,157.2762 1871.8442,157.3882 C1870.6359,157.612 1869.3238,157.8551 1867.9099,158.1168 C1865.0821,158.6402 1861.8475,159.2385 1858.2231,159.908 C1843.7256,162.5861 1822.9924,166.4051 1797.1223,171.1408 C1745.3822,180.6122 1673.0944,193.7506 1589.0488,208.7637 C1420.9575,238.79 1205.835,276.315 1014,307 C1001.8,308.95 967.61,306.14 959,315 C933.91,340.825 928.915,380.835 930.3125,414.8113 C930.4872,419.0583 930.7618,423.211 931.1094,427.23 C931.2833,429.2395 931.4754,431.2156 931.6825,433.1532 C931.7342,433.6377 931.7869,434.1197 931.8405,434.5992 C931.8673,434.839 931.2139,429.1169 931.2412,429.3554 " fill="none" id="view-to-controller" style="stroke:#181818;stroke-width:1.0;stroke-dasharray:7.0,7.0;"/><polygon fill="#181818" points="931.9215,435.3167,934.8752,425.9211,931.3546,430.3489,926.9268,426.8283,931.9215,435.3167" style="stroke:#181818;stroke-width:1.0;"/><text fill="#000000" font-family="sans-serif" font-size="13" lengthAdjust="spacing" textLength="49.7021" x="1109" y="303.0669">request</text></g><!--SRC=[dLPPQnin47xthn1vMfFZ1vWIQ9nI0cbjxD0ygzgf8xAHjf8s9eJyz-eOhQMLSZG6swivDDStCzjJTaztG8uUP0lT4NcUpOZzi8vgJNvGm-uioL5EoIKrG5hxW-TrHvz0aTx_RK4zSbPbRK0RfF-MiWCg2DVhYjPt-W243Kg1CEuvk79CjA7A_8IzepLp9DAstO9fx9TeC97AjVTvzGYgcI-YFMJkm7Zkbaa5ZhqrYejTjBBdbhUn2XgDlAIvsC0VK01ZDhWmXBTu21SHuPpEABrLtKlLnb3eOEviT9pPD3OJcOc_cNLCw0UDEpRcSItjGO-PT95xKYr4bylKGbPPbtnzAqN1T-KTcMCPx5sX2AKPN-Rdpu3eKFeGGoPnW80pK4F0AM5tmEuT-vOBOGN21OMO1SggxwM0miO2lIgZkk5meO3UPz4LMSHor7AOL-hj67qSqIB6KeDx3UalC-jt7zl-aSF-2FrDclwN9STPS4nQhftzAy4DfvqNQFpLIocCabrd7TJvUPwh9dtt2KMRdg4p_waP4hUq6JBGrjE8aZbMSzEUWNbpl-L4m5IDp54V-T63E41K-9yOkvOxBhQ6ca4tSKhgWJ7GUbutxxFngd4FdXlfO3VYF8VYlAgm0GQyK77ud3fi4OGtVUJwGq-cqQH8P6CXAtXCgXvxwnqqeDG1pG_nATNt71sVKfqW7pk0-I86vBksDTBGpk96d-HZQXccxeIwfeVqsQxC-YYXNnQz4fbTakn8wrt1gaHNhThWnOueKtdDjVaIkEVeiiuZ3ymcMJNvAFJ-X_F5qrNRX0LbPLQzuLBGBbu_bTPkEgNsNzsyh_cDxFFOM1FFaPswVaBApOjYCT-k6zzJoNS6rvT3tsMBlQvOsRiJ93zNS9YjHDpjeRdVNwIk60c2bd8GuouTD-8tqNuLxRPu2VeWqEeOVMiNx-oOmQ6pmbqxdnqsL3OFpixEnpVKXItqty6z3fGYOPijuj2P8S7pKk7a3hor8g91jFy0]--></g></svg>