<svg xmlns="http://www.w3.org/2000/svg" xmlns:xlink="http://www.w3.org/1999/xlink" contentStyleType="text/css" height="518.5px" preserveAspectRatio="none" style="width:868px;height:518px;background:#FFFFFF;" version="1.1" viewBox="0 0 868 518" width="868px" zoomAndPan="magnify"><defs/><g><!--cluster model--><g id="cluster_model"><path d="M4.25,12.2568 L25.3638,12.2568 A1.875,1.875 0 0 1 26.6138,13.5068 L30.1138,24.5674 L407.75,24.5674 A1.25,1.25 0 0 1 409,25.8174 L409,333.7568 A1.25,1.25 0 0 1 407.75,335.0068 L4.25,335.0068 A1.25,1.25 0 0 1 3,333.7568 L3,13.5068 A1.25,1.25 0 0 1 4.25,12.2568 " fill="none" style="stroke:#000000;stroke-width:0.75;"/><line style="stroke:#000000;stroke-width:0.75;" x1="3" x2="30.1138" y1="24.5674" y2="24.5674"/><text fill="#000000" font-family="sans-serif" font-size="7" font-weight="bold" lengthAdjust="spacing" textLength="20.6138" x="5" y="20.8105">model</text></g><!--cluster view--><g id="cluster_view"><path d="M518.25,3.0068 L533.9258,3.0068 A1.875,1.875 0 0 1 535.1758,4.2568 L538.6758,15.3174 L726.25,15.3174 A1.25,1.25 0 0 1 727.5,16.5674 L727.5,171.7568 A1.25,1.25 0 0 1 726.25,173.0068 L518.25,173.0068 A1.25,1.25 0 0 1 517,171.7568 L517,4.2568 A1.25,1.25 0 0 1 518.25,3.0068 " fill="none" style="stroke:#000000;stroke-width:0.75;"/><line style="stroke:#000000;stroke-width:0.75;" x1="517" x2="538.6758" y1="15.3174" y2="15.3174"/><text fill="#000000" font-family="sans-serif" font-size="7" font-weight="bold" lengthAdjust="spacing" textLength="15.1758" x="519" y="11.5605">view</text></g><!--cluster controller--><g id="cluster_controller"><path d="M475.75,206.5068 L508.5327,206.5068 A1.875,1.875 0 0 1 509.7827,207.7568 L513.2827,218.8174 L863.25,218.8174 A1.25,1.25 0 0 1 864.5,220.0674 L864.5,513.7568 A1.25,1.25 0 0 1 863.25,515.0068 L475.75,515.0068 A1.25,1.25 0 0 1 474.5,513.7568 L474.5,207.7568 A1.25,1.25 0 0 1 475.75,206.5068 " fill="none" style="stroke:#000000;stroke-width:0.75;"/><line style="stroke:#000000;stroke-width:0.75;" x1="474.5" x2="513.2827" y1="218.8174" y2="218.8174"/><text fill="#000000" font-family="sans-serif" font-size="7" font-weight="bold" lengthAdjust="spacing" textLength="32.2827" x="476.5" y="215.0605">controller</text></g><!--class Match--><g id="elem_Match"><rect codeLine="3" fill="#F1F1F1" height="117.1055" id="Match" rx="1.25" ry="1.25" style="stroke:#181818;stroke-width:0.25;" width="88.0962" x="22" y="34.7568"/><ellipse cx="54.3921" cy="42.7568" fill="#ADD1B2" rx="5.5" ry="5.5" style="stroke:#181818;stroke-width:0.5;"/><path d="M55.7749,40.6943 Q55.853,40.585 55.9468,40.5303 Q56.0405,40.4756 56.1499,40.4756 Q56.3374,40.4756 56.4546,40.6084 Q56.5718,40.7334 56.5718,41.0381 L56.5718,41.7646 Q56.5718,42.0693 56.4546,42.2021 Q56.3374,42.335 56.1499,42.335 Q55.978,42.335 55.8765,42.2334 Q55.7749,42.1396 55.7202,41.8818 Q55.6968,41.7021 55.603,41.6084 Q55.439,41.4209 55.1343,41.3115 Q54.8296,41.2021 54.5171,41.2021 Q54.1343,41.2021 53.814,41.3662 Q53.5015,41.5303 53.2515,41.9053 Q53.0093,42.2803 53.0093,42.7959 L53.0093,43.3428 Q53.0093,43.96 53.4546,44.374 Q53.8999,44.7803 54.6968,44.7803 Q55.1655,44.7803 55.4937,44.6553 Q55.689,44.5771 55.8999,44.3584 Q56.0327,44.2256 56.103,44.1865 Q56.1812,44.1475 56.2827,44.1475 Q56.4468,44.1475 56.5718,44.2803 Q56.7046,44.4053 56.7046,44.5771 Q56.7046,44.749 56.5327,44.9521 Q56.2827,45.2412 55.8843,45.4053 Q55.3452,45.6318 54.6968,45.6318 Q53.939,45.6318 53.3374,45.3193 Q52.8452,45.0693 52.5015,44.5381 Q52.1577,43.999 52.1577,43.3584 L52.1577,42.7803 Q52.1577,42.1162 52.4624,41.5459 Q52.7749,40.9678 53.3218,40.6631 Q53.8687,40.3506 54.4858,40.3506 Q54.853,40.3506 55.1733,40.4365 Q55.5015,40.5146 55.7749,40.6943 Z " fill="#000000"/><text fill="#000000" font-family="sans-serif" font-size="7" lengthAdjust="spacing" textLength="19.062" x="64.6421" y="45.6553">Match</text><line style="stroke:#181818;stroke-width:0.25;" x1="22.5" x2="109.5962" y1="50.7568" y2="50.7568"/><rect fill="none" height="3" style="stroke:#C82930;stroke-width:0.5;" width="3" x="26" y="56.6621"/><text fill="#000000" font-family="sans-serif" font-size="7" lengthAdjust="spacing" textLength="30.355" x="32" y="60.3105">Date date</text><rect fill="none" height="3" style="stroke:#C82930;stroke-width:0.5;" width="3" x="26" y="65.9727"/><text fill="#000000" font-family="sans-serif" font-size="7" lengthAdjust="spacing" textLength="64.1929" x="32" y="69.6211">Player playerService</text><rect fill="none" height="3" style="stroke:#C82930;stroke-width:0.5;" width="3" x="26" y="75.2832"/><text fill="#000000" font-family="sans-serif" font-size="7" lengthAdjust="spacing" textLength="55.2446" x="32" y="78.9316">Player playerRest</text><rect fill="none" height="3" style="stroke:#C82930;stroke-width:0.5;" width="3" x="26" y="84.5938"/><text fill="#000000" font-family="sans-serif" font-size="7" lengthAdjust="spacing" textLength="75.0962" x="32" y="88.2422">boolean isPlayerService</text><rect fill="none" height="3" style="stroke:#C82930;stroke-width:0.5;" width="3" x="26" y="93.9043"/><text fill="#000000" font-family="sans-serif" font-size="7" lengthAdjust="spacing" textLength="61.855" x="32" y="97.5527">Game currentGame</text><line style="stroke:#181818;stroke-width:0.25;" x1="22.5" x2="109.5962" y1="101.3096" y2="101.3096"/><ellipse cx="27.5" cy="108.7148" fill="#84BE84" rx="1.5" ry="1.5" style="stroke:#038048;stroke-width:0.5;"/><text fill="#000000" font-family="sans-serif" font-size="7" lengthAdjust="spacing" textLength="51.3413" x="32" y="110.8633">startNewGame()</text><ellipse cx="27.5" cy="118.0254" fill="#84BE84" rx="1.5" ry="1.5" style="stroke:#038048;stroke-width:0.5;"/><text fill="#000000" font-family="sans-serif" font-size="7" lengthAdjust="spacing" textLength="48.6377" x="32" y="120.1738">addSet(Set set)</text><ellipse cx="27.5" cy="127.3359" fill="#84BE84" rx="1.5" ry="1.5" style="stroke:#038048;stroke-width:0.5;"/><text fill="#000000" font-family="sans-serif" font-size="7" lengthAdjust="spacing" textLength="72.7515" x="32" y="129.4844">isMatchOver(): boolean</text><ellipse cx="27.5" cy="136.6465" fill="#84BE84" rx="1.5" ry="1.5" style="stroke:#038048;stroke-width:0.5;"/><text fill="#000000" font-family="sans-serif" font-size="7" lengthAdjust="spacing" textLength="73.917" x="32" y="138.7949">getMatchScore(): String</text><ellipse cx="27.5" cy="145.957" fill="#84BE84" rx="1.5" ry="1.5" style="stroke:#038048;stroke-width:0.5;"/><text fill="#000000" font-family="sans-serif" font-size="7" lengthAdjust="spacing" textLength="42.0068" x="32" y="148.1055">switchRoles()</text></g><!--class Referee--><g id="elem_Referee"><rect codeLine="17" fill="#F1F1F1" height="61.2422" id="Referee" rx="1.25" ry="1.25" style="stroke:#181818;stroke-width:0.25;" width="134.7959" x="127.5" y="62.7568"/><ellipse cx="180.3213" cy="70.7568" fill="#ADD1B2" rx="5.5" ry="5.5" style="stroke:#181818;stroke-width:0.5;"/><path d="M181.7041,68.6943 Q181.7822,68.585 181.876,68.5303 Q181.9697,68.4756 182.0791,68.4756 Q182.2666,68.4756 182.3838,68.6084 Q182.501,68.7334 182.501,69.0381 L182.501,69.7646 Q182.501,70.0693 182.3838,70.2021 Q182.2666,70.335 182.0791,70.335 Q181.9072,70.335 181.8057,70.2334 Q181.7041,70.1396 181.6494,69.8818 Q181.626,69.7021 181.5322,69.6084 Q181.3682,69.4209 181.0635,69.3115 Q180.7588,69.2021 180.4463,69.2021 Q180.0635,69.2021 179.7432,69.3662 Q179.4307,69.5303 179.1807,69.9053 Q178.9385,70.2803 178.9385,70.7959 L178.9385,71.3428 Q178.9385,71.96 179.3838,72.374 Q179.8291,72.7803 180.626,72.7803 Q181.0947,72.7803 181.4229,72.6553 Q181.6182,72.5771 181.8291,72.3584 Q181.9619,72.2256 182.0322,72.1865 Q182.1104,72.1475 182.2119,72.1475 Q182.376,72.1475 182.501,72.2803 Q182.6338,72.4053 182.6338,72.5771 Q182.6338,72.749 182.4619,72.9521 Q182.2119,73.2412 181.8135,73.4053 Q181.2744,73.6318 180.626,73.6318 Q179.8682,73.6318 179.2666,73.3193 Q178.7744,73.0693 178.4307,72.5381 Q178.0869,71.999 178.0869,71.3584 L178.0869,70.7803 Q178.0869,70.1162 178.3916,69.5459 Q178.7041,68.9678 179.251,68.6631 Q179.7979,68.3506 180.415,68.3506 Q180.7822,68.3506 181.1025,68.4365 Q181.4307,68.5146 181.7041,68.6943 Z " fill="#000000"/><text fill="#000000" font-family="sans-serif" font-size="7" lengthAdjust="spacing" textLength="24.9033" x="190.5713" y="73.6553">Referee</text><line style="stroke:#181818;stroke-width:0.25;" x1="128" x2="261.7959" y1="78.7568" y2="78.7568"/><rect fill="none" height="3" style="stroke:#C82930;stroke-width:0.5;" width="3" x="131.5" y="84.6621"/><text fill="#000000" font-family="sans-serif" font-size="7" lengthAdjust="spacing" textLength="14.7861" x="137.5" y="88.3105">int id</text><rect fill="none" height="3" style="stroke:#C82930;stroke-width:0.5;" width="3" x="131.5" y="93.9727"/><text fill="#000000" font-family="sans-serif" font-size="7" lengthAdjust="spacing" textLength="37.7412" x="137.5" y="97.6211">String name</text><rect fill="none" height="3" style="stroke:#C82930;stroke-width:0.5;" width="3" x="131.5" y="103.2832"/><text fill="#000000" font-family="sans-serif" font-size="7" lengthAdjust="spacing" textLength="50.1895" x="137.5" y="106.9316">String password</text><line style="stroke:#181818;stroke-width:0.25;" x1="128" x2="261.7959" y1="110.6885" y2="110.6885"/><ellipse cx="133" cy="118.0938" fill="#84BE84" rx="1.5" ry="1.5" style="stroke:#038048;stroke-width:0.5;"/><text fill="#000000" font-family="sans-serif" font-size="7" lengthAdjust="spacing" textLength="121.7959" x="137.5" y="120.2422">authenticate(String password): boolean</text></g><!--class Player--><g id="elem_Player"><rect codeLine="25" fill="#F1F1F1" height="61.2422" id="Player" rx="1.25" ry="1.25" style="stroke:#181818;stroke-width:0.25;" width="63.5791" x="280.25" y="62.7568"/><ellipse cx="300.232" cy="70.7568" fill="#ADD1B2" rx="5.5" ry="5.5" style="stroke:#181818;stroke-width:0.5;"/><path d="M301.6148,68.6943 Q301.6929,68.585 301.7867,68.5303 Q301.8804,68.4756 301.9898,68.4756 Q302.1773,68.4756 302.2945,68.6084 Q302.4117,68.7334 302.4117,69.0381 L302.4117,69.7646 Q302.4117,70.0693 302.2945,70.2021 Q302.1773,70.335 301.9898,70.335 Q301.8179,70.335 301.7164,70.2334 Q301.6148,70.1396 301.5601,69.8818 Q301.5367,69.7021 301.4429,69.6084 Q301.2789,69.4209 300.9742,69.3115 Q300.6695,69.2021 300.357,69.2021 Q299.9742,69.2021 299.6539,69.3662 Q299.3414,69.5303 299.0914,69.9053 Q298.8492,70.2803 298.8492,70.7959 L298.8492,71.3428 Q298.8492,71.96 299.2945,72.374 Q299.7398,72.7803 300.5367,72.7803 Q301.0054,72.7803 301.3336,72.6553 Q301.5289,72.5771 301.7398,72.3584 Q301.8726,72.2256 301.9429,72.1865 Q302.0211,72.1475 302.1226,72.1475 Q302.2867,72.1475 302.4117,72.2803 Q302.5445,72.4053 302.5445,72.5771 Q302.5445,72.749 302.3726,72.9521 Q302.1226,73.2412 301.7242,73.4053 Q301.1851,73.6318 300.5367,73.6318 Q299.7789,73.6318 299.1773,73.3193 Q298.6851,73.0693 298.3414,72.5381 Q297.9976,71.999 297.9976,71.3584 L297.9976,70.7803 Q297.9976,70.1162 298.3023,69.5459 Q298.6148,68.9678 299.1617,68.6631 Q299.7086,68.3506 300.3258,68.3506 Q300.6929,68.3506 301.0133,68.4365 Q301.3414,68.5146 301.6148,68.6943 Z " fill="#000000"/><text fill="#000000" font-family="sans-serif" font-size="7" lengthAdjust="spacing" textLength="19.8413" x="310.0058" y="73.6553">Player</text><line style="stroke:#181818;stroke-width:0.25;" x1="280.75" x2="343.3291" y1="78.7568" y2="78.7568"/><rect fill="none" height="3" style="stroke:#C82930;stroke-width:0.5;" width="3" x="284.25" y="84.6621"/><text fill="#000000" font-family="sans-serif" font-size="7" lengthAdjust="spacing" textLength="14.7861" x="290.25" y="88.3105">int id</text><rect fill="none" height="3" style="stroke:#C82930;stroke-width:0.5;" width="3" x="284.25" y="93.9727"/><text fill="#000000" font-family="sans-serif" font-size="7" lengthAdjust="spacing" textLength="37.7412" x="290.25" y="97.6211">String name</text><rect fill="none" height="3" style="stroke:#C82930;stroke-width:0.5;" width="3" x="284.25" y="103.2832"/><text fill="#000000" font-family="sans-serif" font-size="7" lengthAdjust="spacing" textLength="50.5791" x="290.25" y="106.9316">int currentPoints</text><line style="stroke:#181818;stroke-width:0.25;" x1="280.75" x2="343.3291" y1="110.6885" y2="110.6885"/><ellipse cx="285.75" cy="118.0938" fill="#84BE84" rx="1.5" ry="1.5" style="stroke:#038048;stroke-width:0.5;"/><text fill="#000000" font-family="sans-serif" font-size="7" lengthAdjust="spacing" textLength="37.7344" x="290.25" y="120.2422">scorePoint()</text></g><!--class Set--><g id="elem_Set"><rect codeLine="33" fill="#F1F1F1" height="51.9316" id="Set" rx="1.25" ry="1.25" style="stroke:#181818;stroke-width:0.25;" width="101.6997" x="15.25" y="257.0068"/><ellipse cx="58.7214" cy="265.0068" fill="#ADD1B2" rx="5.5" ry="5.5" style="stroke:#181818;stroke-width:0.5;"/><path d="M60.1042,262.9443 Q60.1824,262.835 60.2761,262.7803 Q60.3699,262.7256 60.4792,262.7256 Q60.6667,262.7256 60.7839,262.8584 Q60.9011,262.9834 60.9011,263.2881 L60.9011,264.0146 Q60.9011,264.3193 60.7839,264.4521 Q60.6667,264.585 60.4792,264.585 Q60.3074,264.585 60.2058,264.4834 Q60.1042,264.3896 60.0496,264.1318 Q60.0261,263.9521 59.9324,263.8584 Q59.7683,263.6709 59.4636,263.5615 Q59.1589,263.4521 58.8464,263.4521 Q58.4636,263.4521 58.1433,263.6162 Q57.8308,263.7803 57.5808,264.1553 Q57.3386,264.5303 57.3386,265.0459 L57.3386,265.5928 Q57.3386,266.21 57.7839,266.624 Q58.2292,267.0303 59.0261,267.0303 Q59.4949,267.0303 59.823,266.9053 Q60.0183,266.8271 60.2292,266.6084 Q60.3621,266.4756 60.4324,266.4365 Q60.5105,266.3975 60.6121,266.3975 Q60.7761,266.3975 60.9011,266.5303 Q61.0339,266.6553 61.0339,266.8271 Q61.0339,266.999 60.8621,267.2021 Q60.6121,267.4912 60.2136,267.6553 Q59.6746,267.8818 59.0261,267.8818 Q58.2683,267.8818 57.6667,267.5693 Q57.1746,267.3193 56.8308,266.7881 Q56.4871,266.249 56.4871,265.6084 L56.4871,265.0303 Q56.4871,264.3662 56.7917,263.7959 Q57.1042,263.2178 57.6511,262.9131 Q58.198,262.6006 58.8152,262.6006 Q59.1824,262.6006 59.5027,262.6865 Q59.8308,262.7646 60.1042,262.9443 Z " fill="#000000"/><text fill="#000000" font-family="sans-serif" font-size="7" lengthAdjust="spacing" textLength="10.5068" x="68.9714" y="267.9053">Set</text><line style="stroke:#181818;stroke-width:0.25;" x1="15.75" x2="116.4497" y1="273.0068" y2="273.0068"/><rect fill="none" height="3" style="stroke:#C82930;stroke-width:0.5;" width="3" x="19.25" y="278.9121"/><text fill="#000000" font-family="sans-serif" font-size="7" lengthAdjust="spacing" textLength="88.6997" x="25.25" y="282.5605">int playerServiceGamesWon</text><rect fill="none" height="3" style="stroke:#C82930;stroke-width:0.5;" width="3" x="19.25" y="288.2227"/><text fill="#000000" font-family="sans-serif" font-size="7" lengthAdjust="spacing" textLength="79.7515" x="25.25" y="291.8711">int playerRestGamesWon</text><line style="stroke:#181818;stroke-width:0.25;" x1="15.75" x2="116.4497" y1="295.6279" y2="295.6279"/><ellipse cx="20.75" cy="303.0332" fill="#84BE84" rx="1.5" ry="1.5" style="stroke:#038048;stroke-width:0.5;"/><text fill="#000000" font-family="sans-serif" font-size="7" lengthAdjust="spacing" textLength="35.3931" x="25.25" y="305.1816">isSetOver()</text></g><!--class Game--><g id="elem_Game"><rect codeLine="40" fill="#F1F1F1" height="79.8633" id="Game" rx="1.25" ry="1.25" style="stroke:#181818;stroke-width:0.25;" width="125.8271" x="134.5" y="243.0068"/><ellipse cx="185.7576" cy="251.0068" fill="#ADD1B2" rx="5.5" ry="5.5" style="stroke:#181818;stroke-width:0.5;"/><path d="M187.1404,248.9443 Q187.2185,248.835 187.3123,248.7803 Q187.406,248.7256 187.5154,248.7256 Q187.7029,248.7256 187.8201,248.8584 Q187.9373,248.9834 187.9373,249.2881 L187.9373,250.0146 Q187.9373,250.3193 187.8201,250.4521 Q187.7029,250.585 187.5154,250.585 Q187.3435,250.585 187.2419,250.4834 Q187.1404,250.3896 187.0857,250.1318 Q187.0623,249.9521 186.9685,249.8584 Q186.8044,249.6709 186.4998,249.5615 Q186.1951,249.4521 185.8826,249.4521 Q185.4998,249.4521 185.1794,249.6162 Q184.8669,249.7803 184.6169,250.1553 Q184.3748,250.5303 184.3748,251.0459 L184.3748,251.5928 Q184.3748,252.21 184.8201,252.624 Q185.2654,253.0303 186.0623,253.0303 Q186.531,253.0303 186.8591,252.9053 Q187.0544,252.8271 187.2654,252.6084 Q187.3982,252.4756 187.4685,252.4365 Q187.5466,252.3975 187.6482,252.3975 Q187.8123,252.3975 187.9373,252.5303 Q188.0701,252.6553 188.0701,252.8271 Q188.0701,252.999 187.8982,253.2021 Q187.6482,253.4912 187.2498,253.6553 Q186.7107,253.8818 186.0623,253.8818 Q185.3044,253.8818 184.7029,253.5693 Q184.2107,253.3193 183.8669,252.7881 Q183.5232,252.249 183.5232,251.6084 L183.5232,251.0303 Q183.5232,250.3662 183.8279,249.7959 Q184.1404,249.2178 184.6873,248.9131 Q185.2341,248.6006 185.8513,248.6006 Q186.2185,248.6006 186.5388,248.6865 Q186.8669,248.7646 187.1404,248.9443 Z " fill="#000000"/><text fill="#000000" font-family="sans-serif" font-size="7" lengthAdjust="spacing" textLength="19.062" x="196.0076" y="253.9053">Game</text><line style="stroke:#181818;stroke-width:0.25;" x1="135" x2="259.8271" y1="259.0068" y2="259.0068"/><rect fill="none" height="3" style="stroke:#C82930;stroke-width:0.5;" width="3" x="138.5" y="264.9121"/><text fill="#000000" font-family="sans-serif" font-size="7" lengthAdjust="spacing" textLength="64.1929" x="144.5" y="268.5605">Player playerService</text><rect fill="none" height="3" style="stroke:#C82930;stroke-width:0.5;" width="3" x="138.5" y="274.2227"/><text fill="#000000" font-family="sans-serif" font-size="7" lengthAdjust="spacing" textLength="55.2446" x="144.5" y="277.8711">Player playerRest</text><line style="stroke:#181818;stroke-width:0.25;" x1="135" x2="259.8271" y1="281.6279" y2="281.6279"/><ellipse cx="140" cy="289.0332" fill="#84BE84" rx="1.5" ry="1.5" style="stroke:#038048;stroke-width:0.5;"/><text fill="#000000" font-family="sans-serif" font-size="7" lengthAdjust="spacing" textLength="73.1479" x="144.5" y="291.1816">addPoint(Player player)</text><ellipse cx="140" cy="298.3438" fill="#84BE84" rx="1.5" ry="1.5" style="stroke:#038048;stroke-width:0.5;"/><text fill="#000000" font-family="sans-serif" font-size="7" lengthAdjust="spacing" textLength="72.7515" x="144.5" y="300.4922">isGameOver(): boolean</text><rect fill="#F24D5C" height="3" style="stroke:#C82930;stroke-width:0.5;" width="3" x="138.5" y="306.1543"/><text fill="#000000" font-family="sans-serif" font-size="7" lengthAdjust="spacing" textLength="112.8271" x="144.5" y="309.8027">checkGameWinner(Player): boolean</text><rect fill="#F24D5C" height="3" style="stroke:#C82930;stroke-width:0.5;" width="3" x="138.5" y="315.4648"/><text fill="#000000" font-family="sans-serif" font-size="7" lengthAdjust="spacing" textLength="109.7236" x="144.5" y="319.1133">getOpponent(Player player): Player</text></g><!--class TieBreakGame--><g id="elem_TieBreakGame"><rect codeLine="50" fill="#F1F1F1" height="70.5527" id="TieBreakGame" rx="1.25" ry="1.25" style="stroke:#181818;stroke-width:0.25;" width="114.9341" x="278" y="247.7568"/><ellipse cx="309.8059" cy="255.7568" fill="#ADD1B2" rx="5.5" ry="5.5" style="stroke:#181818;stroke-width:0.5;"/><path d="M311.1887,253.6943 Q311.2668,253.585 311.3606,253.5303 Q311.4543,253.4756 311.5637,253.4756 Q311.7512,253.4756 311.8684,253.6084 Q311.9856,253.7334 311.9856,254.0381 L311.9856,254.7646 Q311.9856,255.0693 311.8684,255.2021 Q311.7512,255.335 311.5637,255.335 Q311.3918,255.335 311.2903,255.2334 Q311.1887,255.1396 311.134,254.8818 Q311.1106,254.7021 311.0168,254.6084 Q310.8528,254.4209 310.5481,254.3115 Q310.2434,254.2021 309.9309,254.2021 Q309.5481,254.2021 309.2278,254.3662 Q308.9153,254.5303 308.6653,254.9053 Q308.4231,255.2803 308.4231,255.7959 L308.4231,256.3428 Q308.4231,256.96 308.8684,257.374 Q309.3137,257.7803 310.1106,257.7803 Q310.5793,257.7803 310.9075,257.6553 Q311.1028,257.5771 311.3137,257.3584 Q311.4465,257.2256 311.5168,257.1865 Q311.595,257.1475 311.6965,257.1475 Q311.8606,257.1475 311.9856,257.2803 Q312.1184,257.4053 312.1184,257.5771 Q312.1184,257.749 311.9465,257.9521 Q311.6965,258.2412 311.2981,258.4053 Q310.759,258.6318 310.1106,258.6318 Q309.3528,258.6318 308.7512,258.3193 Q308.259,258.0693 307.9153,257.5381 Q307.5715,256.999 307.5715,256.3584 L307.5715,255.7803 Q307.5715,255.1162 307.8762,254.5459 Q308.1887,253.9678 308.7356,253.6631 Q309.2825,253.3506 309.8997,253.3506 Q310.2668,253.3506 310.5872,253.4365 Q310.9153,253.5146 311.1887,253.6943 Z " fill="#000000"/><text fill="#000000" font-family="sans-serif" font-size="7" lengthAdjust="spacing" textLength="47.0723" x="320.0559" y="258.6553">TieBreakGame</text><line style="stroke:#181818;stroke-width:0.25;" x1="278.5" x2="392.4341" y1="263.7568" y2="263.7568"/><rect fill="none" height="3" style="stroke:#C82930;stroke-width:0.5;" width="3" x="282" y="269.6621"/><text fill="#000000" font-family="sans-serif" font-size="7" lengthAdjust="spacing" textLength="71.1997" x="288" y="273.3105">int playerServicePoints</text><rect fill="none" height="3" style="stroke:#C82930;stroke-width:0.5;" width="3" x="282" y="278.9727"/><text fill="#000000" font-family="sans-serif" font-size="7" lengthAdjust="spacing" textLength="62.2515" x="288" y="282.6211">int playerRestPoints</text><line style="stroke:#181818;stroke-width:0.25;" x1="278.5" x2="392.4341" y1="286.3779" y2="286.3779"/><ellipse cx="283.5" cy="293.7832" fill="#84BE84" rx="1.5" ry="1.5" style="stroke:#038048;stroke-width:0.5;"/><text fill="#000000" font-family="sans-serif" font-size="7" lengthAdjust="spacing" textLength="73.1479" x="288" y="295.9316">addPoint(Player player)</text><ellipse cx="283.5" cy="303.0938" fill="#84BE84" rx="1.5" ry="1.5" style="stroke:#038048;stroke-width:0.5;"/><text fill="#000000" font-family="sans-serif" font-size="7" lengthAdjust="spacing" textLength="101.9341" x="288" y="305.2422">checkTieBreakWinner(): boolean</text><ellipse cx="283.5" cy="312.4043" fill="#84BE84" rx="1.5" ry="1.5" style="stroke:#038048;stroke-width:0.5;"/><text fill="#000000" font-family="sans-serif" font-size="7" lengthAdjust="spacing" textLength="54.855" x="288" y="314.5527">getScore(): String</text></g><!--class MatchView--><g id="elem_MatchView"><rect codeLine="61" fill="#F1F1F1" height="135.7266" id="MatchView" rx="1.25" ry="1.25" style="stroke:#181818;stroke-width:0.25;" width="176.3926" x="538.75" y="25.5068"/><ellipse cx="607.7041" cy="33.5068" fill="#ADD1B2" rx="5.5" ry="5.5" style="stroke:#181818;stroke-width:0.5;"/><path d="M609.0869,31.4443 Q609.165,31.335 609.2588,31.2803 Q609.3525,31.2256 609.4619,31.2256 Q609.6494,31.2256 609.7666,31.3584 Q609.8838,31.4834 609.8838,31.7881 L609.8838,32.5146 Q609.8838,32.8193 609.7666,32.9521 Q609.6494,33.085 609.4619,33.085 Q609.29,33.085 609.1885,32.9834 Q609.0869,32.8896 609.0322,32.6318 Q609.0088,32.4521 608.915,32.3584 Q608.751,32.1709 608.4463,32.0615 Q608.1416,31.9521 607.8291,31.9521 Q607.4463,31.9521 607.126,32.1162 Q606.8135,32.2803 606.5635,32.6553 Q606.3213,33.0303 606.3213,33.5459 L606.3213,34.0928 Q606.3213,34.71 606.7666,35.124 Q607.2119,35.5303 608.0088,35.5303 Q608.4775,35.5303 608.8057,35.4053 Q609.001,35.3271 609.2119,35.1084 Q609.3447,34.9756 609.415,34.9365 Q609.4932,34.8975 609.5947,34.8975 Q609.7588,34.8975 609.8838,35.0303 Q610.0166,35.1553 610.0166,35.3271 Q610.0166,35.499 609.8447,35.7021 Q609.5947,35.9912 609.1963,36.1553 Q608.6572,36.3818 608.0088,36.3818 Q607.251,36.3818 606.6494,36.0693 Q606.1572,35.8193 605.8135,35.2881 Q605.4697,34.749 605.4697,34.1084 L605.4697,33.5303 Q605.4697,32.8662 605.7744,32.2959 Q606.0869,31.7178 606.6338,31.4131 Q607.1807,31.1006 607.7979,31.1006 Q608.165,31.1006 608.4854,31.1865 Q608.8135,31.2646 609.0869,31.4443 Z " fill="#000000"/><text fill="#000000" font-family="sans-serif" font-size="7" lengthAdjust="spacing" textLength="34.2344" x="617.9541" y="36.4053">MatchView</text><line style="stroke:#181818;stroke-width:0.25;" x1="539.25" x2="714.6426" y1="41.5068" y2="41.5068"/><line style="stroke:#181818;stroke-width:0.25;" x1="539.25" x2="714.6426" y1="45.5068" y2="45.5068"/><ellipse cx="544.25" cy="52.9121" fill="#84BE84" rx="1.5" ry="1.5" style="stroke:#038048;stroke-width:0.5;"/><text fill="#000000" font-family="sans-serif" font-size="7" lengthAdjust="spacing" textLength="159.8926" x="548.75" y="55.0605">displayInitialMatch(ScoreController scoreController)</text><ellipse cx="544.25" cy="62.2227" fill="#84BE84" rx="1.5" ry="1.5" style="stroke:#038048;stroke-width:0.5;"/><text fill="#000000" font-family="sans-serif" font-size="7" lengthAdjust="spacing" textLength="161.8374" x="548.75" y="64.3711">displayMatchScore(ScoreController scoreController)</text><ellipse cx="544.25" cy="71.5332" fill="#84BE84" rx="1.5" ry="1.5" style="stroke:#038048;stroke-width:0.5;"/><text fill="#000000" font-family="sans-serif" font-size="7" lengthAdjust="spacing" textLength="163.3926" x="548.75" y="73.6816">displayMatchResult(ScoreController scoreController)</text><ellipse cx="544.25" cy="80.8438" fill="#84BE84" rx="1.5" ry="1.5" style="stroke:#038048;stroke-width:0.5;"/><text fill="#000000" font-family="sans-serif" font-size="7" lengthAdjust="spacing" textLength="112.0479" x="548.75" y="82.9922">displayPlayerCreated(Player player)</text><ellipse cx="544.25" cy="90.1543" fill="#84BE84" rx="1.5" ry="1.5" style="stroke:#038048;stroke-width:0.5;"/><text fill="#000000" font-family="sans-serif" font-size="7" lengthAdjust="spacing" textLength="125.2856" x="548.75" y="92.3027">displayRefereeCreated(Referee referee)</text><ellipse cx="544.25" cy="99.4648" fill="#84BE84" rx="1.5" ry="1.5" style="stroke:#038048;stroke-width:0.5;"/><text fill="#000000" font-family="sans-serif" font-size="7" lengthAdjust="spacing" textLength="115.5684" x="548.75" y="101.6133">displayLoginStatus(boolean success)</text><ellipse cx="544.25" cy="108.7754" fill="#84BE84" rx="1.5" ry="1.5" style="stroke:#038048;stroke-width:0.5;"/><text fill="#000000" font-family="sans-serif" font-size="7" lengthAdjust="spacing" textLength="135.3857" x="548.75" y="110.9238">displayPointToServer(Player playerService)</text><ellipse cx="544.25" cy="118.0859" fill="#84BE84" rx="1.5" ry="1.5" style="stroke:#038048;stroke-width:0.5;"/><text fill="#000000" font-family="sans-serif" font-size="7" lengthAdjust="spacing" textLength="133.4409" x="548.75" y="120.2344">displayPointToReceiver(Player playerRest)</text><ellipse cx="544.25" cy="127.3965" fill="#84BE84" rx="1.5" ry="1.5" style="stroke:#038048;stroke-width:0.5;"/><text fill="#000000" font-family="sans-serif" font-size="7" lengthAdjust="spacing" textLength="128.772" x="548.75" y="129.5449">displayLackService(Player playerService)</text><ellipse cx="544.25" cy="136.707" fill="#84BE84" rx="1.5" ry="1.5" style="stroke:#038048;stroke-width:0.5;"/><text fill="#000000" font-family="sans-serif" font-size="7" lengthAdjust="spacing" textLength="60.6826" x="548.75" y="138.8555">displayGameOver()</text><ellipse cx="544.25" cy="146.0176" fill="#84BE84" rx="1.5" ry="1.5" style="stroke:#038048;stroke-width:0.5;"/><text fill="#000000" font-family="sans-serif" font-size="7" lengthAdjust="spacing" textLength="52.1274" x="548.75" y="148.166">displaySetOver()</text><ellipse cx="544.25" cy="155.3281" fill="#84BE84" rx="1.5" ry="1.5" style="stroke:#038048;stroke-width:0.5;"/><text fill="#000000" font-family="sans-serif" font-size="7" lengthAdjust="spacing" textLength="60.6826" x="548.75" y="157.4766">displayMatchOver()</text></g><!--class MatchController--><g id="elem_MatchController"><rect codeLine="79" fill="#F1F1F1" height="107.7949" id="MatchController" rx="1.25" ry="1.25" style="stroke:#181818;stroke-width:0.25;" width="219.9717" x="496" y="229.0068"/><ellipse cx="579.1575" cy="237.0068" fill="#ADD1B2" rx="5.5" ry="5.5" style="stroke:#181818;stroke-width:0.5;"/><path d="M580.5403,234.9443 Q580.6184,234.835 580.7122,234.7803 Q580.8059,234.7256 580.9153,234.7256 Q581.1028,234.7256 581.22,234.8584 Q581.3372,234.9834 581.3372,235.2881 L581.3372,236.0146 Q581.3372,236.3193 581.22,236.4521 Q581.1028,236.585 580.9153,236.585 Q580.7434,236.585 580.6418,236.4834 Q580.5403,236.3896 580.4856,236.1318 Q580.4622,235.9521 580.3684,235.8584 Q580.2043,235.6709 579.8997,235.5615 Q579.595,235.4521 579.2825,235.4521 Q578.8997,235.4521 578.5793,235.6162 Q578.2668,235.7803 578.0168,236.1553 Q577.7747,236.5303 577.7747,237.0459 L577.7747,237.5928 Q577.7747,238.21 578.22,238.624 Q578.6653,239.0303 579.4622,239.0303 Q579.9309,239.0303 580.259,238.9053 Q580.4543,238.8271 580.6653,238.6084 Q580.7981,238.4756 580.8684,238.4365 Q580.9465,238.3975 581.0481,238.3975 Q581.2122,238.3975 581.3372,238.5303 Q581.47,238.6553 581.47,238.8271 Q581.47,238.999 581.2981,239.2021 Q581.0481,239.4912 580.6497,239.6553 Q580.1106,239.8818 579.4622,239.8818 Q578.7043,239.8818 578.1028,239.5693 Q577.6106,239.3193 577.2668,238.7881 Q576.9231,238.249 576.9231,237.6084 L576.9231,237.0303 Q576.9231,236.3662 577.2278,235.7959 Q577.5403,235.2178 578.0872,234.9131 Q578.634,234.6006 579.2512,234.6006 Q579.6184,234.6006 579.9387,234.6865 Q580.2668,234.7646 580.5403,234.9443 Z " fill="#000000"/><text fill="#000000" font-family="sans-serif" font-size="7" lengthAdjust="spacing" textLength="49.4067" x="589.4075" y="239.9053">MatchController</text><line style="stroke:#181818;stroke-width:0.25;" x1="496.5" x2="715.4717" y1="245.0068" y2="245.0068"/><rect fill="none" height="3" style="stroke:#C82930;stroke-width:0.5;" width="3" x="500" y="250.9121"/><text fill="#000000" font-family="sans-serif" font-size="7" lengthAdjust="spacing" textLength="98.0376" x="506" y="254.5605">ScoreController scoreController</text><rect fill="none" height="3" style="stroke:#C82930;stroke-width:0.5;" width="3" x="500" y="260.2227"/><text fill="#000000" font-family="sans-serif" font-size="7" lengthAdjust="spacing" textLength="70.4136" x="506" y="263.8711">MatchView matchView</text><rect fill="none" height="3" style="stroke:#C82930;stroke-width:0.5;" width="3" x="500" y="269.5332"/><text fill="#000000" font-family="sans-serif" font-size="7" lengthAdjust="spacing" textLength="40.0688" x="506" y="273.1816">Match match</text><line style="stroke:#181818;stroke-width:0.25;" x1="496.5" x2="715.4717" y1="276.9385" y2="276.9385"/><ellipse cx="501.5" cy="284.3438" fill="#84BE84" rx="1.5" ry="1.5" style="stroke:#038048;stroke-width:0.5;"/><text fill="#000000" font-family="sans-serif" font-size="7" lengthAdjust="spacing" textLength="206.9717" x="506" y="286.4922">createMatch(int totalSets, Player playerService, Player playerRest)</text><ellipse cx="501.5" cy="293.6543" fill="#84BE84" rx="1.5" ry="1.5" style="stroke:#038048;stroke-width:0.5;"/><text fill="#000000" font-family="sans-serif" font-size="7" lengthAdjust="spacing" textLength="72.748" x="506" y="295.8027">getDisplayInitialMatch()</text><ellipse cx="501.5" cy="302.9648" fill="#84BE84" rx="1.5" ry="1.5" style="stroke:#038048;stroke-width:0.5;"/><text fill="#000000" font-family="sans-serif" font-size="7" lengthAdjust="spacing" textLength="74.6929" x="506" y="305.1133">getDisplayMatchScore()</text><ellipse cx="501.5" cy="312.2754" fill="#84BE84" rx="1.5" ry="1.5" style="stroke:#038048;stroke-width:0.5;"/><text fill="#000000" font-family="sans-serif" font-size="7" lengthAdjust="spacing" textLength="40.4517" x="506" y="314.4238">lackService()</text><ellipse cx="501.5" cy="321.5859" fill="#84BE84" rx="1.5" ry="1.5" style="stroke:#038048;stroke-width:0.5;"/><text fill="#000000" font-family="sans-serif" font-size="7" lengthAdjust="spacing" textLength="43.1826" x="506" y="323.7344">pointService()</text><ellipse cx="501.5" cy="330.8965" fill="#84BE84" rx="1.5" ry="1.5" style="stroke:#038048;stroke-width:0.5;"/><text fill="#000000" font-family="sans-serif" font-size="7" lengthAdjust="spacing" textLength="34.2344" x="506" y="333.0449">pointRest()</text></g><!--class PlayerController--><g id="elem_PlayerController"><rect codeLine="92" fill="#F1F1F1" height="61.2422" id="PlayerController" rx="1.25" ry="1.25" style="stroke:#181818;stroke-width:0.25;" width="118.4307" x="733.75" y="252.5068"/><ellipse cx="765.7473" cy="260.5068" fill="#ADD1B2" rx="5.5" ry="5.5" style="stroke:#181818;stroke-width:0.5;"/><path d="M767.1301,258.4443 Q767.2083,258.335 767.302,258.2803 Q767.3958,258.2256 767.5051,258.2256 Q767.6926,258.2256 767.8098,258.3584 Q767.927,258.4834 767.927,258.7881 L767.927,259.5146 Q767.927,259.8193 767.8098,259.9521 Q767.6926,260.085 767.5051,260.085 Q767.3333,260.085 767.2317,259.9834 Q767.1301,259.8896 767.0754,259.6318 Q767.052,259.4521 766.9583,259.3584 Q766.7942,259.1709 766.4895,259.0615 Q766.1848,258.9521 765.8723,258.9521 Q765.4895,258.9521 765.1692,259.1162 Q764.8567,259.2803 764.6067,259.6553 Q764.3645,260.0303 764.3645,260.5459 L764.3645,261.0928 Q764.3645,261.71 764.8098,262.124 Q765.2551,262.5303 766.052,262.5303 Q766.5208,262.5303 766.8489,262.4053 Q767.0442,262.3271 767.2551,262.1084 Q767.3879,261.9756 767.4583,261.9365 Q767.5364,261.8975 767.6379,261.8975 Q767.802,261.8975 767.927,262.0303 Q768.0598,262.1553 768.0598,262.3271 Q768.0598,262.499 767.8879,262.7021 Q767.6379,262.9912 767.2395,263.1553 Q766.7004,263.3818 766.052,263.3818 Q765.2942,263.3818 764.6926,263.0693 Q764.2004,262.8193 763.8567,262.2881 Q763.5129,261.749 763.5129,261.1084 L763.5129,260.5303 Q763.5129,259.8662 763.8176,259.2959 Q764.1301,258.7178 764.677,258.4131 Q765.2239,258.1006 765.8411,258.1006 Q766.2083,258.1006 766.5286,258.1865 Q766.8567,258.2646 767.1301,258.4443 Z " fill="#000000"/><text fill="#000000" font-family="sans-serif" font-size="7" lengthAdjust="spacing" textLength="50.186" x="775.9973" y="263.4053">PlayerController</text><line style="stroke:#181818;stroke-width:0.25;" x1="734.25" x2="851.6807" y1="268.5068" y2="268.5068"/><rect fill="none" height="3" style="stroke:#C82930;stroke-width:0.5;" width="3" x="737.75" y="274.4121"/><text fill="#000000" font-family="sans-serif" font-size="7" lengthAdjust="spacing" textLength="63.4204" x="743.75" y="278.0605">List&lt;Player&gt; players</text><line style="stroke:#181818;stroke-width:0.25;" x1="734.25" x2="851.6807" y1="281.8174" y2="281.8174"/><ellipse cx="739.25" cy="289.2227" fill="#84BE84" rx="1.5" ry="1.5" style="stroke:#038048;stroke-width:0.5;"/><text fill="#000000" font-family="sans-serif" font-size="7" lengthAdjust="spacing" textLength="105.4307" x="743.75" y="291.3711">createPlayer(String name): Player</text><ellipse cx="739.25" cy="298.5332" fill="#84BE84" rx="1.5" ry="1.5" style="stroke:#038048;stroke-width:0.5;"/><text fill="#000000" font-family="sans-serif" font-size="7" lengthAdjust="spacing" textLength="86.7583" x="743.75" y="300.6816">getPlayerById(int id): Player</text><ellipse cx="739.25" cy="307.8438" fill="#84BE84" rx="1.5" ry="1.5" style="stroke:#038048;stroke-width:0.5;"/><text fill="#000000" font-family="sans-serif" font-size="7" lengthAdjust="spacing" textLength="80.5342" x="743.75" y="309.9922">getPlayers(): List&lt;Player&gt;</text></g><!--class RefereeController--><g id="elem_RefereeController"><rect codeLine="100" fill="#F1F1F1" height="61.2422" id="RefereeController" rx="1.25" ry="1.25" style="stroke:#181818;stroke-width:0.25;" width="182.6338" x="514.75" y="404.7568"/><ellipse cx="576.3179" cy="412.7568" fill="#ADD1B2" rx="5.5" ry="5.5" style="stroke:#181818;stroke-width:0.5;"/><path d="M577.7007,410.6943 Q577.7788,410.585 577.8726,410.5303 Q577.9663,410.4756 578.0757,410.4756 Q578.2632,410.4756 578.3804,410.6084 Q578.4976,410.7334 578.4976,411.0381 L578.4976,411.7646 Q578.4976,412.0693 578.3804,412.2021 Q578.2632,412.335 578.0757,412.335 Q577.9038,412.335 577.8022,412.2334 Q577.7007,412.1396 577.646,411.8818 Q577.6226,411.7021 577.5288,411.6084 Q577.3647,411.4209 577.0601,411.3115 Q576.7554,411.2021 576.4429,411.2021 Q576.0601,411.2021 575.7397,411.3662 Q575.4272,411.5303 575.1772,411.9053 Q574.9351,412.2803 574.9351,412.7959 L574.9351,413.3428 Q574.9351,413.96 575.3804,414.374 Q575.8257,414.7803 576.6226,414.7803 Q577.0913,414.7803 577.4194,414.6553 Q577.6147,414.5771 577.8257,414.3584 Q577.9585,414.2256 578.0288,414.1865 Q578.1069,414.1475 578.2085,414.1475 Q578.3726,414.1475 578.4976,414.2803 Q578.6304,414.4053 578.6304,414.5771 Q578.6304,414.749 578.4585,414.9521 Q578.2085,415.2412 577.8101,415.4053 Q577.271,415.6318 576.6226,415.6318 Q575.8647,415.6318 575.2632,415.3193 Q574.771,415.0693 574.4272,414.5381 Q574.0835,413.999 574.0835,413.3584 L574.0835,412.7803 Q574.0835,412.1162 574.3882,411.5459 Q574.7007,410.9678 575.2476,410.6631 Q575.7944,410.3506 576.4116,410.3506 Q576.7788,410.3506 577.0991,410.4365 Q577.4272,410.5146 577.7007,410.6943 Z " fill="#000000"/><text fill="#000000" font-family="sans-serif" font-size="7" lengthAdjust="spacing" textLength="55.248" x="586.5679" y="415.6553">RefereeController</text><line style="stroke:#181818;stroke-width:0.25;" x1="515.25" x2="696.8838" y1="420.7568" y2="420.7568"/><rect fill="none" height="3" style="stroke:#C82930;stroke-width:0.5;" width="3" x="518.75" y="426.6621"/><text fill="#000000" font-family="sans-serif" font-size="7" lengthAdjust="spacing" textLength="88.3203" x="524.75" y="430.3105">ArrayList&lt;Referee&gt; referees</text><line style="stroke:#181818;stroke-width:0.25;" x1="515.25" x2="696.8838" y1="434.0674" y2="434.0674"/><ellipse cx="520.25" cy="441.4727" fill="#84BE84" rx="1.5" ry="1.5" style="stroke:#038048;stroke-width:0.5;"/><text fill="#000000" font-family="sans-serif" font-size="7" lengthAdjust="spacing" textLength="169.6338" x="524.75" y="443.6211">createReferee(String name, String password): Referee</text><ellipse cx="520.25" cy="450.7832" fill="#84BE84" rx="1.5" ry="1.5" style="stroke:#038048;stroke-width:0.5;"/><text fill="#000000" font-family="sans-serif" font-size="7" lengthAdjust="spacing" textLength="140.0752" x="524.75" y="452.9316">login(String name, String password): boolean</text><rect fill="#F24D5C" height="3" style="stroke:#C82930;stroke-width:0.5;" width="3" x="518.75" y="458.5938"/><text fill="#000000" font-family="sans-serif" font-size="7" lengthAdjust="spacing" textLength="130.7202" x="524.75" y="462.2422">isDuplicate(String name, String password)</text></g><!--class ScoreController--><g id="elem_ScoreController"><rect codeLine="108" fill="#F1F1F1" height="135.7266" id="ScoreController" rx="1.25" ry="1.25" style="stroke:#181818;stroke-width:0.25;" width="118.4341" x="714.75" y="367.5068"/><ellipse cx="747.5266" cy="375.5068" fill="#ADD1B2" rx="5.5" ry="5.5" style="stroke:#181818;stroke-width:0.5;"/><path d="M748.9094,373.4443 Q748.9875,373.335 749.0813,373.2803 Q749.175,373.2256 749.2844,373.2256 Q749.4719,373.2256 749.5891,373.3584 Q749.7063,373.4834 749.7063,373.7881 L749.7063,374.5146 Q749.7063,374.8193 749.5891,374.9521 Q749.4719,375.085 749.2844,375.085 Q749.1125,375.085 749.011,374.9834 Q748.9094,374.8896 748.8547,374.6318 Q748.8313,374.4521 748.7375,374.3584 Q748.5735,374.1709 748.2688,374.0615 Q747.9641,373.9521 747.6516,373.9521 Q747.2688,373.9521 746.9485,374.1162 Q746.636,374.2803 746.386,374.6553 Q746.1438,375.0303 746.1438,375.5459 L746.1438,376.0928 Q746.1438,376.71 746.5891,377.124 Q747.0344,377.5303 747.8313,377.5303 Q748.3,377.5303 748.6282,377.4053 Q748.8235,377.3271 749.0344,377.1084 Q749.1672,376.9756 749.2375,376.9365 Q749.3157,376.8975 749.4172,376.8975 Q749.5813,376.8975 749.7063,377.0303 Q749.8391,377.1553 749.8391,377.3271 Q749.8391,377.499 749.6672,377.7021 Q749.4172,377.9912 749.0188,378.1553 Q748.4797,378.3818 747.8313,378.3818 Q747.0735,378.3818 746.4719,378.0693 Q745.9797,377.8193 745.636,377.2881 Q745.2922,376.749 745.2922,376.1084 L745.2922,375.5303 Q745.2922,374.8662 745.5969,374.2959 Q745.9094,373.7178 746.4563,373.4131 Q747.0032,373.1006 747.6204,373.1006 Q747.9875,373.1006 748.3079,373.1865 Q748.636,373.2646 748.9094,373.4443 Z " fill="#000000"/><text fill="#000000" font-family="sans-serif" font-size="7" lengthAdjust="spacing" textLength="48.6309" x="757.7766" y="378.4053">ScoreController</text><line style="stroke:#181818;stroke-width:0.25;" x1="715.25" x2="832.6841" y1="383.5068" y2="383.5068"/><rect fill="none" height="3" style="stroke:#C82930;stroke-width:0.5;" width="3" x="718.75" y="389.4121"/><text fill="#000000" font-family="sans-serif" font-size="7" lengthAdjust="spacing" textLength="40.0688" x="724.75" y="393.0605">Match match</text><rect fill="none" height="3" style="stroke:#C82930;stroke-width:0.5;" width="3" x="718.75" y="398.7227"/><text fill="#000000" font-family="sans-serif" font-size="7" lengthAdjust="spacing" textLength="64.1895" x="724.75" y="402.3711">Player currentServer</text><rect fill="none" height="3" style="stroke:#C82930;stroke-width:0.5;" width="3" x="718.75" y="408.0332"/><text fill="#000000" font-family="sans-serif" font-size="7" lengthAdjust="spacing" textLength="64.1929" x="724.75" y="411.6816">Player playerService</text><rect fill="none" height="3" style="stroke:#C82930;stroke-width:0.5;" width="3" x="718.75" y="417.3438"/><text fill="#000000" font-family="sans-serif" font-size="7" lengthAdjust="spacing" textLength="41.6274" x="724.75" y="420.9922">Player Player</text><rect fill="none" height="3" style="stroke:#C82930;stroke-width:0.5;" width="3" x="718.75" y="426.6543"/><text fill="#000000" font-family="sans-serif" font-size="7" lengthAdjust="spacing" textLength="63.8066" x="724.75" y="430.3027">int lackServiceCount</text><line style="stroke:#181818;stroke-width:0.25;" x1="715.25" x2="832.6841" y1="434.0596" y2="434.0596"/><ellipse cx="720.25" cy="441.4648" fill="#84BE84" rx="1.5" ry="1.5" style="stroke:#038048;stroke-width:0.5;"/><text fill="#000000" font-family="sans-serif" font-size="7" lengthAdjust="spacing" textLength="33.4551" x="724.75" y="443.6133">getMatch()</text><ellipse cx="720.25" cy="450.7754" fill="#84BE84" rx="1.5" ry="1.5" style="stroke:#038048;stroke-width:0.5;"/><text fill="#000000" font-family="sans-serif" font-size="7" lengthAdjust="spacing" textLength="105.4341" x="724.75" y="452.9238">checkGameEndAndSwitchRoles()</text><ellipse cx="720.25" cy="460.0859" fill="#84BE84" rx="1.5" ry="1.5" style="stroke:#038048;stroke-width:0.5;"/><text fill="#000000" font-family="sans-serif" font-size="7" lengthAdjust="spacing" textLength="43.1826" x="724.75" y="462.2344">pointService()</text><ellipse cx="720.25" cy="469.3965" fill="#84BE84" rx="1.5" ry="1.5" style="stroke:#038048;stroke-width:0.5;"/><text fill="#000000" font-family="sans-serif" font-size="7" lengthAdjust="spacing" textLength="34.2344" x="724.75" y="471.5449">pointRest()</text><ellipse cx="720.25" cy="478.707" fill="#84BE84" rx="1.5" ry="1.5" style="stroke:#038048;stroke-width:0.5;"/><text fill="#000000" font-family="sans-serif" font-size="7" lengthAdjust="spacing" textLength="40.4517" x="724.75" y="480.8555">lackService()</text><ellipse cx="720.25" cy="488.0176" fill="#84BE84" rx="1.5" ry="1.5" style="stroke:#038048;stroke-width:0.5;"/><text fill="#000000" font-family="sans-serif" font-size="7" lengthAdjust="spacing" textLength="72.7515" x="724.75" y="490.166">isGameOver(): boolean</text><rect fill="#F24D5C" height="3" style="stroke:#C82930;stroke-width:0.5;" width="3" x="718.75" y="495.8281"/><text fill="#000000" font-family="sans-serif" font-size="7" lengthAdjust="spacing" textLength="68.4824" x="724.75" y="499.4766">givePointToOponent()</text></g><!--link controller to model--><g id="link_controller_model"><path codeLine="126" d="M474.4555,272.1225 C474.3865,271.9453 474.3167,271.7661 474.2462,271.5849 C473.964,270.8602 473.6695,270.1038 473.3632,269.3173 C472.7507,267.7441 472.091,266.0501 471.3886,264.2461 C469.9837,260.6382 468.4076,256.5905 466.6945,252.1911 C459.8422,234.5936 450.7981,211.3678 441.7537,188.1412 C432.7094,164.9146 423.6647,141.6873 416.8111,124.0866 C415.0977,119.6864 413.5212,115.6379 412.116,112.029 C411.4133,110.2245 410.7535,108.53 410.1407,106.9563 C409.8343,106.1695 409.5397,105.4129 409.2574,104.6878 C409.1869,104.5066 410.2056,107.1229 410.1365,106.9456 " fill="none" id="controller-to-model" style="stroke:#181818;stroke-width:0.5;stroke-dasharray:7.0,7.0;"/><polygon fill="#181818" points="409.048,104.15,408.8171,109.069,409.9551,106.4796,412.5445,107.6177,409.048,104.15" style="stroke:#181818;stroke-width:0.5;"/><text fill="#000000" font-family="sans-serif" font-size="6.5" lengthAdjust="spacing" textLength="21.6804" x="444.5" y="192.521">request</text></g><!--link model to controller--><g id="link_model_controller"><path codeLine="129" d="M409.0158,141.2568 C409.0399,141.4236 409.0642,141.5907 409.0886,141.7579 C409.1374,142.0923 409.1868,142.4275 409.2367,142.7635 C409.3367,143.4354 409.439,144.1103 409.5437,144.7879 C410.3813,150.2087 411.3729,155.8027 412.5466,161.4311 C414.8941,172.6881 417.97,184.0831 422,194.5068 C430.25,215.8443 444.0662,237.4956 455.9706,253.9825 C461.9228,262.2259 467.397,269.1782 471.4585,274.1547 C472.4739,275.3988 473.401,276.5195 474.2251,277.5059 C474.2766,277.5676 472.4027,275.3278 472.4534,275.3884 " fill="none" id="model-to-controller" style="stroke:#181818;stroke-width:0.5;stroke-dasharray:7.0,7.0;"/><polygon fill="#181818" points="474.3785,277.6893,473.0248,272.9546,472.7742,275.7719,469.9569,275.5214,474.3785,277.6893" style="stroke:#181818;stroke-width:0.5;"/><text fill="#000000" font-family="sans-serif" font-size="6.5" lengthAdjust="spacing" textLength="14.095" x="422.5" y="192.521">send</text></g><!--link controller to view--><g id="link_controller_view"><path codeLine="127" d="M474.4805,262.7473 C474.4479,262.5108 474.4157,262.2728 474.3838,262.0335 C473.8741,258.2042 473.4595,254.0196 473.2531,249.6443 C472.4275,232.1431 474.9325,211.5893 488,198.5068 C499.065,187.4268 512.575,206.1918 523,194.5068 C524.8344,192.4506 526.187,189.375 527.1487,185.562 C527.6296,183.6554 528.0127,181.5646 528.3094,179.3247 C528.4578,178.2047 528.5846,177.0474 528.6912,175.8573 C528.7444,175.2623 528.7927,174.659 528.8361,174.048 C528.8578,173.7426 528.6916,176.4294 528.7109,176.1201 " fill="none" id="controller-to-view" style="stroke:#181818;stroke-width:0.5;stroke-dasharray:7.0,7.0;"/><polygon fill="#181818" points="528.8975,173.126,526.6214,177.4928,528.742,175.6211,530.6136,177.7417,528.8975,173.126" style="stroke:#181818;stroke-width:0.5;"/><text fill="#000000" font-family="sans-serif" font-size="6.5" lengthAdjust="spacing" textLength="20.2332" x="527.5" y="192.521">display</text></g><!--link view to controller--><g id="link_view_controller"><path codeLine="128" d="M516.9392,104.2818 C514.5928,110.5076 511.4256,119.1353 507.9688,129.1775 C501.055,149.2618 492.9825,175.0043 488,198.5068 C487.5206,200.7681 487.0643,203.069 486.6299,205.3963 C486.5756,205.6872 487.0639,203.0279 487.0103,203.3196 " fill="none" id="view-to-controller" style="stroke:#181818;stroke-width:0.5;stroke-dasharray:7.0,7.0;"/><polygon fill="#181818" points="486.4681,206.2702,489.2485,202.2058,486.92,203.8114,485.3144,201.4828,486.4681,206.2702" style="stroke:#181818;stroke-width:0.5;"/><text fill="#000000" font-family="sans-serif" font-size="6.5" lengthAdjust="spacing" textLength="21.6804" x="491" y="192.521">request</text></g><!--SRC=[dLRRJkCm47tlLrWyfUBo0TKAYSjgXSGkg4NBizSPYaLgPss72Y7-VSVnEBKJ0rqgjQdduhcTcKdBnHDV0plOw1gQ0_Owcp7yY8PRotvo9nwHv2d7x98xO3N-qFcsuIzWMDi_Lc2UfIYobc0TqVzetG1NJDhRWjOFlW4cEcD0EVy_k7B8hEF6_OAjfrLp8lAwNe6hyCiik4YLjlVvvXbCDLz4UyHSW-kvAw4DUFRA6QdMqSfM8c-92fQClAMvMC83680X6r8v9ciwX8kOyavdb1PLjzhKCHJUkKUCJWfCOpMI6VcRMQU4xcdSiocFjneFTiYaZxmdbKBqkKmjP9NroRVtMatulhm3SoW3tXMAC3NJb_drAo3QbJx4a4di8E0Db11mpCGZY2VFlfTAeK2uO2A6GBbfMwrWOcD1NasZkfDmRe0_PT5DiaZbAEKmhzJ7CVPnH8iKImdk9QI_pT3lDhRziuJj0VcRDFrl9CTPSCXgQRtzAoMTv4qlKFLNNsZbZ6uQTD3cvtckclJT5nGnFLtZ_bCp9Eu2C-IWBgUH9AcresZiT1EU8-5hlPPgvRZhR1N7cUs406l73lZwtMbV-G5gEHhA2aiG82Sg7Y9ZLx28TDC-r-_Q8gVdhPfdFklX53TYI7i1FKcDOYTyKZkIsc5l4_-bd42Dg1HzlG8QVIivxNY3mTYZubGvOk_c4plbiW3nAJjT7yHiaY94MkiBMIHwgwMPI62TvkrQMlSjS4_9Svid832hP0laKwhtFvpFNwxgAkoETsMi7nUfrNTNOS7RCsCGbbwPP4vZ5usS9dRgzH6RxaCIYwdshVUPIZx9fRtisYPRjsN5mZOS8VQrWCHiKT763Vs-ztfBgX0sGWAe2zsfOUl5jvSgMmA-gR-h-apLgydxovv0B6FuepMwnl54m-g6rcHGsmsAR42Sd9mEBvWBHCJVpc_pgKXOHeiuWMP4w7cfS787tLeGiQ3mjUiV]--></g></svg>