<svg xmlns="http://www.w3.org/2000/svg" xmlns:xlink="http://www.w3.org/1999/xlink" contentStyleType="text/css" height="533.6px" preserveAspectRatio="none" style="width:799px;height:533px;background:#FFFFFF;" version="1.1" viewBox="0 0 799 533" width="799.2px" zoomAndPan="magnify"><defs/><g><!--cluster model--><g id="cluster_model"><path d="M331.4,224.4055 L348.291,224.4055 A1.5,1.5 0 0 1 349.291,225.4055 L352.091,234.2539 L795.4,234.2539 A1,1 0 0 1 796.4,235.2539 L796.4,529.8055 A1,1 0 0 1 795.4,530.8055 L331.4,530.8055 A1,1 0 0 1 330.4,529.8055 L330.4,225.4055 A1,1 0 0 1 331.4,224.4055 " fill="none" style="stroke:#000000;stroke-width:0.6000000000000001;"/><line style="stroke:#000000;stroke-width:0.6000000000000001;" x1="330.4" x2="352.091" y1="234.2539" y2="234.2539"/><text fill="#000000" font-family="sans-serif" font-size="5.6" font-weight="bold" lengthAdjust="spacing" textLength="16.491" x="332" y="231.2484">model</text></g><!--cluster view--><g id="cluster_view"><path d="M308.6,2.4055 L321.1406,2.4055 A1.5,1.5 0 0 1 322.1406,3.4055 L324.9406,12.2539 L489.4,12.2539 A1,1 0 0 1 490.4,13.2539 L490.4,85.4055 A1,1 0 0 1 489.4,86.4055 L308.6,86.4055 A1,1 0 0 1 307.6,85.4055 L307.6,3.4055 A1,1 0 0 1 308.6,2.4055 " fill="none" style="stroke:#000000;stroke-width:0.6000000000000001;"/><line style="stroke:#000000;stroke-width:0.6000000000000001;" x1="307.6" x2="324.9406" y1="12.2539" y2="12.2539"/><text fill="#000000" font-family="sans-serif" font-size="5.6" font-weight="bold" lengthAdjust="spacing" textLength="12.1406" x="309.2" y="9.2484">view</text></g><!--cluster controller--><g id="cluster_controller"><path d="M3.4,113.2055 L29.6262,113.2055 A1.5,1.5 0 0 1 30.6262,114.2055 L33.4262,123.0539 L313.4,123.0539 A1,1 0 0 1 314.4,124.0539 L314.4,348.4055 A1,1 0 0 1 313.4,349.4055 L3.4,349.4055 A1,1 0 0 1 2.4,348.4055 L2.4,114.2055 A1,1 0 0 1 3.4,113.2055 " fill="none" style="stroke:#000000;stroke-width:0.6000000000000001;"/><line style="stroke:#000000;stroke-width:0.6000000000000001;" x1="2.4" x2="33.4262" y1="123.0539" y2="123.0539"/><text fill="#000000" font-family="sans-serif" font-size="5.6" font-weight="bold" lengthAdjust="spacing" textLength="25.8262" x="4" y="120.0484">controller</text></g><!--class Match--><g id="elem_Match"><rect codeLine="3" fill="#F1F1F1" height="130.9266" id="Match" rx="1" ry="1" style="stroke:#181818;stroke-width:0.20000000000000004;" width="160.4133" x="489.8" y="242.4055"/><ellipse cx="560.6818" cy="248.8055" fill="#ADD1B2" rx="4.4" ry="4.4" style="stroke:#181818;stroke-width:0.4000000000000001;"/><path d="M561.7881,247.1555 Q561.8506,247.068 561.9256,247.0242 Q562.0006,246.9805 562.0881,246.9805 Q562.2381,246.9805 562.3318,247.0867 Q562.4256,247.1867 562.4256,247.4305 L562.4256,248.0117 Q562.4256,248.2555 562.3318,248.3617 Q562.2381,248.468 562.0881,248.468 Q561.9506,248.468 561.8693,248.3867 Q561.7881,248.3117 561.7443,248.1055 Q561.7256,247.9617 561.6506,247.8867 Q561.5193,247.7367 561.2756,247.6492 Q561.0318,247.5617 560.7818,247.5617 Q560.4756,247.5617 560.2193,247.693 Q559.9693,247.8242 559.7693,248.1242 Q559.5756,248.4242 559.5756,248.8367 L559.5756,249.2742 Q559.5756,249.768 559.9318,250.0992 Q560.2881,250.4242 560.9256,250.4242 Q561.3006,250.4242 561.5631,250.3242 Q561.7193,250.2617 561.8881,250.0867 Q561.9943,249.9805 562.0506,249.9492 Q562.1131,249.918 562.1943,249.918 Q562.3256,249.918 562.4256,250.0242 Q562.5318,250.1242 562.5318,250.2617 Q562.5318,250.3992 562.3943,250.5617 Q562.1943,250.793 561.8756,250.9242 Q561.4443,251.1055 560.9256,251.1055 Q560.3193,251.1055 559.8381,250.8555 Q559.4443,250.6555 559.1693,250.2305 Q558.8943,249.7992 558.8943,249.2867 L558.8943,248.8242 Q558.8943,248.293 559.1381,247.8367 Q559.3881,247.3742 559.8256,247.1305 Q560.2631,246.8805 560.7568,246.8805 Q561.0506,246.8805 561.3068,246.9492 Q561.5693,247.0117 561.7881,247.1555 Z " fill="#000000"/><text fill="#000000" font-family="sans-serif" font-size="5.6" lengthAdjust="spacing" textLength="15.2496" x="568.8818" y="251.1242">Match</text><line style="stroke:#181818;stroke-width:0.20000000000000004;" x1="490.2" x2="649.8133" y1="255.2055" y2="255.2055"/><rect fill="none" height="2.4" style="stroke:#C82930;stroke-width:0.4000000000000001;" width="2.4" x="493" y="259.9297"/><text fill="#000000" font-family="sans-serif" font-size="5.6" lengthAdjust="spacing" textLength="11.8289" x="497.8" y="262.8484">int id</text><rect fill="none" height="2.4" style="stroke:#C82930;stroke-width:0.4000000000000001;" width="2.4" x="493" y="267.3781"/><text fill="#000000" font-family="sans-serif" font-size="5.6" lengthAdjust="spacing" textLength="24.284" x="497.8" y="270.2969">Date date</text><rect fill="none" height="2.4" style="stroke:#C82930;stroke-width:0.4000000000000001;" width="2.4" x="493" y="274.8266"/><text fill="#000000" font-family="sans-serif" font-size="5.6" lengthAdjust="spacing" textLength="29.2605" x="497.8" y="277.7453">int totalSets</text><rect fill="none" height="2.4" style="stroke:#C82930;stroke-width:0.4000000000000001;" width="2.4" x="493" y="282.275"/><text fill="#000000" font-family="sans-serif" font-size="5.6" lengthAdjust="spacing" textLength="65.9887" x="497.8" y="285.1938">ArrayList&lt;Set&gt; setsPlayed</text><rect fill="none" height="2.4" style="stroke:#C82930;stroke-width:0.4000000000000001;" width="2.4" x="493" y="289.7234"/><text fill="#000000" font-family="sans-serif" font-size="5.6" lengthAdjust="spacing" textLength="51.3543" x="497.8" y="292.6422">Player playerService</text><rect fill="none" height="2.4" style="stroke:#C82930;stroke-width:0.4000000000000001;" width="2.4" x="493" y="297.1719"/><text fill="#000000" font-family="sans-serif" font-size="5.6" lengthAdjust="spacing" textLength="44.1957" x="497.8" y="300.0906">Player playerRest</text><rect fill="none" height="2.4" style="stroke:#C82930;stroke-width:0.4000000000000001;" width="2.4" x="493" y="304.6203"/><text fill="#000000" font-family="sans-serif" font-size="5.6" lengthAdjust="spacing" textLength="49.484" x="497.8" y="307.5391">Game currentGame</text><rect fill="none" height="2.4" style="stroke:#C82930;stroke-width:0.4000000000000001;" width="2.4" x="493" y="312.0688"/><text fill="#000000" font-family="sans-serif" font-size="5.6" lengthAdjust="spacing" textLength="63.8012" x="497.8" y="314.9875">TieBreak currentTieBreak</text><line style="stroke:#181818;stroke-width:0.20000000000000004;" x1="490.2" x2="649.8133" y1="317.993" y2="317.993"/><ellipse cx="494.2" cy="323.9172" fill="#84BE84" rx="1.2" ry="1.2" style="stroke:#038048;stroke-width:0.4000000000000001;"/><text fill="#000000" font-family="sans-serif" font-size="5.6" lengthAdjust="spacing" textLength="150.0133" x="497.8" y="325.6359">Match(int totalSets, Player playerService, Player playerRest)</text><text fill="#000000" font-family="sans-serif" font-size="5.6" lengthAdjust="spacing" textLength="71.1184" x="497.8" y="333.0844">(+ getPlayers(): List&lt;Player&gt;</text><ellipse cx="494.2" cy="338.8141" fill="#84BE84" rx="1.2" ry="1.2" style="stroke:#038048;stroke-width:0.4000000000000001;"/><text fill="#000000" font-family="sans-serif" font-size="5.6" lengthAdjust="spacing" textLength="51.357" x="497.8" y="340.5328">getSets(): List&lt;Set&gt;)</text><ellipse cx="494.2" cy="346.2625" fill="#84BE84" rx="1.2" ry="1.2" style="stroke:#038048;stroke-width:0.4000000000000001;"/><text fill="#000000" font-family="sans-serif" font-size="5.6" lengthAdjust="spacing" textLength="41.073" x="497.8" y="347.9813">startNewGame()</text><ellipse cx="494.2" cy="353.7109" fill="#84BE84" rx="1.2" ry="1.2" style="stroke:#038048;stroke-width:0.4000000000000001;"/><text fill="#000000" font-family="sans-serif" font-size="5.6" lengthAdjust="spacing" textLength="37.0289" x="497.8" y="355.4297">startTieBreak()</text><ellipse cx="494.2" cy="361.1594" fill="#84BE84" rx="1.2" ry="1.2" style="stroke:#038048;stroke-width:0.4000000000000001;"/><text fill="#000000" font-family="sans-serif" font-size="5.6" lengthAdjust="spacing" textLength="58.2012" x="497.8" y="362.8781">isMatchOver(): boolean</text><ellipse cx="494.2" cy="368.6078" fill="#84BE84" rx="1.2" ry="1.2" style="stroke:#038048;stroke-width:0.4000000000000001;"/><text fill="#000000" font-family="sans-serif" font-size="5.6" lengthAdjust="spacing" textLength="59.1336" x="497.8" y="370.3266">getMatchScore(): String</text></g><!--class Referee--><g id="elem_Referee"><rect codeLine="22" fill="#F1F1F1" height="63.8906" id="Referee" rx="1" ry="1" style="stroke:#181818;stroke-width:0.20000000000000004;" width="122.4492" x="664.4" y="275.8055"/><ellipse cx="713.9633" cy="282.2055" fill="#ADD1B2" rx="4.4" ry="4.4" style="stroke:#181818;stroke-width:0.4000000000000001;"/><path d="M715.0695,280.5555 Q715.132,280.468 715.207,280.4242 Q715.282,280.3805 715.3695,280.3805 Q715.5195,280.3805 715.6133,280.4867 Q715.707,280.5867 715.707,280.8305 L715.707,281.4117 Q715.707,281.6555 715.6133,281.7617 Q715.5195,281.868 715.3695,281.868 Q715.232,281.868 715.1508,281.7867 Q715.0695,281.7117 715.0258,281.5055 Q715.007,281.3617 714.932,281.2867 Q714.8008,281.1367 714.557,281.0492 Q714.3133,280.9617 714.0633,280.9617 Q713.757,280.9617 713.5008,281.093 Q713.2508,281.2242 713.0508,281.5242 Q712.857,281.8242 712.857,282.2367 L712.857,282.6742 Q712.857,283.168 713.2133,283.4992 Q713.5695,283.8242 714.207,283.8242 Q714.582,283.8242 714.8445,283.7242 Q715.0008,283.6617 715.1695,283.4867 Q715.2758,283.3805 715.332,283.3492 Q715.3945,283.318 715.4758,283.318 Q715.607,283.318 715.707,283.4242 Q715.8133,283.5242 715.8133,283.6617 Q715.8133,283.7992 715.6758,283.9617 Q715.4758,284.193 715.157,284.3242 Q714.7258,284.5055 714.207,284.5055 Q713.6008,284.5055 713.1195,284.2555 Q712.7258,284.0555 712.4508,283.6305 Q712.1758,283.1992 712.1758,282.6867 L712.1758,282.2242 Q712.1758,281.693 712.4195,281.2367 Q712.6695,280.7742 713.107,280.5305 Q713.5445,280.2805 714.0383,280.2805 Q714.332,280.2805 714.5883,280.3492 Q714.8508,280.4117 715.0695,280.5555 Z " fill="#000000"/><text fill="#000000" font-family="sans-serif" font-size="5.6" lengthAdjust="spacing" textLength="19.9227" x="722.1633" y="284.5242">Referee</text><line style="stroke:#181818;stroke-width:0.20000000000000004;" x1="664.8" x2="786.4492" y1="288.6055" y2="288.6055"/><rect fill="none" height="2.4" style="stroke:#C82930;stroke-width:0.4000000000000001;" width="2.4" x="667.6" y="293.3297"/><text fill="#000000" font-family="sans-serif" font-size="5.6" lengthAdjust="spacing" textLength="11.8289" x="672.4" y="296.2484">int id</text><rect fill="none" height="2.4" style="stroke:#C82930;stroke-width:0.4000000000000001;" width="2.4" x="667.6" y="300.7781"/><text fill="#000000" font-family="sans-serif" font-size="5.6" lengthAdjust="spacing" textLength="30.193" x="672.4" y="303.6969">String name</text><rect fill="none" height="2.4" style="stroke:#C82930;stroke-width:0.4000000000000001;" width="2.4" x="667.6" y="308.2266"/><text fill="#000000" font-family="sans-serif" font-size="5.6" lengthAdjust="spacing" textLength="40.1516" x="672.4" y="311.1453">String password</text><line style="stroke:#181818;stroke-width:0.20000000000000004;" x1="664.8" x2="786.4492" y1="314.1508" y2="314.1508"/><ellipse cx="668.8" cy="320.075" fill="#84BE84" rx="1.2" ry="1.2" style="stroke:#038048;stroke-width:0.4000000000000001;"/><text fill="#000000" font-family="sans-serif" font-size="5.6" lengthAdjust="spacing" textLength="112.0492" x="672.4" y="321.7938">Referee(int id, String name, String password)</text><ellipse cx="668.8" cy="327.5234" fill="#84BE84" rx="1.2" ry="1.2" style="stroke:#038048;stroke-width:0.4000000000000001;"/><text fill="#000000" font-family="sans-serif" font-size="5.6" lengthAdjust="spacing" textLength="26.4523" x="672.4" y="329.2422">getName()</text><ellipse cx="668.8" cy="334.9719" fill="#84BE84" rx="1.2" ry="1.2" style="stroke:#038048;stroke-width:0.4000000000000001;"/><text fill="#000000" font-family="sans-serif" font-size="5.6" lengthAdjust="spacing" textLength="97.4367" x="672.4" y="336.6906">authenticate(String password): boolean</text></g><!--class Player--><g id="elem_Player"><rect codeLine="32" fill="#F1F1F1" height="123.4781" id="Player" rx="1" ry="1" style="stroke:#181818;stroke-width:0.20000000000000004;" width="97.2383" x="521.4" y="397.6055"/><ellipse cx="560.3826" cy="404.0055" fill="#ADD1B2" rx="4.4" ry="4.4" style="stroke:#181818;stroke-width:0.4000000000000001;"/><path d="M561.4889,402.3555 Q561.5514,402.268 561.6264,402.2242 Q561.7014,402.1805 561.7889,402.1805 Q561.9389,402.1805 562.0326,402.2867 Q562.1264,402.3867 562.1264,402.6305 L562.1264,403.2117 Q562.1264,403.4555 562.0326,403.5617 Q561.9389,403.668 561.7889,403.668 Q561.6514,403.668 561.5701,403.5867 Q561.4889,403.5117 561.4451,403.3055 Q561.4264,403.1617 561.3514,403.0867 Q561.2201,402.9367 560.9764,402.8492 Q560.7326,402.7617 560.4826,402.7617 Q560.1764,402.7617 559.9201,402.893 Q559.6701,403.0242 559.4701,403.3242 Q559.2764,403.6242 559.2764,404.0367 L559.2764,404.4742 Q559.2764,404.968 559.6326,405.2992 Q559.9889,405.6242 560.6264,405.6242 Q561.0014,405.6242 561.2639,405.5242 Q561.4201,405.4617 561.5889,405.2867 Q561.6951,405.1805 561.7514,405.1492 Q561.8139,405.118 561.8951,405.118 Q562.0264,405.118 562.1264,405.2242 Q562.2326,405.3242 562.2326,405.4617 Q562.2326,405.5992 562.0951,405.7617 Q561.8951,405.993 561.5764,406.1242 Q561.1451,406.3055 560.6264,406.3055 Q560.0201,406.3055 559.5389,406.0555 Q559.1451,405.8555 558.8701,405.4305 Q558.5951,404.9992 558.5951,404.4867 L558.5951,404.0242 Q558.5951,403.493 558.8389,403.0367 Q559.0889,402.5742 559.5264,402.3305 Q559.9639,402.0805 560.4576,402.0805 Q560.7514,402.0805 561.0076,402.1492 Q561.2701,402.2117 561.4889,402.3555 Z " fill="#000000"/><text fill="#000000" font-family="sans-serif" font-size="5.6" lengthAdjust="spacing" textLength="15.873" x="568.5826" y="406.3242">Player</text><line style="stroke:#181818;stroke-width:0.20000000000000004;" x1="521.8" x2="618.2383" y1="410.4055" y2="410.4055"/><rect fill="none" height="2.4" style="stroke:#C82930;stroke-width:0.4000000000000001;" width="2.4" x="524.6" y="415.1297"/><text fill="#000000" font-family="sans-serif" font-size="5.6" lengthAdjust="spacing" textLength="11.8289" x="529.4" y="418.0484">int id</text><rect fill="none" height="2.4" style="stroke:#C82930;stroke-width:0.4000000000000001;" width="2.4" x="524.6" y="422.5781"/><text fill="#000000" font-family="sans-serif" font-size="5.6" lengthAdjust="spacing" textLength="30.193" x="529.4" y="425.4969">String name</text><rect fill="none" height="2.4" style="stroke:#C82930;stroke-width:0.4000000000000001;" width="2.4" x="524.6" y="430.0266"/><text fill="#000000" font-family="sans-serif" font-size="5.6" lengthAdjust="spacing" textLength="40.4633" x="529.4" y="432.9453">int currentPoints</text><rect fill="none" height="2.4" style="stroke:#C82930;stroke-width:0.4000000000000001;" width="2.4" x="524.6" y="437.475"/><text fill="#000000" font-family="sans-serif" font-size="5.6" lengthAdjust="spacing" textLength="44.5184" x="529.4" y="440.3938">boolean isServing</text><rect fill="none" height="2.4" style="stroke:#C82930;stroke-width:0.4000000000000001;" width="2.4" x="524.6" y="444.9234"/><text fill="#000000" font-family="sans-serif" font-size="5.6" lengthAdjust="spacing" textLength="56.0246" x="529.4" y="447.8422">int[] gamesWonPerSet</text><line style="stroke:#181818;stroke-width:0.20000000000000004;" x1="521.8" x2="618.2383" y1="450.8477" y2="450.8477"/><ellipse cx="525.8" cy="456.7719" fill="#84BE84" rx="1.2" ry="1.2" style="stroke:#038048;stroke-width:0.4000000000000001;"/><text fill="#000000" font-family="sans-serif" font-size="5.6" lengthAdjust="spacing" textLength="64.7363" x="529.4" y="458.4906">Player(int id, String name)</text><ellipse cx="525.8" cy="464.2203" fill="#84BE84" rx="1.2" ry="1.2" style="stroke:#038048;stroke-width:0.4000000000000001;"/><text fill="#000000" font-family="sans-serif" font-size="5.6" lengthAdjust="spacing" textLength="26.4523" x="529.4" y="465.9391">getName()</text><ellipse cx="525.8" cy="471.6688" fill="#84BE84" rx="1.2" ry="1.2" style="stroke:#038048;stroke-width:0.4000000000000001;"/><text fill="#000000" font-family="sans-serif" font-size="5.6" lengthAdjust="spacing" textLength="45.7516" x="529.4" y="473.3875">getCurrentPoints()</text><ellipse cx="525.8" cy="479.1172" fill="#84BE84" rx="1.2" ry="1.2" style="stroke:#038048;stroke-width:0.4000000000000001;"/><text fill="#000000" font-family="sans-serif" font-size="5.6" lengthAdjust="spacing" textLength="86.8383" x="529.4" y="480.8359">getGamesWonPerSet(int setIndex)</text><ellipse cx="525.8" cy="486.5656" fill="#84BE84" rx="1.2" ry="1.2" style="stroke:#038048;stroke-width:0.4000000000000001;"/><text fill="#000000" font-family="sans-serif" font-size="5.6" lengthAdjust="spacing" textLength="73.1418" x="529.4" y="488.2844">winGamePerSet(int setIndex)</text><text fill="#000000" font-family="sans-serif" font-size="5.6" lengthAdjust="spacing" textLength="39.3723" x="529.4" y="495.7328">## + isServing()</text><ellipse cx="525.8" cy="501.4625" fill="#84BE84" rx="1.2" ry="1.2" style="stroke:#038048;stroke-width:0.4000000000000001;"/><text fill="#000000" font-family="sans-serif" font-size="5.6" lengthAdjust="spacing" textLength="30.1875" x="529.4" y="503.1813">scorePoint()</text><ellipse cx="525.8" cy="508.9109" fill="#84BE84" rx="1.2" ry="1.2" style="stroke:#038048;stroke-width:0.4000000000000001;"/><text fill="#000000" font-family="sans-serif" font-size="5.6" lengthAdjust="spacing" textLength="31.7434" x="529.4" y="510.6297">resetPoints()</text><text fill="#000000" font-family="sans-serif" font-size="5.6" lengthAdjust="spacing" textLength="56.1832" x="529.4" y="518.0781">##+ resetPlayerState()</text></g><!--class Set--><g id="elem_Set"><rect codeLine="50" fill="#F1F1F1" height="101.1328" id="Set" rx="1" ry="1" style="stroke:#181818;stroke-width:0.20000000000000004;" width="95.0508" x="632.8" y="408.8055"/><ellipse cx="674.4227" cy="415.2055" fill="#ADD1B2" rx="4.4" ry="4.4" style="stroke:#181818;stroke-width:0.4000000000000001;"/><path d="M675.5289,413.5555 Q675.5914,413.468 675.6664,413.4242 Q675.7414,413.3805 675.8289,413.3805 Q675.9789,413.3805 676.0727,413.4867 Q676.1664,413.5867 676.1664,413.8305 L676.1664,414.4117 Q676.1664,414.6555 676.0727,414.7617 Q675.9789,414.868 675.8289,414.868 Q675.6914,414.868 675.6102,414.7867 Q675.5289,414.7117 675.4852,414.5055 Q675.4664,414.3617 675.3914,414.2867 Q675.2602,414.1367 675.0164,414.0492 Q674.7727,413.9617 674.5227,413.9617 Q674.2164,413.9617 673.9602,414.093 Q673.7102,414.2242 673.5102,414.5242 Q673.3164,414.8242 673.3164,415.2367 L673.3164,415.6742 Q673.3164,416.168 673.6727,416.4992 Q674.0289,416.8242 674.6664,416.8242 Q675.0414,416.8242 675.3039,416.7242 Q675.4602,416.6617 675.6289,416.4867 Q675.7352,416.3805 675.7914,416.3492 Q675.8539,416.318 675.9352,416.318 Q676.0664,416.318 676.1664,416.4242 Q676.2727,416.5242 676.2727,416.6617 Q676.2727,416.7992 676.1352,416.9617 Q675.9352,417.193 675.6164,417.3242 Q675.1852,417.5055 674.6664,417.5055 Q674.0602,417.5055 673.5789,417.2555 Q673.1852,417.0555 672.9102,416.6305 Q672.6352,416.1992 672.6352,415.6867 L672.6352,415.2242 Q672.6352,414.693 672.8789,414.2367 Q673.1289,413.7742 673.5664,413.5305 Q674.0039,413.2805 674.4977,413.2805 Q674.7914,413.2805 675.0477,413.3492 Q675.3102,413.4117 675.5289,413.5555 Z " fill="#000000"/><text fill="#000000" font-family="sans-serif" font-size="5.6" lengthAdjust="spacing" textLength="8.4055" x="682.6227" y="417.5242">Set</text><line style="stroke:#181818;stroke-width:0.20000000000000004;" x1="633.2" x2="727.4508" y1="421.6055" y2="421.6055"/><rect fill="none" height="2.4" style="stroke:#C82930;stroke-width:0.4000000000000001;" width="2.4" x="636" y="426.3297"/><text fill="#000000" font-family="sans-serif" font-size="5.6" lengthAdjust="spacing" textLength="70.9598" x="640.8" y="429.2484">int playerServiceGamesWon</text><rect fill="none" height="2.4" style="stroke:#C82930;stroke-width:0.4000000000000001;" width="2.4" x="636" y="433.7781"/><text fill="#000000" font-family="sans-serif" font-size="5.6" lengthAdjust="spacing" textLength="63.8012" x="640.8" y="436.6969">int playerRestGamesWon</text><rect fill="none" height="2.4" style="stroke:#C82930;stroke-width:0.4000000000000001;" width="2.4" x="636" y="441.2266"/><text fill="#000000" font-family="sans-serif" font-size="5.6" lengthAdjust="spacing" textLength="57.2797" x="640.8" y="444.1453">boolean tieBreakActive</text><line style="stroke:#181818;stroke-width:0.20000000000000004;" x1="633.2" x2="727.4508" y1="447.1508" y2="447.1508"/><ellipse cx="637.2" cy="453.075" fill="#84BE84" rx="1.2" ry="1.2" style="stroke:#038048;stroke-width:0.4000000000000001;"/><text fill="#000000" font-family="sans-serif" font-size="5.6" lengthAdjust="spacing" textLength="12.1352" x="640.8" y="454.7938">Set()</text><ellipse cx="637.2" cy="460.5234" fill="#84BE84" rx="1.2" ry="1.2" style="stroke:#038048;stroke-width:0.4000000000000001;"/><text fill="#000000" font-family="sans-serif" font-size="5.6" lengthAdjust="spacing" textLength="84.6508" x="640.8" y="462.2422">getPlayerServiceGamesWon(): int</text><ellipse cx="637.2" cy="467.9719" fill="#84BE84" rx="1.2" ry="1.2" style="stroke:#038048;stroke-width:0.4000000000000001;"/><text fill="#000000" font-family="sans-serif" font-size="5.6" lengthAdjust="spacing" textLength="77.4922" x="640.8" y="469.6906">getPlayerRestGamesWon(): int</text><ellipse cx="637.2" cy="475.4203" fill="#84BE84" rx="1.2" ry="1.2" style="stroke:#038048;stroke-width:0.4000000000000001;"/><text fill="#000000" font-family="sans-serif" font-size="5.6" lengthAdjust="spacing" textLength="62.5488" x="640.8" y="477.1391">playerServiceWinGame()</text><ellipse cx="637.2" cy="482.8688" fill="#84BE84" rx="1.2" ry="1.2" style="stroke:#038048;stroke-width:0.4000000000000001;"/><text fill="#000000" font-family="sans-serif" font-size="5.6" lengthAdjust="spacing" textLength="55.3902" x="640.8" y="484.5875">playerRestWinGame()</text><ellipse cx="637.2" cy="490.3172" fill="#84BE84" rx="1.2" ry="1.2" style="stroke:#038048;stroke-width:0.4000000000000001;"/><text fill="#000000" font-family="sans-serif" font-size="5.6" lengthAdjust="spacing" textLength="51.357" x="640.8" y="492.0359">isSetOver(): boolean</text><ellipse cx="637.2" cy="497.7656" fill="#84BE84" rx="1.2" ry="1.2" style="stroke:#038048;stroke-width:0.4000000000000001;"/><text fill="#000000" font-family="sans-serif" font-size="5.6" lengthAdjust="spacing" textLength="75.95" x="640.8" y="499.4844">isTieBreakRequired(): boolean</text><ellipse cx="637.2" cy="505.2141" fill="#84BE84" rx="1.2" ry="1.2" style="stroke:#038048;stroke-width:0.4000000000000001;"/><text fill="#000000" font-family="sans-serif" font-size="5.6" lengthAdjust="spacing" textLength="52.2895" x="640.8" y="506.9328">getSetScore(): String</text></g><!--class Game--><g id="elem_Game"><rect codeLine="65" fill="#F1F1F1" height="63.8906" id="Game" rx="1" ry="1" style="stroke:#181818;stroke-width:0.20000000000000004;" width="128.041" x="347.6" y="275.8055"/><ellipse cx="402.2957" cy="282.2055" fill="#ADD1B2" rx="4.4" ry="4.4" style="stroke:#181818;stroke-width:0.4000000000000001;"/><path d="M403.402,280.5555 Q403.4645,280.468 403.5395,280.4242 Q403.6145,280.3805 403.702,280.3805 Q403.852,280.3805 403.9457,280.4867 Q404.0395,280.5867 404.0395,280.8305 L404.0395,281.4117 Q404.0395,281.6555 403.9457,281.7617 Q403.852,281.868 403.702,281.868 Q403.5645,281.868 403.4832,281.7867 Q403.402,281.7117 403.3582,281.5055 Q403.3395,281.3617 403.2645,281.2867 Q403.1332,281.1367 402.8895,281.0492 Q402.6457,280.9617 402.3957,280.9617 Q402.0895,280.9617 401.8332,281.093 Q401.5832,281.2242 401.3832,281.5242 Q401.1895,281.8242 401.1895,282.2367 L401.1895,282.6742 Q401.1895,283.168 401.5457,283.4992 Q401.902,283.8242 402.5395,283.8242 Q402.9145,283.8242 403.177,283.7242 Q403.3332,283.6617 403.502,283.4867 Q403.6082,283.3805 403.6645,283.3492 Q403.727,283.318 403.8082,283.318 Q403.9395,283.318 404.0395,283.4242 Q404.1457,283.5242 404.1457,283.6617 Q404.1457,283.7992 404.0082,283.9617 Q403.8082,284.193 403.4895,284.3242 Q403.0582,284.5055 402.5395,284.5055 Q401.9332,284.5055 401.452,284.2555 Q401.0582,284.0555 400.7832,283.6305 Q400.5082,283.1992 400.5082,282.6867 L400.5082,282.2242 Q400.5082,281.693 400.752,281.2367 Q401.002,280.7742 401.4395,280.5305 Q401.877,280.2805 402.3707,280.2805 Q402.6645,280.2805 402.9207,280.3492 Q403.1832,280.4117 403.402,280.5555 Z " fill="#000000"/><text fill="#000000" font-family="sans-serif" font-size="5.6" lengthAdjust="spacing" textLength="15.2496" x="410.4957" y="284.5242">Game</text><line style="stroke:#181818;stroke-width:0.20000000000000004;" x1="348" x2="475.241" y1="288.6055" y2="288.6055"/><rect fill="none" height="2.4" style="stroke:#C82930;stroke-width:0.4000000000000001;" width="2.4" x="350.8" y="293.3297"/><text fill="#000000" font-family="sans-serif" font-size="5.6" lengthAdjust="spacing" textLength="51.3543" x="355.6" y="296.2484">Player playerService</text><rect fill="none" height="2.4" style="stroke:#C82930;stroke-width:0.4000000000000001;" width="2.4" x="350.8" y="300.7781"/><text fill="#000000" font-family="sans-serif" font-size="5.6" lengthAdjust="spacing" textLength="44.1957" x="355.6" y="303.6969">Player playerRest</text><line style="stroke:#181818;stroke-width:0.20000000000000004;" x1="348" x2="475.241" y1="306.7023" y2="306.7023"/><ellipse cx="352" cy="312.6266" fill="#84BE84" rx="1.2" ry="1.2" style="stroke:#038048;stroke-width:0.4000000000000001;"/><text fill="#000000" font-family="sans-serif" font-size="5.6" lengthAdjust="spacing" textLength="117.641" x="355.6" y="314.3453">Game(Player playerService, Player playerRest)</text><ellipse cx="352" cy="320.075" fill="#84BE84" rx="1.2" ry="1.2" style="stroke:#038048;stroke-width:0.4000000000000001;"/><text fill="#000000" font-family="sans-serif" font-size="5.6" lengthAdjust="spacing" textLength="58.5184" x="355.6" y="321.7938">addPoint(Player player)</text><ellipse cx="352" cy="327.5234" fill="#84BE84" rx="1.2" ry="1.2" style="stroke:#038048;stroke-width:0.4000000000000001;"/><text fill="#000000" font-family="sans-serif" font-size="5.6" lengthAdjust="spacing" textLength="51.3461" x="355.6" y="329.2422">checkGameWinner()</text><ellipse cx="352" cy="334.9719" fill="#84BE84" rx="1.2" ry="1.2" style="stroke:#038048;stroke-width:0.4000000000000001;"/><text fill="#000000" font-family="sans-serif" font-size="5.6" lengthAdjust="spacing" textLength="31.7434" x="355.6" y="336.6906">resetPoints()</text></g><!--class TieBreak--><g id="elem_TieBreak"><rect codeLine="76" fill="#F1F1F1" height="41.5453" id="TieBreak" rx="1" ry="1" style="stroke:#181818;stroke-width:0.20000000000000004;" width="135.1996" x="347.6" y="438.6055"/><ellipse cx="402.2957" cy="445.0055" fill="#ADD1B2" rx="4.4" ry="4.4" style="stroke:#181818;stroke-width:0.4000000000000001;"/><path d="M403.402,443.3555 Q403.4645,443.268 403.5395,443.2242 Q403.6145,443.1805 403.702,443.1805 Q403.852,443.1805 403.9457,443.2867 Q404.0395,443.3867 404.0395,443.6305 L404.0395,444.2117 Q404.0395,444.4555 403.9457,444.5617 Q403.852,444.668 403.702,444.668 Q403.5645,444.668 403.4832,444.5867 Q403.402,444.5117 403.3582,444.3055 Q403.3395,444.1617 403.2645,444.0867 Q403.1332,443.9367 402.8895,443.8492 Q402.6457,443.7617 402.3957,443.7617 Q402.0895,443.7617 401.8332,443.893 Q401.5832,444.0242 401.3832,444.3242 Q401.1895,444.6242 401.1895,445.0367 L401.1895,445.4742 Q401.1895,445.968 401.5457,446.2992 Q401.902,446.6242 402.5395,446.6242 Q402.9145,446.6242 403.177,446.5242 Q403.3332,446.4617 403.502,446.2867 Q403.6082,446.1805 403.6645,446.1492 Q403.727,446.118 403.8082,446.118 Q403.9395,446.118 404.0395,446.2242 Q404.1457,446.3242 404.1457,446.4617 Q404.1457,446.5992 404.0082,446.7617 Q403.8082,446.993 403.4895,447.1242 Q403.0582,447.3055 402.5395,447.3055 Q401.9332,447.3055 401.452,447.0555 Q401.0582,446.8555 400.7832,446.4305 Q400.5082,445.9992 400.5082,445.4867 L400.5082,445.0242 Q400.5082,444.493 400.752,444.0367 Q401.002,443.5742 401.4395,443.3305 Q401.877,443.0805 402.3707,443.0805 Q402.6645,443.0805 402.9207,443.1492 Q403.1832,443.2117 403.402,443.3555 Z " fill="#000000"/><text fill="#000000" font-family="sans-serif" font-size="5.6" lengthAdjust="spacing" textLength="22.4082" x="410.4957" y="447.3242">TieBreak</text><line style="stroke:#181818;stroke-width:0.20000000000000004;" x1="348" x2="482.3996" y1="451.4055" y2="451.4055"/><line style="stroke:#181818;stroke-width:0.20000000000000004;" x1="348" x2="482.3996" y1="454.6055" y2="454.6055"/><ellipse cx="352" cy="460.5297" fill="#84BE84" rx="1.2" ry="1.2" style="stroke:#038048;stroke-width:0.4000000000000001;"/><text fill="#000000" font-family="sans-serif" font-size="5.6" lengthAdjust="spacing" textLength="124.7996" x="355.6" y="462.2484">TieBreak(Player playerService, Player playerRest)</text><ellipse cx="352" cy="467.9781" fill="#84BE84" rx="1.2" ry="1.2" style="stroke:#038048;stroke-width:0.4000000000000001;"/><text fill="#000000" font-family="sans-serif" font-size="5.6" lengthAdjust="spacing" textLength="58.5184" x="355.6" y="469.6969">addPoint(Player player)</text><ellipse cx="352" cy="475.4266" fill="#84BE84" rx="1.2" ry="1.2" style="stroke:#038048;stroke-width:0.4000000000000001;"/><text fill="#000000" font-family="sans-serif" font-size="5.6" lengthAdjust="spacing" textLength="58.5047" x="355.6" y="477.1453">checkTieBreakWinner()</text></g><!--class MatchView--><g id="elem_MatchView"><rect codeLine="85" fill="#F1F1F1" height="56.4422" id="MatchView" rx="1" ry="1" style="stroke:#181818;stroke-width:0.20000000000000004;" width="155.4313" x="325" y="20.4055"/><ellipse cx="387.3219" cy="26.8055" fill="#ADD1B2" rx="4.4" ry="4.4" style="stroke:#181818;stroke-width:0.4000000000000001;"/><path d="M388.4281,25.1555 Q388.4906,25.068 388.5656,25.0242 Q388.6406,24.9805 388.7281,24.9805 Q388.8781,24.9805 388.9719,25.0867 Q389.0656,25.1867 389.0656,25.4305 L389.0656,26.0117 Q389.0656,26.2555 388.9719,26.3617 Q388.8781,26.468 388.7281,26.468 Q388.5906,26.468 388.5094,26.3867 Q388.4281,26.3117 388.3844,26.1055 Q388.3656,25.9617 388.2906,25.8867 Q388.1594,25.7367 387.9156,25.6492 Q387.6719,25.5617 387.4219,25.5617 Q387.1156,25.5617 386.8594,25.693 Q386.6094,25.8242 386.4094,26.1242 Q386.2156,26.4242 386.2156,26.8367 L386.2156,27.2742 Q386.2156,27.768 386.5719,28.0992 Q386.9281,28.4242 387.5656,28.4242 Q387.9406,28.4242 388.2031,28.3242 Q388.3594,28.2617 388.5281,28.0867 Q388.6344,27.9805 388.6906,27.9492 Q388.7531,27.918 388.8344,27.918 Q388.9656,27.918 389.0656,28.0242 Q389.1719,28.1242 389.1719,28.2617 Q389.1719,28.3992 389.0344,28.5617 Q388.8344,28.793 388.5156,28.9242 Q388.0844,29.1055 387.5656,29.1055 Q386.9594,29.1055 386.4781,28.8555 Q386.0844,28.6555 385.8094,28.2305 Q385.5344,27.7992 385.5344,27.2867 L385.5344,26.8242 Q385.5344,26.293 385.7781,25.8367 Q386.0281,25.3742 386.4656,25.1305 Q386.9031,24.8805 387.3969,24.8805 Q387.6906,24.8805 387.9469,24.9492 Q388.2094,25.0117 388.4281,25.1555 Z " fill="#000000"/><text fill="#000000" font-family="sans-serif" font-size="5.6" lengthAdjust="spacing" textLength="27.3875" x="395.5219" y="29.1242">MatchView</text><line style="stroke:#181818;stroke-width:0.20000000000000004;" x1="325.4" x2="480.0313" y1="33.2055" y2="33.2055"/><line style="stroke:#181818;stroke-width:0.20000000000000004;" x1="325.4" x2="480.0313" y1="36.4055" y2="36.4055"/><ellipse cx="329.4" cy="42.3297" fill="#84BE84" rx="1.2" ry="1.2" style="stroke:#038048;stroke-width:0.4000000000000001;"/><text fill="#000000" font-family="sans-serif" font-size="5.6" lengthAdjust="spacing" textLength="145.0313" x="333" y="44.0484">displayMatchScore(MatchController matchController): void</text><ellipse cx="329.4" cy="49.7781" fill="#84BE84" rx="1.2" ry="1.2" style="stroke:#038048;stroke-width:0.4000000000000001;"/><text fill="#000000" font-family="sans-serif" font-size="5.6" lengthAdjust="spacing" textLength="46.9902" x="333" y="51.4969">promptCommand()</text><ellipse cx="329.4" cy="57.2266" fill="#84BE84" rx="1.2" ry="1.2" style="stroke:#038048;stroke-width:0.4000000000000001;"/><text fill="#000000" font-family="sans-serif" font-size="5.6" lengthAdjust="spacing" textLength="89.6383" x="333" y="58.9453">displayPlayerCreated(Player player)</text><ellipse cx="329.4" cy="64.675" fill="#84BE84" rx="1.2" ry="1.2" style="stroke:#038048;stroke-width:0.4000000000000001;"/><text fill="#000000" font-family="sans-serif" font-size="5.6" lengthAdjust="spacing" textLength="100.2285" x="333" y="66.3938">displayRefereeCreated(Referee referee)</text><ellipse cx="329.4" cy="72.1234" fill="#84BE84" rx="1.2" ry="1.2" style="stroke:#038048;stroke-width:0.4000000000000001;"/><text fill="#000000" font-family="sans-serif" font-size="5.6" lengthAdjust="spacing" textLength="92.4547" x="333" y="73.8422">displayLoginStatus(boolean success)</text></g><!--class MatchController--><g id="elem_MatchController"><rect codeLine="95" fill="#F1F1F1" height="63.8906" id="MatchController" rx="1" ry="1" style="stroke:#181818;stroke-width:0.20000000000000004;" width="175.9773" x="12" y="131.2055"/><ellipse cx="78.526" cy="137.6055" fill="#ADD1B2" rx="4.4" ry="4.4" style="stroke:#181818;stroke-width:0.4000000000000001;"/><path d="M79.6322,135.9555 Q79.6947,135.868 79.7697,135.8242 Q79.8447,135.7805 79.9322,135.7805 Q80.0822,135.7805 80.176,135.8867 Q80.2697,135.9867 80.2697,136.2305 L80.2697,136.8117 Q80.2697,137.0555 80.176,137.1617 Q80.0822,137.268 79.9322,137.268 Q79.7947,137.268 79.7135,137.1867 Q79.6322,137.1117 79.5885,136.9055 Q79.5697,136.7617 79.4947,136.6867 Q79.3635,136.5367 79.1197,136.4492 Q78.876,136.3617 78.626,136.3617 Q78.3197,136.3617 78.0635,136.493 Q77.8135,136.6242 77.6135,136.9242 Q77.4197,137.2242 77.4197,137.6367 L77.4197,138.0742 Q77.4197,138.568 77.776,138.8992 Q78.1322,139.2242 78.7697,139.2242 Q79.1447,139.2242 79.4072,139.1242 Q79.5635,139.0617 79.7322,138.8867 Q79.8385,138.7805 79.8947,138.7492 Q79.9572,138.718 80.0385,138.718 Q80.1697,138.718 80.2697,138.8242 Q80.376,138.9242 80.376,139.0617 Q80.376,139.1992 80.2385,139.3617 Q80.0385,139.593 79.7197,139.7242 Q79.2885,139.9055 78.7697,139.9055 Q78.1635,139.9055 77.6822,139.6555 Q77.2885,139.4555 77.0135,139.0305 Q76.7385,138.5992 76.7385,138.0867 L76.7385,137.6242 Q76.7385,137.093 76.9822,136.6367 Q77.2322,136.1742 77.6697,135.9305 Q78.1072,135.6805 78.601,135.6805 Q78.8947,135.6805 79.151,135.7492 Q79.4135,135.8117 79.6322,135.9555 Z " fill="#000000"/><text fill="#000000" font-family="sans-serif" font-size="5.6" lengthAdjust="spacing" textLength="39.5254" x="86.726" y="139.9242">MatchController</text><line style="stroke:#181818;stroke-width:0.20000000000000004;" x1="12.4" x2="187.5773" y1="144.0055" y2="144.0055"/><rect fill="none" height="2.4" style="stroke:#C82930;stroke-width:0.4000000000000001;" width="2.4" x="15.2" y="148.7297"/><text fill="#000000" font-family="sans-serif" font-size="5.6" lengthAdjust="spacing" textLength="32.0551" x="20" y="151.6484">Match match</text><line style="stroke:#181818;stroke-width:0.20000000000000004;" x1="12.4" x2="187.5773" y1="154.6539" y2="154.6539"/><ellipse cx="16.4" cy="160.5781" fill="#84BE84" rx="1.2" ry="1.2" style="stroke:#038048;stroke-width:0.4000000000000001;"/><text fill="#000000" font-family="sans-serif" font-size="5.6" lengthAdjust="spacing" textLength="43.2551" x="20" y="162.2969">MatchController()</text><ellipse cx="16.4" cy="168.0266" fill="#84BE84" rx="1.2" ry="1.2" style="stroke:#038048;stroke-width:0.4000000000000001;"/><text fill="#000000" font-family="sans-serif" font-size="5.6" lengthAdjust="spacing" textLength="165.5773" x="20" y="169.7453">createMatch(int totalSets, Player playerService, Player playerRest)</text><ellipse cx="16.4" cy="175.475" fill="#84BE84" rx="1.2" ry="1.2" style="stroke:#038048;stroke-width:0.4000000000000001;"/><text fill="#000000" font-family="sans-serif" font-size="5.6" lengthAdjust="spacing" textLength="66.9184" x="20" y="177.1938">addPointToPlayerService()</text><ellipse cx="16.4" cy="182.9234" fill="#84BE84" rx="1.2" ry="1.2" style="stroke:#038048;stroke-width:0.4000000000000001;"/><text fill="#000000" font-family="sans-serif" font-size="5.6" lengthAdjust="spacing" textLength="59.7598" x="20" y="184.6422">addPointToPlayerRest()</text><ellipse cx="16.4" cy="190.3719" fill="#84BE84" rx="1.2" ry="1.2" style="stroke:#038048;stroke-width:0.4000000000000001;"/><text fill="#000000" font-family="sans-serif" font-size="5.6" lengthAdjust="spacing" textLength="59.1336" x="20" y="192.0906">getMatchScore(): String</text></g><!--class PlayerController--><g id="elem_PlayerController"><rect codeLine="105" fill="#F1F1F1" height="56.4422" id="PlayerController" rx="1" ry="1" style="stroke:#181818;stroke-width:0.20000000000000004;" width="94.7445" x="202.2" y="135.0055"/><ellipse cx="227.7979" cy="141.4055" fill="#ADD1B2" rx="4.4" ry="4.4" style="stroke:#181818;stroke-width:0.4000000000000001;"/><path d="M228.9041,139.7555 Q228.9666,139.668 229.0416,139.6242 Q229.1166,139.5805 229.2041,139.5805 Q229.3541,139.5805 229.4479,139.6867 Q229.5416,139.7867 229.5416,140.0305 L229.5416,140.6117 Q229.5416,140.8555 229.4479,140.9617 Q229.3541,141.068 229.2041,141.068 Q229.0666,141.068 228.9854,140.9867 Q228.9041,140.9117 228.8604,140.7055 Q228.8416,140.5617 228.7666,140.4867 Q228.6354,140.3367 228.3916,140.2492 Q228.1479,140.1617 227.8979,140.1617 Q227.5916,140.1617 227.3354,140.293 Q227.0854,140.4242 226.8854,140.7242 Q226.6916,141.0242 226.6916,141.4367 L226.6916,141.8742 Q226.6916,142.368 227.0479,142.6992 Q227.4041,143.0242 228.0416,143.0242 Q228.4166,143.0242 228.6791,142.9242 Q228.8354,142.8617 229.0041,142.6867 Q229.1104,142.5805 229.1666,142.5492 Q229.2291,142.518 229.3104,142.518 Q229.4416,142.518 229.5416,142.6242 Q229.6479,142.7242 229.6479,142.8617 Q229.6479,142.9992 229.5104,143.1617 Q229.3104,143.393 228.9916,143.5242 Q228.5604,143.7055 228.0416,143.7055 Q227.4354,143.7055 226.9541,143.4555 Q226.5604,143.2555 226.2854,142.8305 Q226.0104,142.3992 226.0104,141.8867 L226.0104,141.4242 Q226.0104,140.893 226.2541,140.4367 Q226.5041,139.9742 226.9416,139.7305 Q227.3791,139.4805 227.8729,139.4805 Q228.1666,139.4805 228.4229,139.5492 Q228.6854,139.6117 228.9041,139.7555 Z " fill="#000000"/><text fill="#000000" font-family="sans-serif" font-size="5.6" lengthAdjust="spacing" textLength="40.1488" x="235.9979" y="143.7242">PlayerController</text><line style="stroke:#181818;stroke-width:0.20000000000000004;" x1="202.6" x2="296.5445" y1="147.8055" y2="147.8055"/><rect fill="none" height="2.4" style="stroke:#C82930;stroke-width:0.4000000000000001;" width="2.4" x="205.4" y="152.5297"/><text fill="#000000" font-family="sans-serif" font-size="5.6" lengthAdjust="spacing" textLength="64.1156" x="210.2" y="155.4484">ArrayList&lt;Player&gt; players</text><line style="stroke:#181818;stroke-width:0.20000000000000004;" x1="202.6" x2="296.5445" y1="158.4539" y2="158.4539"/><ellipse cx="206.6" cy="164.3781" fill="#84BE84" rx="1.2" ry="1.2" style="stroke:#038048;stroke-width:0.4000000000000001;"/><text fill="#000000" font-family="sans-serif" font-size="5.6" lengthAdjust="spacing" textLength="43.8785" x="210.2" y="166.0969">PlayerController()</text><ellipse cx="206.6" cy="171.8266" fill="#84BE84" rx="1.2" ry="1.2" style="stroke:#038048;stroke-width:0.4000000000000001;"/><text fill="#000000" font-family="sans-serif" font-size="5.6" lengthAdjust="spacing" textLength="84.3445" x="210.2" y="173.5453">createPlayer(String name): Player</text><ellipse cx="206.6" cy="179.275" fill="#84BE84" rx="1.2" ry="1.2" style="stroke:#038048;stroke-width:0.4000000000000001;"/><text fill="#000000" font-family="sans-serif" font-size="5.6" lengthAdjust="spacing" textLength="69.4066" x="210.2" y="180.9938">getPlayerById(int id): Player</text><ellipse cx="206.6" cy="186.7234" fill="#84BE84" rx="1.2" ry="1.2" style="stroke:#038048;stroke-width:0.4000000000000001;"/><text fill="#000000" font-family="sans-serif" font-size="5.6" lengthAdjust="spacing" textLength="64.4273" x="210.2" y="188.4422">getPlayers(): List&lt;Player&gt;</text></g><!--class RefereeController--><g id="elem_RefereeController"><rect codeLine="114" fill="#F1F1F1" height="63.8906" id="RefereeController" rx="1" ry="1" style="stroke:#181818;stroke-width:0.20000000000000004;" width="146.107" x="27" y="275.8055"/><ellipse cx="76.2543" cy="282.2055" fill="#ADD1B2" rx="4.4" ry="4.4" style="stroke:#181818;stroke-width:0.4000000000000001;"/><path d="M77.3605,280.5555 Q77.423,280.468 77.498,280.4242 Q77.573,280.3805 77.6605,280.3805 Q77.8105,280.3805 77.9043,280.4867 Q77.998,280.5867 77.998,280.8305 L77.998,281.4117 Q77.998,281.6555 77.9043,281.7617 Q77.8105,281.868 77.6605,281.868 Q77.523,281.868 77.4418,281.7867 Q77.3605,281.7117 77.3168,281.5055 Q77.298,281.3617 77.223,281.2867 Q77.0918,281.1367 76.848,281.0492 Q76.6043,280.9617 76.3543,280.9617 Q76.048,280.9617 75.7918,281.093 Q75.5418,281.2242 75.3418,281.5242 Q75.148,281.8242 75.148,282.2367 L75.148,282.6742 Q75.148,283.168 75.5043,283.4992 Q75.8605,283.8242 76.498,283.8242 Q76.873,283.8242 77.1355,283.7242 Q77.2918,283.6617 77.4605,283.4867 Q77.5668,283.3805 77.623,283.3492 Q77.6855,283.318 77.7668,283.318 Q77.898,283.318 77.998,283.4242 Q78.1043,283.5242 78.1043,283.6617 Q78.1043,283.7992 77.9668,283.9617 Q77.7668,284.193 77.448,284.3242 Q77.0168,284.5055 76.498,284.5055 Q75.8918,284.5055 75.4105,284.2555 Q75.0168,284.0555 74.7418,283.6305 Q74.4668,283.1992 74.4668,282.6867 L74.4668,282.2242 Q74.4668,281.693 74.7105,281.2367 Q74.9605,280.7742 75.398,280.5305 Q75.8355,280.2805 76.3293,280.2805 Q76.623,280.2805 76.8793,280.3492 Q77.1418,280.4117 77.3605,280.5555 Z " fill="#000000"/><text fill="#000000" font-family="sans-serif" font-size="5.6" lengthAdjust="spacing" textLength="44.1984" x="84.4543" y="284.5242">RefereeController</text><line style="stroke:#181818;stroke-width:0.20000000000000004;" x1="27.4" x2="172.707" y1="288.6055" y2="288.6055"/><rect fill="none" height="2.4" style="stroke:#C82930;stroke-width:0.4000000000000001;" width="2.4" x="30.2" y="293.3297"/><text fill="#000000" font-family="sans-serif" font-size="5.6" lengthAdjust="spacing" textLength="70.6563" x="35" y="296.2484">ArrayList&lt;Referee&gt; referees</text><rect fill="none" height="2.4" style="stroke:#C82930;stroke-width:0.4000000000000001;" width="2.4" x="30.2" y="300.7781"/><text fill="#000000" font-family="sans-serif" font-size="5.6" lengthAdjust="spacing" textLength="58.2176" x="35" y="303.6969">Referee loggedReferee</text><line style="stroke:#181818;stroke-width:0.20000000000000004;" x1="27.4" x2="172.707" y1="306.7023" y2="306.7023"/><ellipse cx="31.4" cy="312.6266" fill="#84BE84" rx="1.2" ry="1.2" style="stroke:#038048;stroke-width:0.4000000000000001;"/><text fill="#000000" font-family="sans-serif" font-size="5.6" lengthAdjust="spacing" textLength="47.9281" x="35" y="314.3453">RefereeController()</text><ellipse cx="31.4" cy="320.075" fill="#84BE84" rx="1.2" ry="1.2" style="stroke:#038048;stroke-width:0.4000000000000001;"/><text fill="#000000" font-family="sans-serif" font-size="5.6" lengthAdjust="spacing" textLength="135.707" x="35" y="321.7938">createReferee(String name, String password): Referee</text><ellipse cx="31.4" cy="327.5234" fill="#84BE84" rx="1.2" ry="1.2" style="stroke:#038048;stroke-width:0.4000000000000001;"/><text fill="#000000" font-family="sans-serif" font-size="5.6" lengthAdjust="spacing" textLength="112.0602" x="35" y="329.2422">login(String name, String password): boolean</text><ellipse cx="31.4" cy="334.9719" fill="#84BE84" rx="1.2" ry="1.2" style="stroke:#038048;stroke-width:0.4000000000000001;"/><text fill="#000000" font-family="sans-serif" font-size="5.6" lengthAdjust="spacing" textLength="18.9875" x="35" y="336.6906">logout()</text></g><!--reverse link Game to TieBreak--><g id="link_Game_TieBreak"><path d="M412.5275,347.0154 C413.2355,376.7274 414.104,413.1175 414.712,438.5255 " fill="none" id="Game-backto-TieBreak" style="stroke:#181818;stroke-width:0.4000000000000001;"/><polygon fill="none" points="412.356,339.8175,410.1282,347.0726,414.9268,346.9583,412.356,339.8175" style="stroke:#181818;stroke-width:0.4000000000000001;"/></g><!--link controller to model--><g id="link_controller_model"><path codeLine="125" d="M314.4147,184.2494 C314.5399,185.0529 314.6678,185.8742 314.7984,186.7123 C316.887,200.1211 319.6435,217.8167 322.4,235.512 C325.1565,253.2072 327.913,270.9021 330.0016,284.3094 C330.1322,285.1474 329.8907,283.5972 330.0158,284.4006 " fill="none" id="controller-to-model" style="stroke:#181818;stroke-width:0.4000000000000001;stroke-dasharray:7.0,7.0;"/><polygon fill="#181818" points="330.3853,286.772,331.412,282.9686,330.0774,284.7958,328.2502,283.4612,330.3853,286.772" style="stroke:#181818;stroke-width:0.4000000000000001;"/><text fill="#000000" font-family="sans-serif" font-size="5.2" lengthAdjust="spacing" textLength="15.9047" x="319.2" y="213.2168">update</text></g><!--link view to controller--><g id="link_view_controller"><path codeLine="126" d="M307.5327,55.298 C307.4354,55.494 307.3366,55.6938 307.2363,55.8974 C306.8352,56.7118 306.4105,57.5866 305.9677,58.5152 C305.082,60.3724 304.124,62.4451 303.138,64.681 C299.194,73.6245 294.802,85.1795 292.8,96.0055 C292.184,99.3255 290.78,100.8975 292.8,103.6055 C295.796,107.6175 300.34,103.0055 303.6,106.8055 C304.606,107.9785 305.517,109.2191 306.3408,110.5146 C306.7528,111.1624 307.1429,111.8239 307.5123,112.4975 C307.6046,112.6659 306.5746,110.713 306.6643,110.8828 " fill="none" id="view-to-controller" style="stroke:#181818;stroke-width:0.4000000000000001;stroke-dasharray:7.0,7.0;"/><polygon fill="#181818" points="307.7854,113.0049,307.5185,109.0744,306.8511,111.2365,304.689,110.5692,307.7854,113.0049" style="stroke:#181818;stroke-width:0.4000000000000001;"/><text fill="#000000" font-family="sans-serif" font-size="5.2" lengthAdjust="spacing" textLength="17.3443" x="293.2" y="102.0168">request</text></g><!--link controller to view--><g id="link_controller_view"><path codeLine="127" d="M312.4779,112.9228 C312.4889,111.0211 312.4942,109.1162 312.493,107.2188 C312.4906,103.4239 312.462,99.6585 312.4,96.0055 C312.356,93.434 312.2986,90.7837 312.2318,88.113 C312.2235,87.7792 312.215,87.445 312.2063,87.1107 C312.202,86.9435 312.2606,89.1754 312.2562,89.0082 " fill="none" id="controller-to-view" style="stroke:#181818;stroke-width:0.4000000000000001;stroke-dasharray:7.0,7.0;"/><polygon fill="#181818" points="312.1933,86.609,310.6882,90.2497,312.2457,88.6083,313.8871,90.1658,312.1933,86.609" style="stroke:#181818;stroke-width:0.4000000000000001;"/><text fill="#000000" font-family="sans-serif" font-size="5.2" lengthAdjust="spacing" textLength="16.1865" x="312.8" y="102.0168">display</text></g><!--SRC=[jLPBJ-Cm4BxtLrZqaeekFw1QLOAkX91Ojg9eEQps49BPO976nNPQ4EA_xzYnqt7YfllieQqztxmVdasQFQK5i9EroA4yOM-Z4SDFLgPAiS-fpXxnYhdF1yOhpNXEBZwb6bYENnsG5ZejLw0LkJ-NCdszvaf_HCASAQGko_GLg3nx8Td6_gn0Rda6XyYte3IXNQPhO5aj9LJQ_2UaEmuN4j8dJ_RdKOivRPnD0jkdKNEcVIichPpab1MW6u1A9ZDc_MtESw8DGKP3Yp0HcH2wqgdKDx0pZYGzWhS_e71bNVYo1Md4FWXHGbg5EYrYbGa91hBIabU5HRpJlD_23v00mvblc5aLHjhTRb3CJiYS1jX9JHf9KofWskMRX6RVTAEGrleHyyWphBoaonlw7dZcClS7ZXcOgvwbm0CjRASECs1Bn8MqvVlsdHKeJDsBQccgIDEeD1R5Wd8i1dYte0PrYPU1Jgi1M-wgok658dUyCiX1r7Xiwyjv5zQZAIPhG70j0QNqx1gFFQLfA6tID-cd2ItfvIZeGUzR56CwCWBmMTAkUSuppRT0Ss42q0dYCgRLz0wgYo6fxZuiyE6-2NoWSUz0Z6eoe0_tDrT-Bjp2Syqbv0Vd0CevEWNiF7txczbCT5fVVdkQOgFdULDS0OeYiaV8denuZ5XbGdEm2likjky2l6YeyiRdDsftEsd_d-rUHM3_-mWDtVZ7USjXT-9oGPxchtXDCdJASgwC4ZBbxT-5gBGKPOashCCpfdyhoFJ32fHYlT4BiLwdLHu4qmbld5cWnHeBxA1h3ks6leVxbqKsln66Qr7moWo6MYM-OrMTPQ1KB39PwqeaFiHlMiVDMcCZqLi0zYo1xvcr_z-i2Fl2k1F1U4c6C4P6TpZzsclk4XQFnNudSpkACrdrtwZ1qBXdZ3vVCySN6vCNhrUvU_C6SV4LAhQi7FNFuUQ-zkW3xiko54K1kJj5TfV14FZzPd2lcNbHXBqq9N-ChJ_6aKtKciwBe1lEpkRjLZzZzSOkwMwIM1e5pp0gpxMPsNqP3SlCD-Ze9m00]--></g></svg>