<svg xmlns="http://www.w3.org/2000/svg" xmlns:xlink="http://www.w3.org/1999/xlink" contentStyleType="text/css" height="981px" preserveAspectRatio="none" style="width:2719px;height:981px;background:#FFFFFF;" version="1.1" viewBox="0 0 2719 981" width="2719px" zoomAndPan="magnify"><defs/><g><!--cluster model--><g id="cluster_model"><path d="M8.5,6.0137 L50.7275,6.0137 A3.75,3.75 0 0 1 53.2275,8.5137 L60.2275,30.6348 L1131.5,30.6348 A2.5,2.5 0 0 1 1134,33.1348 L1134,676.5137 A2.5,2.5 0 0 1 1131.5,679.0137 L8.5,679.0137 A2.5,2.5 0 0 1 6,676.5137 L6,8.5137 A2.5,2.5 0 0 1 8.5,6.0137 " fill="none" style="stroke:#000000;stroke-width:1.5;"/><line style="stroke:#000000;stroke-width:1.5;" x1="6" x2="60.2275" y1="30.6348" y2="30.6348"/><text fill="#000000" font-family="sans-serif" font-size="14" font-weight="bold" lengthAdjust="spacing" textLength="41.2275" x="10" y="23.1211">model</text></g><!--cluster view--><g id="cluster_view"><path d="M1996.5,15.5137 L2027.8516,15.5137 A3.75,3.75 0 0 1 2030.3516,18.0137 L2037.3516,40.1348 L2709.5,40.1348 A2.5,2.5 0 0 1 2712,42.6348 L2712,536.5137 A2.5,2.5 0 0 1 2709.5,539.0137 L1996.5,539.0137 A2.5,2.5 0 0 1 1994,536.5137 L1994,18.0137 A2.5,2.5 0 0 1 1996.5,15.5137 " fill="none" style="stroke:#000000;stroke-width:1.5;"/><line style="stroke:#000000;stroke-width:1.5;" x1="1994" x2="2037.3516" y1="40.1348" y2="40.1348"/><text fill="#000000" font-family="sans-serif" font-size="14" font-weight="bold" lengthAdjust="spacing" textLength="30.3516" x="1998" y="32.6211">view</text></g><!--cluster controller--><g id="cluster_controller"><path d="M1176.5,366.5137 L1242.0654,366.5137 A3.75,3.75 0 0 1 1244.5654,369.0137 L1251.5654,391.1348 L1951.5,391.1348 A2.5,2.5 0 0 1 1954,393.6348 L1954,971.5137 A2.5,2.5 0 0 1 1951.5,974.0137 L1176.5,974.0137 A2.5,2.5 0 0 1 1174,971.5137 L1174,369.0137 A2.5,2.5 0 0 1 1176.5,366.5137 " fill="none" style="stroke:#000000;stroke-width:1.5;"/><line style="stroke:#000000;stroke-width:1.5;" x1="1174" x2="1251.5654" y1="391.1348" y2="391.1348"/><text fill="#000000" font-family="sans-serif" font-size="14" font-weight="bold" lengthAdjust="spacing" textLength="64.5654" x="1178" y="383.6211">controller</text></g><!--class Match--><g id="elem_Match"><rect codeLine="3" fill="#F1F1F1" height="159.7266" id="Match" rx="2.5" ry="2.5" style="stroke:#181818;stroke-width:0.5;" width="175.4131" x="473.5" y="51.0137"/><ellipse cx="537.8945" cy="67.0137" fill="#ADD1B2" rx="11" ry="11" style="stroke:#181818;stroke-width:1.0;"/><path d="M540.6602,62.8887 Q540.8164,62.6699 541.0039,62.5605 Q541.1914,62.4512 541.4102,62.4512 Q541.7852,62.4512 542.0195,62.7168 Q542.2539,62.9668 542.2539,63.5762 L542.2539,65.0293 Q542.2539,65.6387 542.0195,65.9043 Q541.7852,66.1699 541.4102,66.1699 Q541.0664,66.1699 540.8633,65.9668 Q540.6602,65.7793 540.5508,65.2637 Q540.5039,64.9043 540.3164,64.7168 Q539.9883,64.3418 539.3789,64.123 Q538.7695,63.9043 538.1445,63.9043 Q537.3789,63.9043 536.7383,64.2324 Q536.1133,64.5605 535.6133,65.3105 Q535.1289,66.0605 535.1289,67.0918 L535.1289,68.1855 Q535.1289,69.4199 536.0195,70.248 Q536.9102,71.0605 538.5039,71.0605 Q539.4414,71.0605 540.0977,70.8105 Q540.4883,70.6543 540.9102,70.2168 Q541.1758,69.9512 541.3164,69.873 Q541.4727,69.7949 541.6758,69.7949 Q542.0039,69.7949 542.2539,70.0605 Q542.5195,70.3105 542.5195,70.6543 Q542.5195,70.998 542.1758,71.4043 Q541.6758,71.9824 540.8789,72.3105 Q539.8008,72.7637 538.5039,72.7637 Q536.9883,72.7637 535.7852,72.1387 Q534.8008,71.6387 534.1133,70.5762 Q533.4258,69.498 533.4258,68.2168 L533.4258,67.0605 Q533.4258,65.7324 534.0352,64.5918 Q534.6602,63.4355 535.7539,62.8262 Q536.8477,62.2012 538.082,62.2012 Q538.8164,62.2012 539.457,62.373 Q540.1133,62.5293 540.6602,62.8887 Z " fill="#000000"/><text fill="#000000" font-family="sans-serif" font-size="14" lengthAdjust="spacing" textLength="38.124" x="558.3945" y="72.8105">Match</text><line style="stroke:#181818;stroke-width:0.5;" x1="474.5" x2="647.9131" y1="83.0137" y2="83.0137"/><rect fill="none" height="6" style="stroke:#C82930;stroke-width:1.0;" width="6" x="481.5" y="94.8242"/><text fill="#000000" font-family="sans-serif" font-size="14" lengthAdjust="spacing" textLength="51.3584" x="493.5" y="102.1211">String id</text><rect fill="none" height="6" style="stroke:#C82930;stroke-width:1.0;" width="6" x="481.5" y="113.4453"/><text fill="#000000" font-family="sans-serif" font-size="14" lengthAdjust="spacing" textLength="60.71" x="493.5" y="120.7422">Date date</text><rect fill="none" height="6" style="stroke:#C82930;stroke-width:1.0;" width="6" x="481.5" y="132.0664"/><text fill="#000000" font-family="sans-serif" font-size="14" lengthAdjust="spacing" textLength="88.7168" x="493.5" y="139.3633">List&lt;Set&gt; sets</text><rect fill="none" height="6" style="stroke:#C82930;stroke-width:1.0;" width="6" x="481.5" y="150.6875"/><text fill="#000000" font-family="sans-serif" font-size="14" lengthAdjust="spacing" textLength="73.1514" x="493.5" y="157.9844">int totalSets</text><rect fill="none" height="6" style="stroke:#C82930;stroke-width:1.0;" width="6" x="481.5" y="169.3086"/><text fill="#000000" font-family="sans-serif" font-size="14" lengthAdjust="spacing" textLength="89.4893" x="493.5" y="176.6055">Set currentSet</text><rect fill="none" height="6" style="stroke:#C82930;stroke-width:1.0;" width="6" x="481.5" y="187.9297"/><text fill="#000000" font-family="sans-serif" font-size="14" lengthAdjust="spacing" textLength="149.4131" x="493.5" y="195.2266">ScoreBoard scoreBoard</text><line style="stroke:#181818;stroke-width:0.5;" x1="474.5" x2="647.9131" y1="202.7402" y2="202.7402"/></g><!--class Referee--><g id="elem_Referee"><rect codeLine="13" fill="#F1F1F1" height="122.4844" id="Referee" rx="2.5" ry="2.5" style="stroke:#181818;stroke-width:0.5;" width="269.5918" x="684" y="70.0137"/><ellipse cx="789.6426" cy="86.0137" fill="#ADD1B2" rx="11" ry="11" style="stroke:#181818;stroke-width:1.0;"/><path d="M792.4082,81.8887 Q792.5645,81.6699 792.752,81.5605 Q792.9395,81.4512 793.1582,81.4512 Q793.5332,81.4512 793.7676,81.7168 Q794.002,81.9668 794.002,82.5762 L794.002,84.0293 Q794.002,84.6387 793.7676,84.9043 Q793.5332,85.1699 793.1582,85.1699 Q792.8145,85.1699 792.6113,84.9668 Q792.4082,84.7793 792.2988,84.2637 Q792.252,83.9043 792.0645,83.7168 Q791.7363,83.3418 791.127,83.123 Q790.5176,82.9043 789.8926,82.9043 Q789.127,82.9043 788.4863,83.2324 Q787.8613,83.5605 787.3613,84.3105 Q786.877,85.0605 786.877,86.0918 L786.877,87.1855 Q786.877,88.4199 787.7676,89.248 Q788.6582,90.0605 790.252,90.0605 Q791.1895,90.0605 791.8457,89.8105 Q792.2363,89.6543 792.6582,89.2168 Q792.9238,88.9512 793.0645,88.873 Q793.2207,88.7949 793.4238,88.7949 Q793.752,88.7949 794.002,89.0605 Q794.2676,89.3105 794.2676,89.6543 Q794.2676,89.998 793.9238,90.4043 Q793.4238,90.9824 792.627,91.3105 Q791.5488,91.7637 790.252,91.7637 Q788.7363,91.7637 787.5332,91.1387 Q786.5488,90.6387 785.8613,89.5762 Q785.1738,88.498 785.1738,87.2168 L785.1738,86.0605 Q785.1738,84.7324 785.7832,83.5918 Q786.4082,82.4355 787.502,81.8262 Q788.5957,81.2012 789.8301,81.2012 Q790.5645,81.2012 791.2051,81.373 Q791.8613,81.5293 792.4082,81.8887 Z " fill="#000000"/><text fill="#000000" font-family="sans-serif" font-size="14" lengthAdjust="spacing" textLength="49.8066" x="810.1426" y="91.8105">Referee</text><line style="stroke:#181818;stroke-width:0.5;" x1="685" x2="952.5918" y1="102.0137" y2="102.0137"/><rect fill="none" height="6" style="stroke:#C82930;stroke-width:1.0;" width="6" x="692" y="113.8242"/><text fill="#000000" font-family="sans-serif" font-size="14" lengthAdjust="spacing" textLength="29.5723" x="704" y="121.1211">int id</text><rect fill="none" height="6" style="stroke:#C82930;stroke-width:1.0;" width="6" x="692" y="132.4453"/><text fill="#000000" font-family="sans-serif" font-size="14" lengthAdjust="spacing" textLength="75.4824" x="704" y="139.7422">String name</text><rect fill="none" height="6" style="stroke:#C82930;stroke-width:1.0;" width="6" x="692" y="151.0664"/><text fill="#000000" font-family="sans-serif" font-size="14" lengthAdjust="spacing" textLength="100.3789" x="704" y="158.3633">String password</text><line style="stroke:#181818;stroke-width:0.5;" x1="685" x2="952.5918" y1="165.877" y2="165.877"/><ellipse cx="695" cy="180.6875" fill="#84BE84" rx="3" ry="3" style="stroke:#038048;stroke-width:1.0;"/><text fill="#000000" font-family="sans-serif" font-size="14" lengthAdjust="spacing" textLength="243.5918" x="704" y="184.9844">authenticate(String password): boolean</text></g><!--class Player--><g id="elem_Player"><rect codeLine="21" fill="#F1F1F1" height="85.2422" id="Player" rx="2.5" ry="2.5" style="stroke:#181818;stroke-width:0.5;" width="101.4824" x="989.5" y="88.5137"/><ellipse cx="1017.9099" cy="104.5137" fill="#ADD1B2" rx="11" ry="11" style="stroke:#181818;stroke-width:1.0;"/><path d="M1020.6755,100.3887 Q1020.8318,100.1699 1021.0193,100.0605 Q1021.2068,99.9512 1021.4255,99.9512 Q1021.8005,99.9512 1022.0349,100.2168 Q1022.2693,100.4668 1022.2693,101.0762 L1022.2693,102.5293 Q1022.2693,103.1387 1022.0349,103.4043 Q1021.8005,103.6699 1021.4255,103.6699 Q1021.0818,103.6699 1020.8787,103.4668 Q1020.6755,103.2793 1020.5662,102.7637 Q1020.5193,102.4043 1020.3318,102.2168 Q1020.0037,101.8418 1019.3943,101.623 Q1018.7849,101.4043 1018.1599,101.4043 Q1017.3943,101.4043 1016.7537,101.7324 Q1016.1287,102.0605 1015.6287,102.8105 Q1015.1443,103.5605 1015.1443,104.5918 L1015.1443,105.6855 Q1015.1443,106.9199 1016.0349,107.748 Q1016.9255,108.5605 1018.5193,108.5605 Q1019.4568,108.5605 1020.113,108.3105 Q1020.5037,108.1543 1020.9255,107.7168 Q1021.1912,107.4512 1021.3318,107.373 Q1021.488,107.2949 1021.6912,107.2949 Q1022.0193,107.2949 1022.2693,107.5605 Q1022.5349,107.8105 1022.5349,108.1543 Q1022.5349,108.498 1022.1912,108.9043 Q1021.6912,109.4824 1020.8943,109.8105 Q1019.8162,110.2637 1018.5193,110.2637 Q1017.0037,110.2637 1015.8005,109.6387 Q1014.8162,109.1387 1014.1287,108.0762 Q1013.4412,106.998 1013.4412,105.7168 L1013.4412,104.5605 Q1013.4412,103.2324 1014.0505,102.0918 Q1014.6755,100.9355 1015.7693,100.3262 Q1016.863,99.7012 1018.0974,99.7012 Q1018.8318,99.7012 1019.4724,99.873 Q1020.1287,100.0293 1020.6755,100.3887 Z " fill="#000000"/><text fill="#000000" font-family="sans-serif" font-size="14" lengthAdjust="spacing" textLength="39.6826" x="1034.8899" y="110.3105">Player</text><line style="stroke:#181818;stroke-width:0.5;" x1="990.5" x2="1089.9824" y1="120.5137" y2="120.5137"/><rect fill="none" height="6" style="stroke:#C82930;stroke-width:1.0;" width="6" x="997.5" y="132.3242"/><text fill="#000000" font-family="sans-serif" font-size="14" lengthAdjust="spacing" textLength="29.5723" x="1009.5" y="139.6211">int id</text><rect fill="none" height="6" style="stroke:#C82930;stroke-width:1.0;" width="6" x="997.5" y="150.9453"/><text fill="#000000" font-family="sans-serif" font-size="14" lengthAdjust="spacing" textLength="75.4824" x="1009.5" y="158.2422">String name</text><line style="stroke:#181818;stroke-width:0.5;" x1="990.5" x2="1089.9824" y1="165.7559" y2="165.7559"/></g><!--class Set--><g id="elem_Set"><rect codeLine="27" fill="#F1F1F1" height="159.7266" id="Set" rx="2.5" ry="2.5" style="stroke:#181818;stroke-width:0.5;" width="362.9229" x="498.5" y="392.5137"/><ellipse cx="665.2046" cy="408.5137" fill="#ADD1B2" rx="11" ry="11" style="stroke:#181818;stroke-width:1.0;"/><path d="M667.9702,404.3887 Q668.1265,404.1699 668.314,404.0605 Q668.5015,403.9512 668.7202,403.9512 Q669.0952,403.9512 669.3296,404.2168 Q669.564,404.4668 669.564,405.0762 L669.564,406.5293 Q669.564,407.1387 669.3296,407.4043 Q669.0952,407.6699 668.7202,407.6699 Q668.3765,407.6699 668.1733,407.4668 Q667.9702,407.2793 667.8608,406.7637 Q667.814,406.4043 667.6265,406.2168 Q667.2983,405.8418 666.689,405.623 Q666.0796,405.4043 665.4546,405.4043 Q664.689,405.4043 664.0483,405.7324 Q663.4233,406.0605 662.9233,406.8105 Q662.439,407.5605 662.439,408.5918 L662.439,409.6855 Q662.439,410.9199 663.3296,411.748 Q664.2202,412.5605 665.814,412.5605 Q666.7515,412.5605 667.4077,412.3105 Q667.7983,412.1543 668.2202,411.7168 Q668.4858,411.4512 668.6265,411.373 Q668.7827,411.2949 668.9858,411.2949 Q669.314,411.2949 669.564,411.5605 Q669.8296,411.8105 669.8296,412.1543 Q669.8296,412.498 669.4858,412.9043 Q668.9858,413.4824 668.189,413.8105 Q667.1108,414.2637 665.814,414.2637 Q664.2983,414.2637 663.0952,413.6387 Q662.1108,413.1387 661.4233,412.0762 Q660.7358,410.998 660.7358,409.7168 L660.7358,408.5605 Q660.7358,407.2324 661.3452,406.0918 Q661.9702,404.9355 663.064,404.3262 Q664.1577,403.7012 665.3921,403.7012 Q666.1265,403.7012 666.7671,403.873 Q667.4233,404.0293 667.9702,404.3887 Z " fill="#000000"/><text fill="#000000" font-family="sans-serif" font-size="14" lengthAdjust="spacing" textLength="21.0137" x="685.7046" y="414.3105">Set</text><line style="stroke:#181818;stroke-width:0.5;" x1="499.5" x2="860.4229" y1="424.5137" y2="424.5137"/><rect fill="none" height="6" style="stroke:#C82930;stroke-width:1.0;" width="6" x="506.5" y="436.3242"/><text fill="#000000" font-family="sans-serif" font-size="14" lengthAdjust="spacing" textLength="127.5996" x="518.5" y="443.6211">IGame currentGame</text><rect fill="none" height="6" style="stroke:#C82930;stroke-width:1.0;" width="6" x="506.5" y="454.9453"/><text fill="#000000" font-family="sans-serif" font-size="14" lengthAdjust="spacing" textLength="126.0615" x="518.5" y="462.2422">List&lt;IGame&gt; games</text><rect fill="none" height="6" style="stroke:#C82930;stroke-width:1.0;" width="6" x="506.5" y="473.5664"/><text fill="#000000" font-family="sans-serif" font-size="14" lengthAdjust="spacing" textLength="170.3857" x="518.5" y="480.8633">GameFactory gameFactory</text><line style="stroke:#181818;stroke-width:0.5;" x1="499.5" x2="860.4229" y1="488.377" y2="488.377"/><ellipse cx="509.5" cy="503.1875" fill="#84BE84" rx="3" ry="3" style="stroke:#038048;stroke-width:1.0;"/><text fill="#000000" font-family="sans-serif" font-size="14" lengthAdjust="spacing" textLength="147.8408" x="518.5" y="507.4844">addGame(Game game)</text><ellipse cx="509.5" cy="521.8086" fill="#84BE84" rx="3" ry="3" style="stroke:#038048;stroke-width:1.0;"/><text fill="#000000" font-family="sans-serif" font-size="14" lengthAdjust="spacing" textLength="336.9229" x="518.5" y="526.1055">updateGame(Player playerService, Player playerRest)</text><ellipse cx="509.5" cy="540.4297" fill="#84BE84" rx="3" ry="3" style="stroke:#038048;stroke-width:1.0;"/><text fill="#000000" font-family="sans-serif" font-size="14" lengthAdjust="spacing" textLength="133.0615" x="518.5" y="544.7266">isTieBreak(): boolean</text></g><!--class IGame--><g id="elem_IGame"><rect codeLine="37" fill="#F1F1F1" height="141.1055" id="IGame" rx="2.5" ry="2.5" style="stroke:#181818;stroke-width:0.5;" width="218.2197" x="125" y="60.5137"/><ellipse cx="208.853" cy="76.5137" fill="#B4A7E5" rx="11" ry="11" style="stroke:#181818;stroke-width:1.0;"/><path d="M209.8062,73.1543 L209.8062,79.8105 L211.5249,79.8105 Q212.1343,79.8105 212.3999,80.0449 Q212.6655,80.2793 212.6655,80.6699 Q212.6655,81.0449 212.3999,81.2793 Q212.1343,81.5137 211.5249,81.5137 L206.3843,81.5137 Q205.7749,81.5137 205.5093,81.2793 Q205.2437,81.0449 205.2437,80.6543 Q205.2437,80.2793 205.5093,80.0449 Q205.7749,79.8105 206.3843,79.8105 L208.103,79.8105 L208.103,73.1543 L206.3843,73.1543 Q205.7749,73.1543 205.5093,72.9199 Q205.2437,72.6855 205.2437,72.2949 Q205.2437,71.9199 205.5093,71.6855 Q205.7749,71.4512 206.3843,71.4512 L211.5249,71.4512 Q212.1343,71.4512 212.3999,71.6855 Q212.6655,71.9199 212.6655,72.2949 Q212.6655,72.6855 212.3999,72.9199 Q212.1343,73.1543 211.5249,73.1543 L209.8062,73.1543 Z " fill="#000000"/><text fill="#000000" font-family="sans-serif" font-size="14" font-style="italic" lengthAdjust="spacing" textLength="42.0137" x="229.353" y="82.3105">IGame</text><line style="stroke:#181818;stroke-width:0.5;" x1="126" x2="342.2197" y1="92.5137" y2="92.5137"/><line style="stroke:#181818;stroke-width:0.5;" x1="126" x2="342.2197" y1="100.5137" y2="100.5137"/><text fill="#000000" font-family="sans-serif" font-size="14" lengthAdjust="spacing" textLength="161.0684" x="131" y="119.6211">List&lt;Player&gt; getPlayers();</text><text fill="#000000" font-family="sans-serif" font-size="14" lengthAdjust="spacing" textLength="171.1924" x="131" y="138.2422">boolean isPlayer0Service();</text><text fill="#000000" font-family="sans-serif" font-size="14" lengthAdjust="spacing" textLength="117.4756" x="131" y="156.8633">void switchRoles();</text><text fill="#000000" font-family="sans-serif" font-size="14" lengthAdjust="spacing" textLength="206.2197" x="131" y="175.4844">void updatePoints(Player player);</text><text fill="#000000" font-family="sans-serif" font-size="14" lengthAdjust="spacing" textLength="145.5029" x="131" y="194.1055">boolean isGameOver();</text></g><!--class StandardGame--><g id="elem_StandardGame"><rect codeLine="45" fill="#F1F1F1" height="159.7266" id="StandardGame" rx="2.5" ry="2.5" style="stroke:#181818;stroke-width:0.5;" width="198.7578" x="30.5" y="392.5137"/><ellipse cx="78.1567" cy="408.5137" fill="#ADD1B2" rx="11" ry="11" style="stroke:#181818;stroke-width:1.0;"/><path d="M80.9224,404.3887 Q81.0786,404.1699 81.2661,404.0605 Q81.4536,403.9512 81.6724,403.9512 Q82.0474,403.9512 82.2817,404.2168 Q82.5161,404.4668 82.5161,405.0762 L82.5161,406.5293 Q82.5161,407.1387 82.2817,407.4043 Q82.0474,407.6699 81.6724,407.6699 Q81.3286,407.6699 81.1255,407.4668 Q80.9224,407.2793 80.813,406.7637 Q80.7661,406.4043 80.5786,406.2168 Q80.2505,405.8418 79.6411,405.623 Q79.0317,405.4043 78.4067,405.4043 Q77.6411,405.4043 77.0005,405.7324 Q76.3755,406.0605 75.8755,406.8105 Q75.3911,407.5605 75.3911,408.5918 L75.3911,409.6855 Q75.3911,410.9199 76.2817,411.748 Q77.1724,412.5605 78.7661,412.5605 Q79.7036,412.5605 80.3599,412.3105 Q80.7505,412.1543 81.1724,411.7168 Q81.438,411.4512 81.5786,411.373 Q81.7349,411.2949 81.938,411.2949 Q82.2661,411.2949 82.5161,411.5605 Q82.7817,411.8105 82.7817,412.1543 Q82.7817,412.498 82.438,412.9043 Q81.938,413.4824 81.1411,413.8105 Q80.063,414.2637 78.7661,414.2637 Q77.2505,414.2637 76.0474,413.6387 Q75.063,413.1387 74.3755,412.0762 Q73.688,410.998 73.688,409.7168 L73.688,408.5605 Q73.688,407.2324 74.2974,406.0918 Q74.9224,404.9355 76.0161,404.3262 Q77.1099,403.7012 78.3442,403.7012 Q79.0786,403.7012 79.7192,403.873 Q80.3755,404.0293 80.9224,404.3887 Z " fill="#000000"/><text fill="#000000" font-family="sans-serif" font-size="14" lengthAdjust="spacing" textLength="94.9443" x="98.6567" y="414.3105">StandardGame</text><line style="stroke:#181818;stroke-width:0.5;" x1="31.5" x2="228.2578" y1="424.5137" y2="424.5137"/><rect fill="none" height="6" style="stroke:#C82930;stroke-width:1.0;" width="6" x="38.5" y="436.3242"/><text fill="#000000" font-family="sans-serif" font-size="14" lengthAdjust="spacing" textLength="126.8408" x="50.5" y="443.6211">List&lt;Player&gt; players</text><rect fill="none" height="6" style="stroke:#C82930;stroke-width:1.0;" width="6" x="38.5" y="454.9453"/><text fill="#000000" font-family="sans-serif" font-size="14" lengthAdjust="spacing" textLength="157.9785" x="50.5" y="462.2422">boolean isPlayer0Service</text><line style="stroke:#181818;stroke-width:0.5;" x1="31.5" x2="228.2578" y1="469.7559" y2="469.7559"/><ellipse cx="41.5" cy="484.5664" fill="#84BE84" rx="3" ry="3" style="stroke:#038048;stroke-width:1.0;"/><text fill="#000000" font-family="sans-serif" font-size="14" lengthAdjust="spacing" textLength="171.1924" x="50.5" y="488.8633">isPlayer0Service(): boolean</text><ellipse cx="41.5" cy="503.1875" fill="#84BE84" rx="3" ry="3" style="stroke:#038048;stroke-width:1.0;"/><text fill="#000000" font-family="sans-serif" font-size="14" lengthAdjust="spacing" textLength="84.0137" x="50.5" y="507.4844">switchRoles()</text><ellipse cx="41.5" cy="521.8086" fill="#84BE84" rx="3" ry="3" style="stroke:#038048;stroke-width:1.0;"/><text fill="#000000" font-family="sans-serif" font-size="14" lengthAdjust="spacing" textLength="172.7578" x="50.5" y="526.1055">updatePoints(Player player)</text><ellipse cx="41.5" cy="540.4297" fill="#84BE84" rx="3" ry="3" style="stroke:#038048;stroke-width:1.0;"/><text fill="#000000" font-family="sans-serif" font-size="14" lengthAdjust="spacing" textLength="145.5029" x="50.5" y="544.7266">isGameOver(): boolean</text></g><!--class TieBreakGame--><g id="elem_TieBreakGame"><rect codeLine="55" fill="#F1F1F1" height="159.7266" id="TieBreakGame" rx="2.5" ry="2.5" style="stroke:#181818;stroke-width:0.5;" width="198.7578" x="264.5" y="392.5137"/><ellipse cx="312.5566" cy="408.5137" fill="#ADD1B2" rx="11" ry="11" style="stroke:#181818;stroke-width:1.0;"/><path d="M315.3223,404.3887 Q315.4785,404.1699 315.666,404.0605 Q315.8535,403.9512 316.0723,403.9512 Q316.4473,403.9512 316.6816,404.2168 Q316.916,404.4668 316.916,405.0762 L316.916,406.5293 Q316.916,407.1387 316.6816,407.4043 Q316.4473,407.6699 316.0723,407.6699 Q315.7285,407.6699 315.5254,407.4668 Q315.3223,407.2793 315.2129,406.7637 Q315.166,406.4043 314.9785,406.2168 Q314.6504,405.8418 314.041,405.623 Q313.4316,405.4043 312.8066,405.4043 Q312.041,405.4043 311.4004,405.7324 Q310.7754,406.0605 310.2754,406.8105 Q309.791,407.5605 309.791,408.5918 L309.791,409.6855 Q309.791,410.9199 310.6816,411.748 Q311.5723,412.5605 313.166,412.5605 Q314.1035,412.5605 314.7598,412.3105 Q315.1504,412.1543 315.5723,411.7168 Q315.8379,411.4512 315.9785,411.373 Q316.1348,411.2949 316.3379,411.2949 Q316.666,411.2949 316.916,411.5605 Q317.1816,411.8105 317.1816,412.1543 Q317.1816,412.498 316.8379,412.9043 Q316.3379,413.4824 315.541,413.8105 Q314.4629,414.2637 313.166,414.2637 Q311.6504,414.2637 310.4473,413.6387 Q309.4629,413.1387 308.7754,412.0762 Q308.0879,410.998 308.0879,409.7168 L308.0879,408.5605 Q308.0879,407.2324 308.6973,406.0918 Q309.3223,404.9355 310.416,404.3262 Q311.5098,403.7012 312.7441,403.7012 Q313.4785,403.7012 314.1191,403.873 Q314.7754,404.0293 315.3223,404.3887 Z " fill="#000000"/><text fill="#000000" font-family="sans-serif" font-size="14" lengthAdjust="spacing" textLength="94.1445" x="333.0566" y="414.3105">TieBreakGame</text><line style="stroke:#181818;stroke-width:0.5;" x1="265.5" x2="462.2578" y1="424.5137" y2="424.5137"/><rect fill="none" height="6" style="stroke:#C82930;stroke-width:1.0;" width="6" x="272.5" y="436.3242"/><text fill="#000000" font-family="sans-serif" font-size="14" lengthAdjust="spacing" textLength="126.8408" x="284.5" y="443.6211">List&lt;Player&gt; players</text><rect fill="none" height="6" style="stroke:#C82930;stroke-width:1.0;" width="6" x="272.5" y="454.9453"/><text fill="#000000" font-family="sans-serif" font-size="14" lengthAdjust="spacing" textLength="157.9785" x="284.5" y="462.2422">boolean isPlayer0Service</text><line style="stroke:#181818;stroke-width:0.5;" x1="265.5" x2="462.2578" y1="469.7559" y2="469.7559"/><ellipse cx="275.5" cy="484.5664" fill="#84BE84" rx="3" ry="3" style="stroke:#038048;stroke-width:1.0;"/><text fill="#000000" font-family="sans-serif" font-size="14" lengthAdjust="spacing" textLength="171.1924" x="284.5" y="488.8633">isPlayer0Service(): boolean</text><ellipse cx="275.5" cy="503.1875" fill="#84BE84" rx="3" ry="3" style="stroke:#038048;stroke-width:1.0;"/><text fill="#000000" font-family="sans-serif" font-size="14" lengthAdjust="spacing" textLength="84.0137" x="284.5" y="507.4844">switchRoles()</text><ellipse cx="275.5" cy="521.8086" fill="#84BE84" rx="3" ry="3" style="stroke:#038048;stroke-width:1.0;"/><text fill="#000000" font-family="sans-serif" font-size="14" lengthAdjust="spacing" textLength="172.7578" x="284.5" y="526.1055">updatePoints(Player player)</text><ellipse cx="275.5" cy="540.4297" fill="#84BE84" rx="3" ry="3" style="stroke:#038048;stroke-width:1.0;"/><text fill="#000000" font-family="sans-serif" font-size="14" lengthAdjust="spacing" textLength="145.5029" x="284.5" y="544.7266">isGameOver(): boolean</text></g><!--class ScoreBoard--><g id="elem_ScoreBoard"><rect codeLine="65" fill="#F1F1F1" height="364.5586" id="ScoreBoard" rx="2.5" ry="2.5" style="stroke:#181818;stroke-width:0.5;" width="204.9717" x="896.5" y="290.0137"/><ellipse cx="957.7705" cy="306.0137" fill="#ADD1B2" rx="11" ry="11" style="stroke:#181818;stroke-width:1.0;"/><path d="M960.5361,301.8887 Q960.6924,301.6699 960.8799,301.5605 Q961.0674,301.4512 961.2861,301.4512 Q961.6611,301.4512 961.8955,301.7168 Q962.1299,301.9668 962.1299,302.5762 L962.1299,304.0293 Q962.1299,304.6387 961.8955,304.9043 Q961.6611,305.1699 961.2861,305.1699 Q960.9424,305.1699 960.7393,304.9668 Q960.5361,304.7793 960.4268,304.2637 Q960.3799,303.9043 960.1924,303.7168 Q959.8643,303.3418 959.2549,303.123 Q958.6455,302.9043 958.0205,302.9043 Q957.2549,302.9043 956.6143,303.2324 Q955.9893,303.5605 955.4893,304.3105 Q955.0049,305.0605 955.0049,306.0918 L955.0049,307.1855 Q955.0049,308.4199 955.8955,309.248 Q956.7861,310.0605 958.3799,310.0605 Q959.3174,310.0605 959.9736,309.8105 Q960.3643,309.6543 960.7861,309.2168 Q961.0518,308.9512 961.1924,308.873 Q961.3486,308.7949 961.5518,308.7949 Q961.8799,308.7949 962.1299,309.0605 Q962.3955,309.3105 962.3955,309.6543 Q962.3955,309.998 962.0518,310.4043 Q961.5518,310.9824 960.7549,311.3105 Q959.6768,311.7637 958.3799,311.7637 Q956.8643,311.7637 955.6611,311.1387 Q954.6768,310.6387 953.9893,309.5762 Q953.3018,308.498 953.3018,307.2168 L953.3018,306.0605 Q953.3018,304.7324 953.9111,303.5918 Q954.5361,302.4355 955.6299,301.8262 Q956.7236,301.2012 957.958,301.2012 Q958.6924,301.2012 959.333,301.373 Q959.9893,301.5293 960.5361,301.8887 Z " fill="#000000"/><text fill="#000000" font-family="sans-serif" font-size="14" lengthAdjust="spacing" textLength="73.9307" x="978.2705" y="311.8105">ScoreBoard</text><line style="stroke:#181818;stroke-width:0.5;" x1="897.5" x2="1100.4717" y1="322.0137" y2="322.0137"/><rect fill="none" height="6" style="stroke:#C82930;stroke-width:1.0;" width="6" x="904.5" y="333.8242"/><text fill="#000000" font-family="sans-serif" font-size="14" lengthAdjust="spacing" textLength="112.8271" x="916.5" y="341.1211">int[] currentPoints;</text><rect fill="none" height="6" style="stroke:#C82930;stroke-width:1.0;" width="6" x="904.5" y="352.4453"/><text fill="#000000" font-family="sans-serif" font-size="14" lengthAdjust="spacing" textLength="126.8203" x="916.5" y="359.7422">int[][] currentGames;</text><rect fill="none" height="6" style="stroke:#C82930;stroke-width:1.0;" width="6" x="904.5" y="371.0664"/><text fill="#000000" font-family="sans-serif" font-size="14" lengthAdjust="spacing" textLength="101.9307" x="916.5" y="378.3633">int[] currentSets;</text><rect fill="none" height="6" style="stroke:#C82930;stroke-width:1.0;" width="6" x="904.5" y="389.6875"/><text fill="#000000" font-family="sans-serif" font-size="14" lengthAdjust="spacing" textLength="131.5029" x="916.5" y="396.9844">int lackServiceCount;</text><rect fill="none" height="6" style="stroke:#C82930;stroke-width:1.0;" width="6" x="904.5" y="408.3086"/><text fill="#000000" font-family="sans-serif" font-size="14" lengthAdjust="spacing" textLength="77.041" x="916.5" y="415.6055">int totalSets;</text><rect fill="none" height="6" style="stroke:#C82930;stroke-width:1.0;" width="6" x="904.5" y="426.9297"/><text fill="#000000" font-family="sans-serif" font-size="14" lengthAdjust="spacing" textLength="130.7305" x="916.5" y="434.2266">List&lt;Player&gt; players;</text><line style="stroke:#181818;stroke-width:0.5;" x1="897.5" x2="1100.4717" y1="441.7402" y2="441.7402"/><ellipse cx="907.5" cy="456.5508" fill="#84BE84" rx="3" ry="3" style="stroke:#038048;stroke-width:1.0;"/><text fill="#000000" font-family="sans-serif" font-size="14" lengthAdjust="spacing" textLength="148.5996" x="916.5" y="460.8477">incrementServiceFault()</text><ellipse cx="907.5" cy="475.1719" fill="#84BE84" rx="3" ry="3" style="stroke:#038048;stroke-width:1.0;"/><text fill="#000000" font-family="sans-serif" font-size="14" lengthAdjust="spacing" textLength="166.5166" x="916.5" y="479.4688">getServiceFaultCount(): int</text><ellipse cx="907.5" cy="493.793" fill="#84BE84" rx="3" ry="3" style="stroke:#038048;stroke-width:1.0;"/><text fill="#000000" font-family="sans-serif" font-size="14" lengthAdjust="spacing" textLength="155.6133" x="916.5" y="498.0898">resetServiceFaultCount()</text><ellipse cx="907.5" cy="512.4141" fill="#84BE84" rx="3" ry="3" style="stroke:#038048;stroke-width:1.0;"/><text fill="#000000" font-family="sans-serif" font-size="14" lengthAdjust="spacing" textLength="172.7578" x="916.5" y="516.7109">updatePoints(Player player)</text><ellipse cx="907.5" cy="531.0352" fill="#84BE84" rx="3" ry="3" style="stroke:#038048;stroke-width:1.0;"/><text fill="#000000" font-family="sans-serif" font-size="14" lengthAdjust="spacing" textLength="178.9717" x="916.5" y="535.332">updateGames(Player player)</text><ellipse cx="907.5" cy="549.6563" fill="#84BE84" rx="3" ry="3" style="stroke:#038048;stroke-width:1.0;"/><text fill="#000000" font-family="sans-serif" font-size="14" lengthAdjust="spacing" textLength="161.8613" x="916.5" y="553.9531">updateSets(Player player)</text><ellipse cx="907.5" cy="568.2773" fill="#84BE84" rx="3" ry="3" style="stroke:#038048;stroke-width:1.0;"/><text fill="#000000" font-family="sans-serif" font-size="14" lengthAdjust="spacing" textLength="79.3584" x="916.5" y="572.5742">resetPoints()</text><ellipse cx="907.5" cy="586.8984" fill="#84BE84" rx="3" ry="3" style="stroke:#038048;stroke-width:1.0;"/><text fill="#000000" font-family="sans-serif" font-size="14" lengthAdjust="spacing" textLength="85.5723" x="916.5" y="591.1953">resetGames()</text><ellipse cx="907.5" cy="605.5195" fill="#84BE84" rx="3" ry="3" style="stroke:#038048;stroke-width:1.0;"/><text fill="#000000" font-family="sans-serif" font-size="14" lengthAdjust="spacing" textLength="145.5029" x="916.5" y="609.8164">isGameOver(): boolean</text><ellipse cx="907.5" cy="624.1406" fill="#84BE84" rx="3" ry="3" style="stroke:#038048;stroke-width:1.0;"/><text fill="#000000" font-family="sans-serif" font-size="14" lengthAdjust="spacing" textLength="128.3926" x="916.5" y="628.4375">isSetOver(): boolean</text><rect fill="#F24D5C" height="6" style="stroke:#C82930;stroke-width:1.0;" width="6" x="904.5" y="639.7617"/><text fill="#000000" font-family="sans-serif" font-size="14" lengthAdjust="spacing" textLength="153.2959" x="916.5" y="647.0586">getCurrentSetIndex(): int</text></g><!--class MatchView--><g id="elem_MatchView"><rect codeLine="88" fill="#F1F1F1" height="141.1055" id="MatchView" rx="2.5" ry="2.5" style="stroke:#181818;stroke-width:0.5;" width="352.7852" x="2037.5" y="60.5137"/><ellipse cx="2175.4082" cy="76.5137" fill="#ADD1B2" rx="11" ry="11" style="stroke:#181818;stroke-width:1.0;"/><path d="M2178.1738,72.3887 Q2178.3301,72.1699 2178.5176,72.0605 Q2178.7051,71.9512 2178.9238,71.9512 Q2179.2988,71.9512 2179.5332,72.2168 Q2179.7676,72.4668 2179.7676,73.0762 L2179.7676,74.5293 Q2179.7676,75.1387 2179.5332,75.4043 Q2179.2988,75.6699 2178.9238,75.6699 Q2178.5801,75.6699 2178.377,75.4668 Q2178.1738,75.2793 2178.0645,74.7637 Q2178.0176,74.4043 2177.8301,74.2168 Q2177.502,73.8418 2176.8926,73.623 Q2176.2832,73.4043 2175.6582,73.4043 Q2174.8926,73.4043 2174.252,73.7324 Q2173.627,74.0605 2173.127,74.8105 Q2172.6426,75.5605 2172.6426,76.5918 L2172.6426,77.6855 Q2172.6426,78.9199 2173.5332,79.748 Q2174.4238,80.5605 2176.0176,80.5605 Q2176.9551,80.5605 2177.6113,80.3105 Q2178.002,80.1543 2178.4238,79.7168 Q2178.6895,79.4512 2178.8301,79.373 Q2178.9863,79.2949 2179.1895,79.2949 Q2179.5176,79.2949 2179.7676,79.5605 Q2180.0332,79.8105 2180.0332,80.1543 Q2180.0332,80.498 2179.6895,80.9043 Q2179.1895,81.4824 2178.3926,81.8105 Q2177.3145,82.2637 2176.0176,82.2637 Q2174.502,82.2637 2173.2988,81.6387 Q2172.3145,81.1387 2171.627,80.0762 Q2170.9395,78.998 2170.9395,77.7168 L2170.9395,76.5605 Q2170.9395,75.2324 2171.5488,74.0918 Q2172.1738,72.9355 2173.2676,72.3262 Q2174.3613,71.7012 2175.5957,71.7012 Q2176.3301,71.7012 2176.9707,71.873 Q2177.627,72.0293 2178.1738,72.3887 Z " fill="#000000"/><text fill="#000000" font-family="sans-serif" font-size="14" lengthAdjust="spacing" textLength="68.4688" x="2195.9082" y="82.3105">MatchView</text><line style="stroke:#181818;stroke-width:0.5;" x1="2038.5" x2="2389.2852" y1="92.5137" y2="92.5137"/><line style="stroke:#181818;stroke-width:0.5;" x1="2038.5" x2="2389.2852" y1="100.5137" y2="100.5137"/><ellipse cx="2048.5" cy="115.3242" fill="#84BE84" rx="3" ry="3" style="stroke:#038048;stroke-width:1.0;"/><text fill="#000000" font-family="sans-serif" font-size="14" lengthAdjust="spacing" textLength="319.7852" x="2057.5" y="119.6211">displayInitialMatch(ScoreController scoreController)</text><ellipse cx="2048.5" cy="133.9453" fill="#84BE84" rx="3" ry="3" style="stroke:#038048;stroke-width:1.0;"/><text fill="#000000" font-family="sans-serif" font-size="14" lengthAdjust="spacing" textLength="323.6748" x="2057.5" y="138.2422">displayMatchScore(ScoreController scoreController)</text><ellipse cx="2048.5" cy="152.5664" fill="#84BE84" rx="3" ry="3" style="stroke:#038048;stroke-width:1.0;"/><text fill="#000000" font-family="sans-serif" font-size="14" lengthAdjust="spacing" textLength="326.7852" x="2057.5" y="156.8633">displayMatchResult(ScoreController scoreController)</text><ellipse cx="2048.5" cy="171.1875" fill="#84BE84" rx="3" ry="3" style="stroke:#038048;stroke-width:1.0;"/><text fill="#000000" font-family="sans-serif" font-size="14" lengthAdjust="spacing" textLength="104.2549" x="2057.5" y="175.4844">displaySetOver()</text><ellipse cx="2048.5" cy="189.8086" fill="#84BE84" rx="3" ry="3" style="stroke:#038048;stroke-width:1.0;"/><text fill="#000000" font-family="sans-serif" font-size="14" lengthAdjust="spacing" textLength="116.7031" x="2057.5" y="194.1055">displayMatchOver(</text></g><!--class PlayerView--><g id="elem_PlayerView"><rect codeLine="96" fill="#F1F1F1" height="66.6211" id="PlayerView" rx="2.5" ry="2.5" style="stroke:#181818;stroke-width:0.5;" width="262.1611" x="2426" y="97.5137"/><ellipse cx="2517.8169" cy="113.5137" fill="#ADD1B2" rx="11" ry="11" style="stroke:#181818;stroke-width:1.0;"/><path d="M2520.5825,109.3887 Q2520.7388,109.1699 2520.9263,109.0605 Q2521.1138,108.9512 2521.3325,108.9512 Q2521.7075,108.9512 2521.9419,109.2168 Q2522.1763,109.4668 2522.1763,110.0762 L2522.1763,111.5293 Q2522.1763,112.1387 2521.9419,112.4043 Q2521.7075,112.6699 2521.3325,112.6699 Q2520.9888,112.6699 2520.7856,112.4668 Q2520.5825,112.2793 2520.4731,111.7637 Q2520.4263,111.4043 2520.2388,111.2168 Q2519.9106,110.8418 2519.3013,110.623 Q2518.6919,110.4043 2518.0669,110.4043 Q2517.3013,110.4043 2516.6606,110.7324 Q2516.0356,111.0605 2515.5356,111.8105 Q2515.0513,112.5605 2515.0513,113.5918 L2515.0513,114.6855 Q2515.0513,115.9199 2515.9419,116.748 Q2516.8325,117.5605 2518.4263,117.5605 Q2519.3638,117.5605 2520.02,117.3105 Q2520.4106,117.1543 2520.8325,116.7168 Q2521.0981,116.4512 2521.2388,116.373 Q2521.395,116.2949 2521.5981,116.2949 Q2521.9263,116.2949 2522.1763,116.5605 Q2522.4419,116.8105 2522.4419,117.1543 Q2522.4419,117.498 2522.0981,117.9043 Q2521.5981,118.4824 2520.8013,118.8105 Q2519.7231,119.2637 2518.4263,119.2637 Q2516.9106,119.2637 2515.7075,118.6387 Q2514.7231,118.1387 2514.0356,117.0762 Q2513.3481,115.998 2513.3481,114.7168 L2513.3481,113.5605 Q2513.3481,112.2324 2513.9575,111.0918 Q2514.5825,109.9355 2515.6763,109.3262 Q2516.77,108.7012 2518.0044,108.7012 Q2518.7388,108.7012 2519.3794,108.873 Q2520.0356,109.0293 2520.5825,109.3887 Z " fill="#000000"/><text fill="#000000" font-family="sans-serif" font-size="14" lengthAdjust="spacing" textLength="70.0273" x="2538.3169" y="119.3105">PlayerView</text><line style="stroke:#181818;stroke-width:0.5;" x1="2427" x2="2687.1611" y1="129.5137" y2="129.5137"/><line style="stroke:#181818;stroke-width:0.5;" x1="2427" x2="2687.1611" y1="137.5137" y2="137.5137"/><ellipse cx="2437" cy="152.3242" fill="#84BE84" rx="3" ry="3" style="stroke:#038048;stroke-width:1.0;"/><text fill="#000000" font-family="sans-serif" font-size="14" lengthAdjust="spacing" textLength="236.1611" x="2446" y="156.6211">+ displayPlayerCreated(Player player)</text></g><!--class RefereeView--><g id="elem_RefereeView"><rect codeLine="100" fill="#F1F1F1" height="85.2422" id="RefereeView" rx="2.5" ry="2.5" style="stroke:#181818;stroke-width:0.5;" width="276.5713" x="2075.5" y="430.0137"/><ellipse cx="2169.46" cy="446.0137" fill="#ADD1B2" rx="11" ry="11" style="stroke:#181818;stroke-width:1.0;"/><path d="M2172.2256,441.8887 Q2172.3818,441.6699 2172.5693,441.5605 Q2172.7568,441.4512 2172.9756,441.4512 Q2173.3506,441.4512 2173.585,441.7168 Q2173.8193,441.9668 2173.8193,442.5762 L2173.8193,444.0293 Q2173.8193,444.6387 2173.585,444.9043 Q2173.3506,445.1699 2172.9756,445.1699 Q2172.6318,445.1699 2172.4287,444.9668 Q2172.2256,444.7793 2172.1162,444.2637 Q2172.0693,443.9043 2171.8818,443.7168 Q2171.5537,443.3418 2170.9443,443.123 Q2170.335,442.9043 2169.71,442.9043 Q2168.9443,442.9043 2168.3037,443.2324 Q2167.6787,443.5605 2167.1787,444.3105 Q2166.6943,445.0605 2166.6943,446.0918 L2166.6943,447.1855 Q2166.6943,448.4199 2167.585,449.248 Q2168.4756,450.0605 2170.0693,450.0605 Q2171.0068,450.0605 2171.6631,449.8105 Q2172.0537,449.6543 2172.4756,449.2168 Q2172.7412,448.9512 2172.8818,448.873 Q2173.0381,448.7949 2173.2412,448.7949 Q2173.5693,448.7949 2173.8193,449.0605 Q2174.085,449.3105 2174.085,449.6543 Q2174.085,449.998 2173.7412,450.4043 Q2173.2412,450.9824 2172.4443,451.3105 Q2171.3662,451.7637 2170.0693,451.7637 Q2168.5537,451.7637 2167.3506,451.1387 Q2166.3662,450.6387 2165.6787,449.5762 Q2164.9912,448.498 2164.9912,447.2168 L2164.9912,446.0605 Q2164.9912,444.7324 2165.6006,443.5918 Q2166.2256,442.4355 2167.3193,441.8262 Q2168.4131,441.2012 2169.6475,441.2012 Q2170.3818,441.2012 2171.0225,441.373 Q2171.6787,441.5293 2172.2256,441.8887 Z " fill="#000000"/><text fill="#000000" font-family="sans-serif" font-size="14" lengthAdjust="spacing" textLength="80.1514" x="2189.96" y="451.8105">RefereeView</text><line style="stroke:#181818;stroke-width:0.5;" x1="2076.5" x2="2351.0713" y1="462.0137" y2="462.0137"/><line style="stroke:#181818;stroke-width:0.5;" x1="2076.5" x2="2351.0713" y1="470.0137" y2="470.0137"/><ellipse cx="2086.5" cy="484.8242" fill="#84BE84" rx="3" ry="3" style="stroke:#038048;stroke-width:1.0;"/><text fill="#000000" font-family="sans-serif" font-size="14" lengthAdjust="spacing" textLength="250.5713" x="2095.5" y="489.1211">displayRefereeCreated(Referee referee)</text><ellipse cx="2086.5" cy="503.4453" fill="#84BE84" rx="3" ry="3" style="stroke:#038048;stroke-width:1.0;"/><text fill="#000000" font-family="sans-serif" font-size="14" lengthAdjust="spacing" textLength="231.1367" x="2095.5" y="507.7422">displayLoginStatus(boolean success)</text></g><!--class MatchController--><g id="elem_MatchController"><rect codeLine="107" fill="#F1F1F1" height="103.8633" id="MatchController" rx="2.5" ry="2.5" style="stroke:#181818;stroke-width:0.5;" width="439.9434" x="1217" y="420.5137"/><ellipse cx="1383.3149" cy="436.5137" fill="#ADD1B2" rx="11" ry="11" style="stroke:#181818;stroke-width:1.0;"/><path d="M1386.0806,432.3887 Q1386.2368,432.1699 1386.4243,432.0605 Q1386.6118,431.9512 1386.8306,431.9512 Q1387.2056,431.9512 1387.4399,432.2168 Q1387.6743,432.4668 1387.6743,433.0762 L1387.6743,434.5293 Q1387.6743,435.1387 1387.4399,435.4043 Q1387.2056,435.6699 1386.8306,435.6699 Q1386.4868,435.6699 1386.2837,435.4668 Q1386.0806,435.2793 1385.9712,434.7637 Q1385.9243,434.4043 1385.7368,434.2168 Q1385.4087,433.8418 1384.7993,433.623 Q1384.1899,433.4043 1383.5649,433.4043 Q1382.7993,433.4043 1382.1587,433.7324 Q1381.5337,434.0605 1381.0337,434.8105 Q1380.5493,435.5605 1380.5493,436.5918 L1380.5493,437.6855 Q1380.5493,438.9199 1381.4399,439.748 Q1382.3306,440.5605 1383.9243,440.5605 Q1384.8618,440.5605 1385.5181,440.3105 Q1385.9087,440.1543 1386.3306,439.7168 Q1386.5962,439.4512 1386.7368,439.373 Q1386.8931,439.2949 1387.0962,439.2949 Q1387.4243,439.2949 1387.6743,439.5605 Q1387.9399,439.8105 1387.9399,440.1543 Q1387.9399,440.498 1387.5962,440.9043 Q1387.0962,441.4824 1386.2993,441.8105 Q1385.2212,442.2637 1383.9243,442.2637 Q1382.4087,442.2637 1381.2056,441.6387 Q1380.2212,441.1387 1379.5337,440.0762 Q1378.8462,438.998 1378.8462,437.7168 L1378.8462,436.5605 Q1378.8462,435.2324 1379.4556,434.0918 Q1380.0806,432.9355 1381.1743,432.3262 Q1382.2681,431.7012 1383.5024,431.7012 Q1384.2368,431.7012 1384.8774,431.873 Q1385.5337,432.0293 1386.0806,432.3887 Z " fill="#000000"/><text fill="#000000" font-family="sans-serif" font-size="14" lengthAdjust="spacing" textLength="98.8135" x="1403.8149" y="442.3105">MatchController</text><line style="stroke:#181818;stroke-width:0.5;" x1="1218" x2="1655.9434" y1="452.5137" y2="452.5137"/><rect fill="none" height="6" style="stroke:#C82930;stroke-width:1.0;" width="6" x="1225" y="464.3242"/><text fill="#000000" font-family="sans-serif" font-size="14" lengthAdjust="spacing" textLength="140.8271" x="1237" y="471.6211">MatchView matchView</text><rect fill="none" height="6" style="stroke:#C82930;stroke-width:1.0;" width="6" x="1225" y="482.9453"/><text fill="#000000" font-family="sans-serif" font-size="14" lengthAdjust="spacing" textLength="80.1377" x="1237" y="490.2422">Match match</text><line style="stroke:#181818;stroke-width:0.5;" x1="1218" x2="1655.9434" y1="497.7559" y2="497.7559"/><ellipse cx="1228" cy="512.5664" fill="#84BE84" rx="3" ry="3" style="stroke:#038048;stroke-width:1.0;"/><text fill="#000000" font-family="sans-serif" font-size="14" lengthAdjust="spacing" textLength="413.9434" x="1237" y="516.8633">createMatch(int totalSets, Player playerService, Player playerRest)</text></g><!--class PlayerController--><g id="elem_PlayerController"><rect codeLine="114" fill="#F1F1F1" height="122.4844" id="PlayerController" rx="2.5" ry="2.5" style="stroke:#181818;stroke-width:0.5;" width="236.8613" x="1692.5" y="411.5137"/><ellipse cx="1756.4946" cy="427.5137" fill="#ADD1B2" rx="11" ry="11" style="stroke:#181818;stroke-width:1.0;"/><path d="M1759.2603,423.3887 Q1759.4165,423.1699 1759.604,423.0605 Q1759.7915,422.9512 1760.0103,422.9512 Q1760.3853,422.9512 1760.6196,423.2168 Q1760.854,423.4668 1760.854,424.0762 L1760.854,425.5293 Q1760.854,426.1387 1760.6196,426.4043 Q1760.3853,426.6699 1760.0103,426.6699 Q1759.6665,426.6699 1759.4634,426.4668 Q1759.2603,426.2793 1759.1509,425.7637 Q1759.104,425.4043 1758.9165,425.2168 Q1758.5884,424.8418 1757.979,424.623 Q1757.3696,424.4043 1756.7446,424.4043 Q1755.979,424.4043 1755.3384,424.7324 Q1754.7134,425.0605 1754.2134,425.8105 Q1753.729,426.5605 1753.729,427.5918 L1753.729,428.6855 Q1753.729,429.9199 1754.6196,430.748 Q1755.5103,431.5605 1757.104,431.5605 Q1758.0415,431.5605 1758.6978,431.3105 Q1759.0884,431.1543 1759.5103,430.7168 Q1759.7759,430.4512 1759.9165,430.373 Q1760.0728,430.2949 1760.2759,430.2949 Q1760.604,430.2949 1760.854,430.5605 Q1761.1196,430.8105 1761.1196,431.1543 Q1761.1196,431.498 1760.7759,431.9043 Q1760.2759,432.4824 1759.479,432.8105 Q1758.4009,433.2637 1757.104,433.2637 Q1755.5884,433.2637 1754.3853,432.6387 Q1753.4009,432.1387 1752.7134,431.0762 Q1752.0259,429.998 1752.0259,428.7168 L1752.0259,427.5605 Q1752.0259,426.2324 1752.6353,425.0918 Q1753.2603,423.9355 1754.354,423.3262 Q1755.4478,422.7012 1756.6821,422.7012 Q1757.4165,422.7012 1758.0571,422.873 Q1758.7134,423.0293 1759.2603,423.3887 Z " fill="#000000"/><text fill="#000000" font-family="sans-serif" font-size="14" lengthAdjust="spacing" textLength="100.3721" x="1776.9946" y="433.3105">PlayerController</text><line style="stroke:#181818;stroke-width:0.5;" x1="1693.5" x2="1928.3613" y1="443.5137" y2="443.5137"/><rect fill="none" height="6" style="stroke:#C82930;stroke-width:1.0;" width="6" x="1700.5" y="455.3242"/><text fill="#000000" font-family="sans-serif" font-size="14" lengthAdjust="spacing" textLength="126.8408" x="1712.5" y="462.6211">List&lt;Player&gt; players</text><line style="stroke:#181818;stroke-width:0.5;" x1="1693.5" x2="1928.3613" y1="470.1348" y2="470.1348"/><ellipse cx="1703.5" cy="484.9453" fill="#84BE84" rx="3" ry="3" style="stroke:#038048;stroke-width:1.0;"/><text fill="#000000" font-family="sans-serif" font-size="14" lengthAdjust="spacing" textLength="210.8613" x="1712.5" y="489.2422">createPlayer(String name): Player</text><ellipse cx="1703.5" cy="503.5664" fill="#84BE84" rx="3" ry="3" style="stroke:#038048;stroke-width:1.0;"/><text fill="#000000" font-family="sans-serif" font-size="14" lengthAdjust="spacing" textLength="173.5166" x="1712.5" y="507.8633">getPlayerById(int id): Player</text><ellipse cx="1703.5" cy="522.1875" fill="#84BE84" rx="3" ry="3" style="stroke:#038048;stroke-width:1.0;"/><text fill="#000000" font-family="sans-serif" font-size="14" lengthAdjust="spacing" textLength="161.0684" x="1712.5" y="526.4844">getPlayers(): List&lt;Player&gt;</text></g><!--class RefereeController--><g id="elem_RefereeController"><rect codeLine="122" fill="#F1F1F1" height="122.4844" id="RefereeController" rx="2.5" ry="2.5" style="stroke:#181818;stroke-width:0.5;" width="365.2676" x="1254.5" y="781.0137"/><ellipse cx="1377.6357" cy="797.0137" fill="#ADD1B2" rx="11" ry="11" style="stroke:#181818;stroke-width:1.0;"/><path d="M1380.4014,792.8887 Q1380.5576,792.6699 1380.7451,792.5605 Q1380.9326,792.4512 1381.1514,792.4512 Q1381.5264,792.4512 1381.7607,792.7168 Q1381.9951,792.9668 1381.9951,793.5762 L1381.9951,795.0293 Q1381.9951,795.6387 1381.7607,795.9043 Q1381.5264,796.1699 1381.1514,796.1699 Q1380.8076,796.1699 1380.6045,795.9668 Q1380.4014,795.7793 1380.292,795.2637 Q1380.2451,794.9043 1380.0576,794.7168 Q1379.7295,794.3418 1379.1201,794.123 Q1378.5107,793.9043 1377.8857,793.9043 Q1377.1201,793.9043 1376.4795,794.2324 Q1375.8545,794.5605 1375.3545,795.3105 Q1374.8701,796.0605 1374.8701,797.0918 L1374.8701,798.1855 Q1374.8701,799.4199 1375.7607,800.248 Q1376.6514,801.0605 1378.2451,801.0605 Q1379.1826,801.0605 1379.8389,800.8105 Q1380.2295,800.6543 1380.6514,800.2168 Q1380.917,799.9512 1381.0576,799.873 Q1381.2139,799.7949 1381.417,799.7949 Q1381.7451,799.7949 1381.9951,800.0605 Q1382.2607,800.3105 1382.2607,800.6543 Q1382.2607,800.998 1381.917,801.4043 Q1381.417,801.9824 1380.6201,802.3105 Q1379.542,802.7637 1378.2451,802.7637 Q1376.7295,802.7637 1375.5264,802.1387 Q1374.542,801.6387 1373.8545,800.5762 Q1373.167,799.498 1373.167,798.2168 L1373.167,797.0605 Q1373.167,795.7324 1373.7764,794.5918 Q1374.4014,793.4355 1375.4951,792.8262 Q1376.5889,792.2012 1377.8232,792.2012 Q1378.5576,792.2012 1379.1982,792.373 Q1379.8545,792.5293 1380.4014,792.8887 Z " fill="#000000"/><text fill="#000000" font-family="sans-serif" font-size="14" lengthAdjust="spacing" textLength="110.4961" x="1398.1357" y="802.8105">RefereeController</text><line style="stroke:#181818;stroke-width:0.5;" x1="1255.5" x2="1618.7676" y1="813.0137" y2="813.0137"/><rect fill="none" height="6" style="stroke:#C82930;stroke-width:1.0;" width="6" x="1262.5" y="824.8242"/><text fill="#000000" font-family="sans-serif" font-size="14" lengthAdjust="spacing" textLength="176.6406" x="1274.5" y="832.1211">ArrayList&lt;Referee&gt; referees</text><line style="stroke:#181818;stroke-width:0.5;" x1="1255.5" x2="1618.7676" y1="839.6348" y2="839.6348"/><ellipse cx="1265.5" cy="854.4453" fill="#84BE84" rx="3" ry="3" style="stroke:#038048;stroke-width:1.0;"/><text fill="#000000" font-family="sans-serif" font-size="14" lengthAdjust="spacing" textLength="339.2676" x="1274.5" y="858.7422">createReferee(String name, String password): Referee</text><ellipse cx="1265.5" cy="873.0664" fill="#84BE84" rx="3" ry="3" style="stroke:#038048;stroke-width:1.0;"/><text fill="#000000" font-family="sans-serif" font-size="14" lengthAdjust="spacing" textLength="280.1504" x="1274.5" y="877.3633">login(String name, String password): boolean</text><rect fill="#F24D5C" height="6" style="stroke:#C82930;stroke-width:1.0;" width="6" x="1262.5" y="888.6875"/><text fill="#000000" font-family="sans-serif" font-size="14" lengthAdjust="spacing" textLength="261.4404" x="1274.5" y="895.9844">isDuplicate(String name, String password)</text></g><!--class ScoreController--><g id="elem_ScoreController"><rect codeLine="130" fill="#F1F1F1" height="215.5898" id="ScoreController" rx="2.5" ry="2.5" style="stroke:#181818;stroke-width:0.5;" width="259.4473" x="1654.5" y="734.0137"/><ellipse cx="1731.3428" cy="750.0137" fill="#ADD1B2" rx="11" ry="11" style="stroke:#181818;stroke-width:1.0;"/><path d="M1734.1084,745.8887 Q1734.2646,745.6699 1734.4521,745.5605 Q1734.6396,745.4512 1734.8584,745.4512 Q1735.2334,745.4512 1735.4678,745.7168 Q1735.7021,745.9668 1735.7021,746.5762 L1735.7021,748.0293 Q1735.7021,748.6387 1735.4678,748.9043 Q1735.2334,749.1699 1734.8584,749.1699 Q1734.5146,749.1699 1734.3115,748.9668 Q1734.1084,748.7793 1733.999,748.2637 Q1733.9521,747.9043 1733.7646,747.7168 Q1733.4365,747.3418 1732.8271,747.123 Q1732.2178,746.9043 1731.5928,746.9043 Q1730.8271,746.9043 1730.1865,747.2324 Q1729.5615,747.5605 1729.0615,748.3105 Q1728.5771,749.0605 1728.5771,750.0918 L1728.5771,751.1855 Q1728.5771,752.4199 1729.4678,753.248 Q1730.3584,754.0605 1731.9521,754.0605 Q1732.8896,754.0605 1733.5459,753.8105 Q1733.9365,753.6543 1734.3584,753.2168 Q1734.624,752.9512 1734.7646,752.873 Q1734.9209,752.7949 1735.124,752.7949 Q1735.4521,752.7949 1735.7021,753.0605 Q1735.9678,753.3105 1735.9678,753.6543 Q1735.9678,753.998 1735.624,754.4043 Q1735.124,754.9824 1734.3271,755.3105 Q1733.249,755.7637 1731.9521,755.7637 Q1730.4365,755.7637 1729.2334,755.1387 Q1728.249,754.6387 1727.5615,753.5762 Q1726.874,752.498 1726.874,751.2168 L1726.874,750.0605 Q1726.874,748.7324 1727.4834,747.5918 Q1728.1084,746.4355 1729.2021,745.8262 Q1730.2959,745.2012 1731.5303,745.2012 Q1732.2646,745.2012 1732.9053,745.373 Q1733.5615,745.5293 1734.1084,745.8887 Z " fill="#000000"/><text fill="#000000" font-family="sans-serif" font-size="14" lengthAdjust="spacing" textLength="97.2617" x="1751.8428" y="755.8105">ScoreController</text><line style="stroke:#181818;stroke-width:0.5;" x1="1655.5" x2="1912.9473" y1="766.0137" y2="766.0137"/><rect fill="none" height="6" style="stroke:#C82930;stroke-width:1.0;" width="6" x="1662.5" y="777.8242"/><text fill="#000000" font-family="sans-serif" font-size="14" lengthAdjust="spacing" textLength="149.4131" x="1674.5" y="785.1211">ScoreBoard scoreBoard</text><rect fill="none" height="6" style="stroke:#C82930;stroke-width:1.0;" width="6" x="1662.5" y="796.4453"/><text fill="#000000" font-family="sans-serif" font-size="14" lengthAdjust="spacing" textLength="77.0342" x="1674.5" y="803.7422">Game game</text><line style="stroke:#181818;stroke-width:0.5;" x1="1655.5" x2="1912.9473" y1="811.2559" y2="811.2559"/><ellipse cx="1665.5" cy="826.0664" fill="#84BE84" rx="3" ry="3" style="stroke:#038048;stroke-width:1.0;"/><text fill="#000000" font-family="sans-serif" font-size="14" lengthAdjust="spacing" textLength="210.8682" x="1674.5" y="830.3633">checkGameEndAndSwitchRoles()</text><rect fill="#F24D5C" height="6" style="stroke:#C82930;stroke-width:1.0;" width="6" x="1662.5" y="841.6875"/><text fill="#000000" font-family="sans-serif" font-size="14" lengthAdjust="spacing" textLength="233.4473" x="1674.5" y="848.9844">scorePoint(boolean isPlayer0Service)</text><ellipse cx="1665.5" cy="863.3086" fill="#84BE84" rx="3" ry="3" style="stroke:#038048;stroke-width:1.0;"/><text fill="#000000" font-family="sans-serif" font-size="14" lengthAdjust="spacing" textLength="86.3652" x="1674.5" y="867.6055">pointService()</text><ellipse cx="1665.5" cy="881.9297" fill="#84BE84" rx="3" ry="3" style="stroke:#038048;stroke-width:1.0;"/><text fill="#000000" font-family="sans-serif" font-size="14" lengthAdjust="spacing" textLength="68.4688" x="1674.5" y="886.2266">pointRest()</text><ellipse cx="1665.5" cy="900.5508" fill="#84BE84" rx="3" ry="3" style="stroke:#038048;stroke-width:1.0;"/><text fill="#000000" font-family="sans-serif" font-size="14" lengthAdjust="spacing" textLength="80.9033" x="1674.5" y="904.8477">lackService()</text><ellipse cx="1665.5" cy="919.1719" fill="#84BE84" rx="3" ry="3" style="stroke:#038048;stroke-width:1.0;"/><text fill="#000000" font-family="sans-serif" font-size="14" lengthAdjust="spacing" textLength="145.5029" x="1674.5" y="923.4688">isGameOver(): boolean</text><ellipse cx="1665.5" cy="937.793" fill="#84BE84" rx="3" ry="3" style="stroke:#038048;stroke-width:1.0;"/><text fill="#000000" font-family="sans-serif" font-size="14" lengthAdjust="spacing" textLength="128.3926" x="1674.5" y="942.0898">isSetOver(): boolean</text></g><!--reverse link IGame to StandardGame--><g id="link_IGame_StandardGame"><path d="M207.43,218.7449 C190.47,274.1349 171.98,334.4837 154.27,392.2737 " fill="none" id="IGame-backto-StandardGame" style="stroke:#181818;stroke-width:1.0;stroke-dasharray:7.0,7.0;"/><polygon fill="none" points="212.7,201.5337,201.693,216.9883,213.1671,220.5016,212.7,201.5337" style="stroke:#181818;stroke-width:1.0;"/></g><!--reverse link IGame to TieBreakGame--><g id="link_IGame_TieBreakGame"><path d="M267.0568,218.3434 C288.2668,273.7334 311.53,334.4837 333.66,392.2737 " fill="none" id="IGame-backto-TieBreakGame" style="stroke:#181818;stroke-width:1.0;stroke-dasharray:7.0,7.0;"/><polygon fill="none" points="260.62,201.5337,261.4536,220.489,272.6601,216.1978,260.62,201.5337" style="stroke:#181818;stroke-width:1.0;"/></g><!--link controller to model--><g id="link_controller_model"><path codeLine="145" d="M1192.8372,366.386 C1192.868,365.986 1192.8988,365.5859 1192.9294,365.1854 C1192.9906,364.3846 1193.0513,363.5829 1193.1115,362.7805 C1193.3522,359.5707 1193.5841,356.349 1193.8055,353.1244 C1194.2482,346.6753 1194.6488,340.2148 1194.9929,333.8158 C1195.681,321.0179 1196.1433,308.4659 1196.2653,296.7429 C1196.5094,273.2968 1195.3925,253.1662 1192,241.0137 C1184.625,214.5937 1168.91,188.1937 1154.665,167.9937 C1147.5425,157.8937 1140.7875,149.3437 1135.6263,143.1162 C1135.3037,142.727 1134.9873,142.3468 1134.6775,141.9759 C1134.5226,141.7905 1138.2247,146.2047 1138.0731,146.0239 " fill="none" id="controller-to-model" style="stroke:#181818;stroke-width:1.0;stroke-dasharray:7.0,7.0;"/><polygon fill="#181818" points="1134.2177,141.4266,1136.936,150.8929,1137.4306,145.2577,1143.0657,145.7523,1134.2177,141.4266" style="stroke:#181818;stroke-width:1.0;"/><text fill="#000000" font-family="sans-serif" font-size="13" lengthAdjust="spacing" textLength="86.7344" x="1196" y="256.042">request/update</text></g><!--link model to controller--><g id="link_model_controller"><path codeLine="148" d="M1134.0369,180.7495 C1134.3498,182.6466 1134.6696,184.5857 1134.9959,186.5643 C1140.2175,218.2224 1147.1087,260.0012 1154,301.7787 C1160.8913,343.5562 1167.7825,385.3324 1173.0041,416.9855 C1173.3304,418.9639 1172.6737,414.9827 1172.9866,416.8794 " fill="none" id="model-to-controller" style="stroke:#181818;stroke-width:1.0;stroke-dasharray:7.0,7.0;"/><polygon fill="#181818" points="1173.9631,422.7994,1176.4449,413.2684,1173.1493,417.8661,1168.5516,414.5705,1173.9631,422.7994" style="stroke:#181818;stroke-width:1.0;"/><text fill="#000000" font-family="sans-serif" font-size="13" lengthAdjust="spacing" textLength="28.1899" x="1147" y="256.042">send</text></g><!--link controller to view--><g id="link_controller_view"><path codeLine="146" d="M1173.9982,437.3788 C1173.9129,436.9046 1173.8279,436.4268 1173.7434,435.9455 C1173.5742,434.9828 1173.4068,434.006 1173.2415,433.0159 C1172.9109,431.0357 1172.5891,429.002 1172.2799,426.9206 C1171.0431,418.5948 1170.0094,409.5046 1169.435,400.0124 C1167.1375,362.0437 1172.19,317.6437 1201,290.0137 C1239.49,253.1037 1627.96,271.6737 1680,260.0137 C1753.965,243.4387 1833.125,212.1712 1894.4475,184.6899 C1925.1087,170.9493 1951.3106,158.1552 1970.1741,148.6176 C1979.6058,143.8488 1987.2029,139.894 1992.6055,137.0421 C1992.9432,136.8639 1987.969,139.4962 1988.2894,139.3266 " fill="none" id="controller-to-view" style="stroke:#181818;stroke-width:1.0;stroke-dasharray:7.0,7.0;"/><polygon fill="#181818" points="1993.5927,136.5204,1983.7669,137.1942,1989.1733,138.8589,1987.5086,144.2653,1993.5927,136.5204" style="stroke:#181818;stroke-width:1.0;"/><text fill="#000000" font-family="sans-serif" font-size="13" lengthAdjust="spacing" textLength="28.1899" x="1744" y="256.042">send</text></g><!--link view to controller--><g id="link_view_controller"><path codeLine="147" d="M1993.4566,133.3991 C1992.7604,133.5125 1992.0234,133.6325 1991.2466,133.7592 C1985.0316,134.7724 1976.2596,136.2065 1965.2906,138.0102 C1943.3527,141.6175 1912.6269,146.7028 1875.9944,152.8551 C1802.7294,165.1596 1705.8375,181.7318 1608.3675,199.2824 C1413.4275,234.3837 1216.175,273.3987 1201,290.0137 C1174.075,319.4887 1169.0525,363.9162 1170.8938,401.4374 C1171.3541,410.8177 1172.2434,419.7664 1173.3267,427.9419 C1173.4621,428.9638 1173.6005,429.9737 1173.7415,430.9708 C1173.812,431.4693 1173.0177,426.0275 1173.0894,426.5196 " fill="none" id="view-to-controller" style="stroke:#181818;stroke-width:1.0;stroke-dasharray:7.0,7.0;"/><polygon fill="#181818" points="1173.9549,432.4568,1176.6148,422.9739,1173.2337,427.5091,1168.6985,424.128,1173.9549,432.4568" style="stroke:#181818;stroke-width:1.0;"/><text fill="#000000" font-family="sans-serif" font-size="13" lengthAdjust="spacing" textLength="40.4663" x="1388" y="256.042">display</text></g><!--SRC=[tLPBJnin4BxdLrYSDgBGdfCg4eI28b4LaQgNgWVNEmIBZNThUqCHuhzt_5mxSKZBiHo2TzxVZ6V67MKFT0NaQDtMq1oHvz68u1zhg5BaCzNi7ac6SaAMMdAn8hpstnTK0wdnntzVSwK_Ba7FY0AjF94BJNIhQRCSQ7Wah9SIXCPZ8B9MmdbBPKrKFBfWNjAORk4E942CoZY88VaG1Lr3JkbGzR4D1ey9xVKzkkSCmw-sPCOJyhDj6w1Yr_jDGvz07dQ-gsb01xN55Sg455mDmTeCMkQChF0t9CnGBYdJhNooT7-EOEhQI5JMgk6FFQFlJ7aipmVUsNzBa1lEu1t9gBUWTD3awYk7SmdqeIgd0v63lACCF1W7pG9mHX41Q7TKrNXgsTuEMdUC3pwGmD-q7Al_oF7MtQAaokWEp4sBdbKEPyUwYUZB1cJGpmkXgQZnRjcm-RfhO8rLK0x7Srg90CHv2SNO1s8KKxSDBa_WSOumArKHNRGxm7hbXeQw_QVmaZ6HDE7t7w6Rd8jfoXgOnaFEI-PGoY0DZaKFSDxsGazBuspwIZQdCL-2ILi2R-wIzesEUS4UIUdMby6FVho415MK-Ul43aFWLG43gCot4NWF6StPF5n0mqFp9TQ9oS0yrc0XQlYTudyPOVMxiACs71wFVDsJ3VKDoPvwJ6gkJFWBmJMdZULNzjBCMw5bspI8J-NVurpLwbYLjoZY53K5_ZVDc9s2GSlOjuaow57FyUOu1ZJKfQAMDcefYvuLB8NTAzt_hMYlsnKNE5rrhwemHLJF62WrBXIJnMGKIffaBhJvKEfrEAKSHmrTnsp4hlfPpsxjl4ERi93oGcZ5SPf5ufXLyaJ0I-w8moHmt-TFYxfo3ukzCihqIEfrRrKBqPv9YSKoobvc5Wgw5RHdfr6_8xkF9I_cLHjp2mwfv2E0guk-QxAtM5bnppeeO2o_9eVNb7qcHRJtmEo-_2JgCr4lT_RNYJDYPs2rRq66RkYCL5oEAT5SgqX9DipRH-ZGLbaxdPxEueD-WiNzrQFdzsxE5oJTM9tWirtK8_zb6Qda9BJvA5WkY5WBepy0]--></g></svg>